Garamondia_wght.glyphspackage
{
glyphname = exclam;
kernLeft = exclam;
layers = (
{
background = {
shapes = (
{
closed = 1;
nodes = (
(248,312,qs),
(256,552,ls),
(258,651,o),
(297,983,qs),
(317,1156,o),
(317,1202,qs),
(317,1252,o),
(263,1307,o),
(224,1307,qs),
(188,1307,o),
(138,1252,o),
(138,1198,qs),
(138,1144,o),
(158,1020,qs),
(172,927,o),
(175,867,qs),
(207,291,l),
(221,288,o),
(228,288,qs),
(233,288,o),
(243,290,q),
(247,304,o)
);
},
{
closed = 1;
nodes = (
(194,-25,o),
(230,-25,qs),
(263,-25,o),
(329,47,o),
(329,85,qs),
(329,123,o),
(272,182,o),
(230,182,qs),
(186,182,o),
(125,121,o),
(125,79,qs),
(125,45,o)
);
}
);
};
layerId = m01;
shapes = (
{
closed = 1;
nodes = (
(274,447,o),
(276,478,qs),
(286,561,o),
(306,760,o),
(323,956,o),
(335,1117,o),
(335,1164,qs),
(335,1207,o),
(286,1272,o),
(247,1272,qs),
(208,1272,o),
(155,1207,o),
(155,1164,qs),
(155,1117,o),
(165,956,o),
(178,760,o),
(198,562,o),
(206,478,qs),
(210,435,o),
(227,402,o),
(241,402,qs),
(257,402,o)
);
},
{
closed = 1;
nodes = (
(363,41,o),
(363,90,qs),
(363,139,o),
(294,208,o),
(245,208,qs),
(196,208,o),
(127,139,o),
(127,90,qs),
(127,41,o),
(196,-27,o),
(245,-27,qs),
(294,-27,o)
);
}
);
width = 448;
},
{
layerId = "9613C2D5-9CC0-4B03-8E94-AFF45D3AC865";
shapes = (
{
closed = 1;
nodes = (
(343,396,o),
(351,441,qs),
(368,553,o),
(404,739,o),
(431,894,o),
(449,1031,o),
(449,1092,qs),
(449,1164,o),
(366,1272,o),
(298,1272,qs),
(229,1272,o),
(137,1158,o),
(139,1088,qs),
(141,1027,o),
(153,894,o),
(174,739,o),
(206,555,o),
(223,441,qs),
(233,384,o),
(263,337,o),
(288,337,qs),
(314,337,o)
);
},
{
closed = 1;
nodes = (
(431,59,o),
(431,120,qs),
(431,180,o),
(345,267,o),
(284,267,qs),
(223,267,o),
(137,180,o),
(137,120,qs),
(137,59,o),
(223,-27,o),
(284,-27,qs),
(345,-27,o)
);
}
);
width = 533;
}
);
note = exclam;
unicode = 33;
}
{
glyphname = numbersign;
layers = (
{
background = {
shapes = (
{
closed = 1;
nodes = (
(410,861,l),
(325,455,l),
(94,455,l),
(94,367,l),
(306,367,l),
(220,-47,l),
(309,-47,l),
(393,367,l),
(851,367,l),
(764,-47,l),
(853,-47,l),
(938,367,l),
(1271,367,l),
(1271,455,l),
(956,455,l),
(1041,861,l),
(1271,861,l),
(1271,949,l),
(1058,949,l),
(1146,1365,l),
(1058,1365,l),
(971,949,l),
(516,949,l),
(604,1365,l),
(517,1365,l),
(429,949,l),
(94,949,l),
(94,861,l)
);
},
{
closed = 1;
nodes = (
(869,457,l),
(412,457,l),
(497,861,l),
(954,861,l)
);
}
);
};
layerId = m01;
shapes = (
{
closed = 1;
nodes = (
(172,-145,o),
(176,-125,qs),
(263,225,l),
(486,237,l),
(402,-104,l),
(402,-110,ls),
(402,-118,o),
(414,-133,o),
(421,-133,qs),
(441,-133,o),
(476,-123,o),
(480,-104,qs),
(564,241,l),
(678,247,ls),
(700,249,o),
(727,286,o),
(739,331,o),
(739,341,qs),
(739,351,o),
(723,365,o),
(713,365,qs),
(594,359,l),
(660,629,l),
(770,635,ls),
(792,637,o),
(819,676,o),
(831,721,o),
(831,731,qs),
(831,741,o),
(815,753,o),
(805,753,qs),
(690,747,l),
(772,1084,l),
(772,1088,o),
(774,1092,o),
(774,1094,qs),
(774,1103,o),
(766,1117,o),
(758,1117,qs),
(739,1117,o),
(698,1105,o),
(694,1084,qs),
(610,743,l),
(388,731,l),
(468,1062,l),
(468,1066,o),
(470,1070,o),
(470,1072,qs),
(470,1082,o),
(463,1096,o),
(455,1096,qs),
(435,1096,o),
(394,1084,o),
(390,1062,qs),
(308,727,l),
(172,721,ls),
(153,721,o),
(131,682,o),
(125,637,o),
(125,627,qs),
(125,617,o),
(143,604,o),
(153,604,qs),
(278,610,l),
(212,339,l),
(80,333,ls),
(61,333,o),
(39,294,o),
(33,249,o),
(33,239,qs),
(33,229,o),
(51,216,o),
(61,216,qs),
(184,221,l),
(98,-125,l),
(98,-131,ls),
(98,-139,o),
(110,-155,o),
(118,-155,qs),
(137,-155,o)
);
},
{
closed = 1;
nodes = (
(580,625,l),
(515,355,l),
(292,343,l),
(359,613,l)
);
}
);
width = 1365;
},
{
layerId = "9613C2D5-9CC0-4B03-8E94-AFF45D3AC865";
shapes = (
{
closed = 1;
nodes = (
(206,-172,o),
(214,-141,qs),
(290,172,l),
(513,180,l),
(441,-110,l),
(441,-120,ls),
(441,-133,o),
(459,-157,o),
(472,-157,qs),
(504,-157,o),
(537,-141,o),
(545,-110,qs),
(617,186,l),
(770,192,ls),
(790,194,o),
(827,235,o),
(853,300,o),
(853,333,qs),
(853,353,o),
(825,378,o),
(800,376,qs),
(662,370,l),
(713,580,l),
(847,586,ls),
(866,588,o),
(903,629,o),
(929,694,o),
(929,727,qs),
(929,747,o),
(902,772,o),
(876,770,qs),
(760,764,l),
(829,1047,l),
(829,1050,o),
(833,1056,o),
(833,1062,qs),
(833,1076,o),
(819,1099,o),
(807,1099,qs),
(774,1099,o),
(733,1080,o),
(727,1047,qs),
(657,758,l),
(433,751,l),
(500,1025,l),
(500,1029,o),
(504,1035,o),
(504,1041,qs),
(504,1054,o),
(490,1078,o),
(478,1078,qs),
(445,1078,o),
(404,1058,o),
(398,1025,qs),
(329,745,l),
(182,739,ls),
(163,739,o),
(127,711,o),
(106,651,o),
(106,596,qs),
(106,582,o),
(129,553,o),
(151,555,qs),
(282,561,l),
(231,353,l),
(106,347,ls),
(86,347,o),
(51,319,o),
(29,259,o),
(29,204,qs),
(29,190,o),
(53,161,o),
(74,163,qs),
(186,167,l),
(110,-141,l),
(110,-151,ls),
(110,-165,o),
(127,-188,o),
(141,-188,qs),
(172,-188,o)
);
},
{
closed = 1;
nodes = (
(610,574,l),
(559,365,l),
(335,357,l),
(388,566,l)
);
}
);
width = 1365;
}
);
note = numbersign;
unicode = 35;
}
{
glyphname = dollar;
layers = (
{
background = {
shapes = (
{
closed = 1;
nodes = (
(253,134,qs),
(189,218,o),
(144,218,qs),
(121,218,o),
(85,185,o),
(85,162,qs),
(85,113,o),
(188,10,o),
(299,-15,qs),
(321,-20,o),
(335,-23,q),
(335,-192,o),
(332,-272,q),
(369,-272,l),
(371,-234,o),
(376,-73,o),
(384,-23,q),
(488,-21,o),
(515,-16,q),
(515,-33,o),
(519,-80,o),
(519,-96,qs),
(519,-110,o),
(518,-131,qs),
(515,-202,o),
(515,-217,qs),
(515,-235,o),
(517,-273,q),
(556,-273,l),
(562,-214,o),
(562,-202,qs),
(559,-63,ls),
(559,-54,o),
(569,-7,q),
(587,2,o),
(608,8,qs),
(704,39,o),
(829,201,o),
(829,307,qs),
(829,365,o),
(817,403,qs),
(799,457,o),
(751,525,qs),
(726,560,o),
(685,587,qs),
(591,649,l),
(581,654,o),
(575,660,q),
(577,858,ls),
(577,950,o),
(573,988,qs),
(571,1013,o),
(571,1023,qs),
(571,1052,o),
(578,1162,q),
(605,1155,o),
(632,1132,o),
(683,1059,q),
(703,1037,o),
(712,1025,q),
(744,1000,o),
(763,1000,qs),
(789,1000,o),
(825,1034,o),
(825,1059,qs),
(825,1085,o),
(816,1102,q),
(789,1138,o),
(779,1146,qs),
(741,1178,o),
(663,1217,o),
(585,1237,q),
(584,1258,o),
(584,1290,qs),
(584,1321,o),
(581,1340,q),
(538,1340,l),
(535,1277,o),
(535,1257,qs),
(535,1243,l),
(522,1244,o),
(502,1246,qs),
(470,1250,o),
(444,1250,qs),
(420,1250,o),
(381,1246,q),
(381,1278,o),
(376,1341,q),
(339,1342,l),
(333,1265,o),
(333,1257,qs),
(333,1243,l),
(315,1237,ls),
(206,1204,o),
(86,1046,o),
(86,945,qs),
(86,871,o),
(141,756,o),
(282,652,o),
(343,626,q),
(349,434,l),
(347,383,ls),
(346,128,o),
(335,59,q),
(300,72,o)
);
},
{
closed = 1;
nodes = (
(377,781,qs),
(378,827,ls),
(378,857,o),
(375,913,q),
(377,1047,l),
(375,1190,l),
(403,1200,o),
(437,1200,qs),
(480,1200,o),
(528,1191,q),
(536,1147,o),
(536,1104,qs),
(535,1075,l),
(536,1017,l),
(530,725,ls),
(530,719,o),
(529,683,q),
(518,686,o),
(507,694,q),
(409,741,o),
(378,759,q),
(377,776,o)
);
},
{
closed = 1;
nodes = (
(171,936,o),
(171,984,qs),
(171,1050,o),
(220,1115,qs),
(255,1162,o),
(332,1181,q),
(337,1140,o),
(337,1022,qs),
(337,988,o),
(335,898,qs),
(335,835,ls),
(335,823,o),
(332,780,q),
(259,813,o)
);
},
{
closed = 1;
nodes = (
(376,97,qs),
(376,145,l),
(375,163,l),
(387,578,ls),
(387,584,o),
(392,598,q),
(455,576,o),
(526,530,q),
(529,495,o),
(529,481,qs),
(529,409,l),
(530,280,l),
(527,119,l),
(526,51,l),
(524,35,l),
(502,28,o),
(477,28,qs),
(422,28,o),
(377,45,q),
(377,59,o)
);
},
{
closed = 1;
nodes = (
(565,84,l),
(572,253,l),
(574,459,ls),
(575,471,o),
(578,490,q),
(615,470,o),
(650,432,qs),
(674,407,o),
(703,341,qs),
(716,311,o),
(716,268,qs),
(716,191,o),
(643,83,o),
(569,52,q),
(566,75,l)
);
}
);
};
layerId = m01;
shapes = (
{
closed = 1;
nodes = (
(382,-147,o),
(384,-131,qs),
(402,18,ls),
(404,31,o),
(419,31,qs),
(584,41,o),
(780,231,o),
(780,380,qs),
(780,468,o),
(702,592,o),
(580,682,o),
(515,719,q),
(496,735,o),
(490,743,o),
(492,755,qs),
(539,1143,l),
(539,1152,o),
(547,1152,q),
(592,1133,o),
(660,1048,o),
(688,982,qs),
(692,972,o),
(723,958,o),
(741,958,qs),
(751,958,o),
(768,966,o),
(768,978,qs),
(768,1019,o),
(741,1115,o),
(731,1152,qs),
(727,1166,o),
(707,1192,o),
(692,1195,q),
(670,1205,o),
(608,1227,o),
(568,1235,qs),
(557,1237,o),
(557,1248,qs),
(559,1258,o),
(562,1307,o),
(570,1356,o),
(570,1366,qs),
(570,1376,o),
(555,1395,o),
(545,1395,qs),
(525,1395,o),
(492,1382,o),
(488,1362,qs),
(474,1250,l),
(474,1239,o),
(455,1239,qs),
(341,1233,o),
(186,1141,o),
(110,998,o),
(110,913,qs),
(110,839,o),
(182,727,o),
(300,641,o),
(363,604,qs),
(380,594,o),
(388,578,o),
(386,570,q),
(333,122,ls),
(333,116,o),
(321,116,o),
(316,118,qs),
(261,139,o),
(171,249,o),
(143,345,qs),
(141,357,o),
(123,365,o),
(114,365,qs),
(78,365,o),
(78,341,qs),
(82,304,o),
(86,192,o),
(96,155,qs),
(100,145,o),
(114,127,o),
(120,120,q),
(159,88,o),
(255,45,o),
(310,35,qs),
(314,35,o),
(325,27,o),
(323,18,qs),
(306,-122,ls),
(304,-141,o),
(323,-161,o),
(335,-161,qs),
(351,-161,o)
);
},
{
closed = 1;
nodes = (
(414,123,q),
(463,527,l),
(463,545,o),
(476,537,qs),
(545,494,o),
(625,400,o),
(625,310,qs),
(625,218,o),
(515,110,o),
(429,104,qs),
(414,104,o)
);
},
{
closed = 1;
nodes = (
(263,919,o),
(263,974,qs),
(263,1078,o),
(368,1160,o),
(445,1166,qs),
(459,1166,o),
(459,1150,q),
(415,794,l),
(415,784,o),
(398,792,q),
(337,833,o)
);
}
);
width = 917;
},
{
layerId = "9613C2D5-9CC0-4B03-8E94-AFF45D3AC865";
shapes = (
{
closed = 1;
nodes = (
(404,-149,o),
(406,-137,qs),
(421,8,ls),
(423,20,o),
(433,20,qs),
(615,29,o),
(843,208,o),
(843,388,qs),
(843,468,o),
(792,596,o),
(672,711,o),
(568,772,qs),
(531,796,o),
(510,819,o),
(512,837,qs),
(545,1121,ls),
(547,1135,o),
(561,1133,q),
(617,1113,o),
(696,1007,o),
(723,923,qs),
(727,909,o),
(758,896,o),
(772,896,qs),
(788,896,o),
(807,909,o),
(807,917,qs),
(807,986,o),
(798,1096,o),
(788,1133,qs),
(780,1162,o),
(760,1184,o),
(739,1192,qs),
(711,1203,o),
(623,1231,o),
(574,1239,qs),
(559,1243,o),
(559,1256,qs),
(561,1270,o),
(562,1299,o),
(566,1327,o),
(568,1341,qs),
(572,1364,o),
(557,1395,o),
(537,1395,qs),
(508,1395,o),
(466,1376,o),
(464,1358,qs),
(455,1258,ls),
(455,1244,o),
(435,1241,qs),
(335,1229,o),
(171,1135,o),
(74,986,o),
(74,890,qs),
(74,790,o),
(155,651,o),
(280,553,o),
(351,512,qs),
(363,504,o),
(370,488,o),
(368,478,qs),
(333,159,ls),
(331,149,o),
(321,145,o),
(314,147,q),
(247,180,o),
(145,323,o),
(116,419,q),
(108,431,o),
(94,443,o),
(76,443,qs),
(41,443,o),
(41,419,qs),
(37,341,o),
(53,196,o),
(73,145,qs),
(78,131,o),
(100,110,o),
(114,100,qs),
(159,74,o),
(255,37,o),
(306,27,qs),
(314,25,o),
(317,20,o),
(316,14,q),
(304,-106,ls),
(302,-125,o),
(323,-161,o),
(349,-161,qs),
(370,-161,o)
);
},
{
closed = 1;
nodes = (
(437,145,qs),
(468,423,ls),
(470,441,o),
(484,433,qs),
(531,400,o),
(574,325,o),
(574,270,qs),
(574,221,o),
(521,135,o),
(459,123,q),
(435,123,o)
);
},
{
closed = 1;
nodes = (
(337,964,o),
(337,996,qs),
(337,1048,o),
(382,1119,o),
(427,1133,qs),
(443,1137,o),
(439,1115,qs),
(414,890,l),
(414,872,o),
(402,884,qs),
(370,911,o)
);
}
);
width = 960;
}
);
note = dollar;
unicode = 36;
}
{
glyphname = ampersand;
layers = (
{
background = {
shapes = (
{
closed = 1;
nodes = (
(335,676,qs),
(253,635,o),
(232,621,qs),
(171,579,o),
(99,500,o),
(55,389,o),
(55,329,qs),
(55,251,o),
(132,79,o),
(303,-29,o),
(432,-29,qs),
(537,-29,o),
(700,29,o),
(769,80,qs),
(808,109,o),
(888,189,q),
(902,177,o),
(947,133,qs),
(1018,64,o),
(1048,42,qs),
(1100,5,o),
(1197,-30,o),
(1253,-30,qs),
(1344,-30,o),
(1420,33,qs),
(1439,48,o),
(1461,142,q),
(1449,146,o),
(1444,146,qs),
(1430,146,o),
(1398,121,qs),
(1350,82,o),
(1285,82,qs),
(1226,82,o),
(1123,151,o),
(996,303,q),
(1068,402,o),
(1269,637,o),
(1368,714,o),
(1438,744,q),
(1442,755,o),
(1442,761,q),
(1440,773,l),
(1326,764,o),
(1198,760,o),
(1163,755,qs),
(1048,744,l),
(1046,735,l),
(1046,730,o),
(1050,720,q),
(1095,708,o),
(1132,666,o),
(1132,637,qs),
(1132,595,o),
(1051,438,o),
(966,342,q),
(795,555,ls),
(782,572,o),
(756,601,qs),
(679,688,o),
(644,737,q),
(750,784,o),
(842,904,o),
(842,994,qs),
(842,1089,o),
(705,1217,o),
(580,1217,qs),
(445,1217,o),
(299,1085,o),
(299,997,qs),
(299,946,o),
(352,832,o),
(446,712,q),
(386,701,o)
);
},
{
closed = 1;
nodes = (
(474,933,qs),
(434,996,o),
(434,1049,qs),
(434,1100,o),
(510,1173,o),
(571,1173,qs),
(639,1173,o),
(727,1072,o),
(727,977,qs),
(727,913,o),
(663,799,o),
(607,775,q),
(531,845,o)
);
},
{
closed = 1;
nodes = (
(655,92,o),
(557,92,qs),
(472,92,o),
(340,144,o),
(254,237,o),
(221,335,o),
(221,362,qs),
(221,459,o),
(350,633,o),
(475,680,q),
(586,558,o),
(627,507,qs),
(850,241,l),
(853,237,l),
(861,226,l),
(814,169,o)
);
}
);
};
layerId = m01;
shapes = (
{
closed = 1;
nodes = (
(637,43,o),
(749,161,o),
(809,227,qs),
(821,239,l),
(847,198,ls),
(898,120,o),
(978,20,o),
(1076,-29,o),
(1148,-29,qs),
(1203,-29,o),
(1319,22,o),
(1401,84,o),
(1401,100,qs),
(1401,114,o),
(1391,123,o),
(1378,123,qs),
(1370,123,o),
(1352,118,o),
(1344,114,qs),
(1309,94,o),
(1233,78,o),
(1192,78,qs),
(1117,78,o),
(996,186,o),
(933,276,qs),
(900,323,l),
(900,323,o),
(966,394,o),
(1064,500,o),
(1168,608,o),
(1243,686,o),
(1250,692,qs),
(1274,713,o),
(1348,751,o),
(1393,753,qs),
(1407,755,o),
(1442,778,o),
(1442,790,qs),
(1442,796,o),
(1423,807,o),
(1419,807,qs),
(1395,807,o),
(1331,792,o),
(1260,778,o),
(1231,778,qs),
(1217,778,o),
(1154,784,o),
(1097,788,o),
(1092,788,qs),
(1086,788,o),
(1048,782,o),
(1048,766,qs),
(1048,762,o),
(1068,747,o),
(1072,745,q),
(1097,741,o),
(1127,702,o),
(1127,690,qs),
(1127,676,o),
(1058,572,o),
(958,447,o),
(911,396,qs),
(876,359,l),
(853,394,ls),
(794,480,o),
(672,598,o),
(598,678,qs),
(572,706,l),
(600,715,ls),
(698,751,o),
(807,860,o),
(805,935,qs),
(805,986,o),
(751,1097,o),
(641,1174,o),
(557,1174,qs),
(490,1174,o),
(365,1119,o),
(284,1017,o),
(284,949,qs),
(284,892,o),
(333,804,o),
(394,741,o),
(412,719,qs),
(441,688,l),
(402,670,ls),
(261,606,o),
(74,406,o),
(74,249,qs),
(74,169,o),
(161,43,o),
(316,-29,o),
(415,-29,qs),
(508,-29,o)
);
},
{
closed = 1;
nodes = (
(225,223,o),
(225,314,qs),
(225,372,o),
(251,496,o),
(339,604,o),
(429,639,qs),
(470,655,l),
(494,629,ls),
(578,539,o),
(725,386,o),
(774,312,qs),
(798,274,l),
(780,257,ls),
(707,180,o),
(564,98,o),
(466,98,qs),
(359,98,o)
);
},
{
closed = 1;
nodes = (
(464,825,o),
(414,896,o),
(398,958,o),
(398,998,qs),
(398,1050,o),
(488,1123,o),
(547,1123,qs),
(615,1123,o),
(680,1013,o),
(680,945,qs),
(680,886,o),
(627,774,o),
(572,749,qs),
(547,737,l),
(515,770,ls)
);
}
);
width = 1493;
},
{
layerId = "9613C2D5-9CC0-4B03-8E94-AFF45D3AC865";
shapes = (
{
closed = 1;
nodes = (
(623,12,o),
(758,100,o),
(815,167,qs),
(825,178,l),
(862,137,ls),
(913,82,o),
(1007,8,o),
(1121,-29,o),
(1199,-29,qs),
(1299,-29,o),
(1450,37,o),
(1535,125,o),
(1535,155,qs),
(1535,174,o),
(1515,184,o),
(1499,184,qs),
(1487,184,o),
(1462,174,o),
(1452,171,qs),
(1411,157,o),
(1331,143,o),
(1297,143,qs),
(1241,143,o),
(1131,247,o),
(1070,319,qs),
(1033,363,l),
(1060,388,o),
(1119,437,o),
(1178,486,o),
(1235,537,o),
(1292,588,o),
(1319,613,qs),
(1352,647,o),
(1442,711,o),
(1507,723,qs),
(1540,729,o),
(1576,762,o),
(1576,780,qs),
(1576,790,o),
(1558,807,o),
(1542,807,qs),
(1509,807,o),
(1415,786,o),
(1317,762,o),
(1274,762,qs),
(1237,762,o),
(1168,770,o),
(1105,778,o),
(1076,778,qs),
(1050,778,o),
(1015,770,o),
(1015,749,qs),
(1015,731,o),
(1041,717,o),
(1058,709,qs),
(1080,702,o),
(1115,672,o),
(1115,641,qs),
(1115,617,o),
(1092,553,o),
(1047,482,o),
(1009,449,qs),
(984,425,l),
(945,464,ls),
(896,513,o),
(784,631,o),
(735,680,qs),
(692,725,l),
(739,743,ls),
(835,778,o),
(947,876,o),
(947,968,qs),
(947,1031,o),
(864,1123,o),
(721,1176,o),
(631,1176,qs),
(519,1176,o),
(351,1109,o),
(257,998,o),
(257,929,qs),
(257,872,o),
(306,780,o),
(370,711,o),
(390,690,qs),
(404,676,l),
(363,657,ls),
(216,586,o),
(59,365,o),
(59,257,qs),
(59,159,o),
(169,31,o),
(329,-31,o),
(406,-31,qs),
(478,-31,o)
);
},
{
closed = 1;
nodes = (
(341,302,o),
(341,421,qs),
(341,459,o),
(357,521,o),
(390,574,o),
(415,590,qs),
(449,611,l),
(472,584,ls),
(541,506,o),
(668,353,o),
(735,274,qs),
(766,237,l),
(753,223,ls),
(709,180,o),
(608,167,o),
(568,167,qs),
(464,167,o)
);
},
{
closed = 1;
nodes = (
(600,827,o),
(564,870,o),
(537,947,o),
(537,1001,qs),
(537,1047,o),
(590,1101,o),
(621,1101,qs),
(672,1101,o),
(715,1013,o),
(713,956,qs),
(713,909,o),
(692,817,o),
(670,796,qs),
(651,776,l),
(610,815,l)
);
}
);
width = 1643;
}
);
note = ampersand;
unicode = 38;
}
{
glyphname = quotesingle;
layers = (
{
background = {
shapes = (
{
closed = 1;
nodes = (
(256,1098,ls),
(282,1242,o),
(282,1282,qs),
(282,1328,o),
(223,1387,o),
(178,1387,qs),
(133,1387,o),
(81,1329,o),
(81,1265,qs),
(81,1222,o),
(104,1099,qs),
(158,803,l),
(202,803,l)
);
}
);
};
layerId = m01;
shapes = (
{
closed = 1;
nodes = (
(171,902,o),
(178,919,qs),
(194,954,o),
(237,1078,o),
(270,1211,o),
(270,1262,qs),
(270,1288,o),
(259,1325,o),
(243,1325,qs),
(219,1325,o),
(182,1303,o),
(159,1284,qs),
(147,1274,o),
(122,1237,o),
(122,1215,q),
(122,1215,o),
(125,1150,o),
(129,1062,o),
(129,1027,qs),
(129,1001,o),
(129,947,o),
(127,915,qs),
(127,902,o),
(133,870,o),
(141,870,qs),
(149,870,o)
);
}
);
width = 363;
},
{
layerId = "9613C2D5-9CC0-4B03-8E94-AFF45D3AC865";
shapes = (
{
closed = 1;
nodes = (
(210,825,o),
(221,847,qs),
(245,892,o),
(310,1043,o),
(359,1205,o),
(359,1268,qs),
(359,1297,o),
(329,1342,o),
(306,1342,qs),
(268,1342,o),
(214,1317,o),
(178,1293,qs),
(159,1282,o),
(120,1239,o),
(120,1209,qs),
(120,1176,o),
(125,1101,o),
(131,1019,o),
(131,972,qs),
(131,941,o),
(137,880,o),
(135,841,qs),
(135,825,o),
(145,784,o),
(159,784,qs),
(169,784,o)
);
}
);
width = 576;
}
);
note = quotesingle;
unicode = 39;
}
{
glyphname = parenleft;
layers = (
{
background = {
shapes = (
{
closed = 1;
nodes = (
(469,1199,qs),
(364,1084,o),
(309,985,qs),
(227,838,o),
(157,546,o),
(157,410,qs),
(157,328,o),
(191,141,qs),
(213,19,o),
(340,-237,o),
(454,-372,qs),
(520,-451,o),
(607,-502,q),
(628,-454,l),
(614,-440,ls),
(589,-415,o),
(579,-406,qs),
(522,-356,o),
(483,-299,qs),
(397,-176,o),
(292,58,o),
(251,266,o),
(251,377,qs),
(251,539,o),
(301,778,o),
(387,961,o),
(478,1092,qs),
(513,1143,o),
(579,1205,qs),
(623,1245,o),
(634,1256,q),
(619,1282,o),
(608,1309,q),
(535,1271,o)
);
}
);
};
layerId = m01;
shapes = (
{
closed = 1;
nodes = (
(517,-396,o),
(517,-376,qs),
(517,-374,o),
(504,-357,o),
(490,-341,o),
(488,-339,qs),
(443,-286,o),
(355,-92,o),
(284,157,o),
(241,425,o),
(241,551,qs),
(241,717,o),
(317,1013,o),
(435,1244,o),
(494,1313,qs),
(496,1315,o),
(508,1333,o),
(519,1348,o),
(519,1350,qs),
(519,1364,o),
(486,1382,o),
(476,1382,qs),
(463,1382,o),
(433,1370,o),
(423,1360,qs),
(370,1307,o),
(251,1129,o),
(145,903,o),
(78,653,o),
(78,527,qs),
(78,427,o),
(123,206,o),
(200,-16,o),
(294,-212,o),
(390,-365,o),
(431,-406,qs),
(445,-419,o),
(464,-419,qs),
(484,-419,o)
);
}
);
width = 597;
},
{
layerId = "9613C2D5-9CC0-4B03-8E94-AFF45D3AC865";
shapes = (
{
closed = 1;
nodes = (
(564,-378,o),
(564,-341,qs),
(564,-337,o),
(541,-308,o),
(515,-276,o),
(512,-272,qs),
(474,-225,o),
(404,-45,o),
(347,182,o),
(314,421,o),
(314,529,qs),
(314,698,o),
(380,982,o),
(478,1195,o),
(527,1258,qs),
(531,1262,o),
(553,1293,o),
(572,1323,o),
(572,1327,qs),
(572,1350,o),
(513,1384,o),
(494,1384,qs),
(466,1384,o),
(412,1360,o),
(396,1344,qs),
(345,1293,o),
(231,1117,o),
(131,894,o),
(69,647,o),
(69,523,qs),
(69,425,o),
(112,206,o),
(186,-10,o),
(274,-204,o),
(366,-355,o),
(408,-396,qs),
(433,-421,o),
(468,-421,qs),
(504,-421,o)
);
}
);
width = 725;
}
);
note = parenleft;
unicode = 40;
}
{
glyphname = parenright;
kernLeft = parenright;
layers = (
{
background = {
shapes = (
{
closed = 1;
nodes = (
(-18,-500,q),
(53,-462,o),
(104,-410,qs),
(222,-290,o),
(287,-172,qs),
(372,-18,o),
(438,273,o),
(438,389,qs),
(438,481,o),
(405,669,qs),
(384,791,o),
(248,1063,o),
(143,1184,qs),
(74,1263,o),
(-7,1311,q),
(-27,1262,l),
(90,1145,o),
(102,1128,qs),
(168,1041,o),
(291,792,o),
(345,563,o),
(345,409,qs),
(345,277,o),
(296,39,o),
(249,-62,qs),
(215,-135,o),
(121,-273,qs),
(76,-340,o),
(8,-399,qs),
(-13,-418,o),
(-44,-448,q),
(-28,-475,o)
);
}
);
};
layerId = m01;
shapes = (
{
closed = 1;
nodes = (
(186,-406,qs),
(227,-365,o),
(323,-212,o),
(417,-16,o),
(494,206,o),
(539,427,o),
(539,527,qs),
(539,653,o),
(472,903,o),
(366,1129,o),
(247,1307,o),
(194,1360,qs),
(186,1370,o),
(157,1382,o),
(141,1382,qs),
(131,1382,o),
(98,1364,o),
(98,1350,qs),
(98,1348,o),
(110,1333,o),
(122,1315,o),
(123,1313,qs),
(184,1244,o),
(300,1013,o),
(376,717,o),
(376,551,qs),
(376,425,o),
(333,157,o),
(263,-92,o),
(174,-286,o),
(129,-339,q),
(129,-341,o),
(114,-357,o),
(100,-374,o),
(100,-376,qs),
(100,-396,o),
(133,-419,o),
(153,-419,qs),
(172,-419,o)
);
}
);
width = 597;
},
{
layerId = "9613C2D5-9CC0-4B03-8E94-AFF45D3AC865";
shapes = (
{
closed = 1;
nodes = (
(184,-396,qs),
(225,-355,o),
(317,-204,o),
(406,-10,o),
(480,206,o),
(523,425,o),
(523,523,qs),
(523,647,o),
(461,894,o),
(361,1117,o),
(247,1293,o),
(196,1344,qs),
(180,1360,o),
(125,1384,o),
(98,1384,qs),
(78,1384,o),
(20,1350,o),
(20,1327,qs),
(20,1323,o),
(39,1293,o),
(63,1262,o),
(65,1258,q),
(114,1195,o),
(212,982,o),
(278,698,o),
(278,529,qs),
(278,421,o),
(245,182,o),
(188,-45,o),
(118,-225,o),
(80,-272,q),
(78,-276,o),
(51,-308,o),
(27,-337,o),
(27,-341,qs),
(27,-378,o),
(88,-421,o),
(123,-421,qs),
(159,-421,o)
);
}
);
width = 725;
}
);
note = parenright;
unicode = 41;
}
{
glyphname = asterisk;
kernLeft = asterisk;
layers = (
{
background = {
shapes = (
{
closed = 1;
nodes = (
(194,709,o),
(360,818,o),
(400,838,q),
(398,793,l),
(393,560,l),
(393,533,ls),
(393,518,o),
(394,498,q),
(426,492,o),
(442,492,qs),
(471,493,l),
(471,523,o),
(466,557,qs),
(459,617,o),
(459,818,qs),
(460,846,l),
(508,826,o),
(585,771,qs),
(605,757,o),
(752,665,o),
(763,659,q),
(787,695,o),
(803,724,q),
(777,742,o),
(763,751,qs),
(753,756,o),
(713,775,q),
(610,832,ls),
(601,837,o),
(553,860,qs),
(520,876,o),
(490,895,q),
(499,901,o),
(604,955,qs),
(787,1049,o),
(805,1060,q),
(786,1095,o),
(767,1127,q),
(585,1031,o),
(495,964,qs),
(480,952,o),
(460,941,q),
(456,966,o),
(456,979,qs),
(456,987,o),
(458,1004,q),
(465,1152,ls),
(471,1252,o),
(471,1272,qs),
(471,1293,l),
(435,1294,o),
(394,1293,q),
(399,1235,o),
(399,1184,qs),
(397,1085,l),
(398,978,ls),
(398,972,o),
(397,942,q),
(344,971,o),
(105,1133,q),
(85,1101,o),
(68,1063,q),
(206,989,o),
(222,979,qs),
(305,930,o),
(311,927,qs),
(349,906,o),
(370,892,q),
(358,883,l),
(104,759,o),
(59,725,q),
(95,660,l)
);
}
);
};
layerId = m01;
shapes = (
{
closed = 1;
nodes = (
(394,756,o),
(394,772,qs),
(392,823,o),
(386,913,o),
(382,954,q),
(421,939,o),
(506,907,o),
(553,886,qs),
(564,882,o),
(602,892,o),
(602,911,qs),
(602,921,o),
(588,943,o),
(578,947,q),
(533,974,o),
(457,1011,o),
(417,1029,q),
(561,1143,l),
(578,1160,o),
(578,1176,qs),
(578,1192,o),
(555,1203,o),
(543,1203,qs),
(537,1203,o),
(525,1199,o),
(521,1195,q),
(478,1170,o),
(400,1121,o),
(366,1097,q),
(341,1278,ls),
(339,1292,o),
(321,1313,o),
(308,1313,qs),
(290,1313,o),
(274,1286,o),
(274,1270,qs),
(276,1219,o),
(282,1129,o),
(286,1088,q),
(249,1103,o),
(163,1137,o),
(116,1156,qs),
(104,1160,o),
(67,1152,o),
(67,1131,qs),
(67,1121,o),
(80,1099,o),
(90,1096,q),
(135,1070,o),
(214,1031,o),
(251,1013,q),
(108,900,l),
(90,882,o),
(90,866,qs),
(90,853,o),
(114,839,o),
(125,839,qs),
(131,839,o),
(143,843,o),
(147,847,q),
(192,874,o),
(268,921,o),
(302,945,q),
(327,764,ls),
(329,751,o),
(347,729,o),
(361,729,qs),
(378,729,o)
);
}
);
width = 875;
},
{
layerId = "9613C2D5-9CC0-4B03-8E94-AFF45D3AC865";
shapes = (
{
closed = 1;
nodes = (
(453,729,o),
(453,756,qs),
(453,794,o),
(445,884,o),
(445,898,q),
(476,888,o),
(539,864,o),
(570,854,q),
(613,847,o),
(668,876,o),
(668,913,qs),
(668,935,o),
(641,968,o),
(619,978,qs),
(588,994,o),
(510,1027,o),
(498,1035,q),
(600,1121,ls),
(629,1146,o),
(629,1182,qs),
(629,1209,o),
(594,1243,o),
(570,1243,qs),
(557,1243,o),
(531,1233,o),
(519,1225,qs),
(488,1205,o),
(419,1156,o),
(408,1150,q),
(390,1282,ls),
(388,1309,o),
(351,1348,o),
(323,1350,q),
(290,1348,o),
(259,1299,o),
(259,1270,qs),
(259,1233,o),
(261,1170,o),
(263,1135,q),
(231,1146,o),
(171,1172,o),
(139,1184,qs),
(96,1199,o),
(39,1168,o),
(39,1133,qs),
(39,1111,o),
(65,1074,o),
(84,1064,qs),
(118,1047,o),
(194,1009,o),
(204,1000,q),
(100,917,ls),
(67,894,o),
(67,854,qs),
(67,829,o),
(102,798,o),
(125,798,qs),
(139,798,o),
(163,805,o),
(174,811,qs),
(208,831,o),
(282,878,o),
(296,882,q),
(321,749,ls),
(325,719,o),
(365,682,o),
(390,682,qs),
(423,682,o)
);
}
);
width = 1003;
}
);
note = asterisk;
unicode = 42;
}
{
glyphname = plus;
layers = (
{
background = {
shapes = (
{
closed = 1;
nodes = (
(637,590,l),
(637,101,l),
(725,101,l),
(725,590,l),
(1220,590,l),
(1220,678,l),
(725,678,l),
(725,1173,l),
(637,1173,l),
(637,678,l),
(145,678,l),
(145,590,l)
);
}
);
};
layerId = m01;
shapes = (
{
closed = 1;
nodes = (
(608,-10,o),
(647,12,o),
(647,31,qs),
(647,427,ls),
(647,435,o),
(655,435,qs),
(1017,435,ls),
(1045,435,o),
(1078,488,o),
(1078,513,qs),
(1078,523,o),
(1062,533,o),
(1052,533,qs),
(651,533,ls),
(647,533,o),
(647,545,qs),
(647,919,ls),
(647,929,o),
(629,945,o),
(619,945,qs),
(613,945,o),
(568,933,o),
(529,905,o),
(529,884,qs),
(529,549,ls),
(529,541,o),
(525,533,o),
(515,533,qs),
(145,533,ls),
(127,533,o),
(108,504,o),
(98,468,o),
(98,459,qs),
(98,451,o),
(116,435,o),
(125,435,qs),
(521,435,ls),
(529,435,o),
(529,425,qs),
(529,12,ls),
(529,2,o),
(545,-16,o),
(553,-16,qs),
(562,-16,o)
);
}
);
width = 1365;
},
{
layerId = "9613C2D5-9CC0-4B03-8E94-AFF45D3AC865";
shapes = (
{
closed = 1;
nodes = (
(617,-12,o),
(655,14,o),
(655,33,qs),
(655,404,ls),
(655,429,o),
(680,429,qs),
(1058,429,ls),
(1086,429,o),
(1125,496,o),
(1125,521,qs),
(1125,537,o),
(1097,553,o),
(1080,553,qs),
(680,553,ls),
(655,553,o),
(655,580,qs),
(655,958,ls),
(655,976,o),
(639,1003,o),
(623,1003,qs),
(608,1003,o),
(562,986,o),
(531,956,o),
(531,937,qs),
(531,580,ls),
(531,566,o),
(523,553,o),
(504,553,qs),
(116,553,ls),
(96,553,o),
(71,515,o),
(59,470,o),
(59,455,qs),
(59,447,o),
(78,429,o),
(92,429,qs),
(506,429,ls),
(531,429,o),
(531,404,qs),
(531,10,ls),
(531,-4,o),
(549,-24,o),
(557,-24,qs),
(572,-24,o)
);
}
);
width = 1365;
}
);
note = plus;
unicode = 43;
}
{
glyphname = comma;
kernLeft = period;
kernRight = uniA72E;
layers = (
{
background = {
shapes = (
{
closed = 1;
nodes = (
(308,-267,o),
(388,-125,o),
(388,-64,qs),
(388,24,o),
(276,141,o),
(200,141,qs),
(157,141,o),
(117,106,qs),
(98,89,o),
(98,42,qs),
(98,23,o),
(108,2,q),
(123,-14,o),
(133,-18,qs),
(148,-24,o),
(245,-45,o),
(265,-66,qs),
(285,-87,o),
(285,-115,qs),
(285,-157,o),
(214,-264,o),
(109,-314,qs),
(97,-319,o),
(85,-325,q),
(84,-356,l),
(146,-355,o)
);
}
);
};
layerId = m01;
shapes = (
{
closed = 1;
nodes = (
(208,-241,o),
(298,-155,o),
(357,-35,o),
(357,39,qs),
(357,122,o),
(265,229,o),
(194,229,qs),
(151,229,o),
(86,178,o),
(86,139,qs),
(86,108,o),
(135,61,o),
(178,57,qs),
(212,55,o),
(255,-6,o),
(255,-29,qs),
(255,-98,o),
(196,-186,o),
(110,-233,o),
(67,-243,qs),
(53,-245,o),
(39,-259,o),
(39,-267,qs),
(39,-288,o),
(74,-288,qs),
(112,-288,o)
);
}
);
width = 448;
},
{
layerId = "9613C2D5-9CC0-4B03-8E94-AFF45D3AC865";
shapes = (
{
closed = 1;
nodes = (
(282,-278,o),
(380,-182,o),
(439,-51,o),
(439,29,qs),
(439,122,o),
(325,235,o),
(233,235,qs),
(178,235,o),
(90,161,o),
(90,108,qs),
(90,57,o),
(141,-2,o),
(172,-12,qs),
(206,-22,o),
(255,-59,o),
(255,-98,qs),
(255,-135,o),
(218,-200,o),
(145,-247,o),
(90,-263,qs),
(69,-268,o),
(43,-280,o),
(43,-296,qs),
(43,-329,o),
(96,-329,qs),
(161,-329,o)
);
}
);
width = 533;
}
);
note = comma;
unicode = 44;
}
{
glyphname = hyphen;
layers = (
{
background = {
shapes = (
{
closed = 1;
nodes = (
(76,396,qs),
(78,367,l),
(125,356,o),
(250,356,qs),
(275,356,o),
(293,357,qs),
(335,358,ls),
(345,358,o),
(393,355,qs),
(429,352,o),
(464,352,qs),
(502,352,o),
(564,357,q),
(562,436,l),
(528,445,o),
(457,445,qs),
(406,443,l),
(308,446,l),
(174,441,l),
(96,442,l),
(82,442,l),
(76,413,o)
);
}
);
};
layerId = m01;
shapes = (
{
closed = 1;
nodes = (
(351,368,o),
(439,382,qs),
(463,386,o),
(480,451,o),
(480,488,qs),
(480,494,o),
(470,500,o),
(464,500,qs),
(370,490,o),
(182,464,o),
(88,451,qs),
(74,449,o),
(57,378,o),
(57,345,qs),
(57,333,o),
(69,333,qs),
(169,343,o)
);
}
);
width = 640;
},
{
layerId = "9613C2D5-9CC0-4B03-8E94-AFF45D3AC865";
shapes = (
{
closed = 1;
nodes = (
(441,365,o),
(549,380,qs),
(572,384,o),
(588,427,o),
(588,490,qs),
(588,506,o),
(576,525,o),
(555,523,qs),
(447,515,o),
(204,484,o),
(96,466,qs),
(73,463,o),
(49,406,o),
(49,341,qs),
(49,317,o),
(71,319,qs),
(180,329,o)
);
}
);
width = 683;
}
);
note = hyphen;
unicode = 45;
}
{
glyphname = period;
kernLeft = period;
kernRight = uniA72E;
layers = (
{
background = {
shapes = (
{
closed = 1;
nodes = (
(182,-29,o),
(224,-29,qs),
(267,-29,o),
(328,35,o),
(328,82,qs),
(328,129,o),
(270,191,o),
(228,191,qs),
(185,191,o),
(120,125,o),
(120,81,qs),
(120,36,o)
);
}
);
};
layerId = m01;
shapes = (
{
closed = 1;
nodes = (
(333,37,o),
(333,80,qs),
(333,125,o),
(270,188,o),
(225,188,qs),
(182,188,o),
(118,125,o),
(118,80,qs),
(118,37,o),
(182,-27,o),
(225,-27,qs),
(270,-27,o)
);
}
);
width = 448;
},
{
layerId = "9613C2D5-9CC0-4B03-8E94-AFF45D3AC865";
shapes = (
{
closed = 1;
nodes = (
(417,33,o),
(417,102,qs),
(417,176,o),
(317,276,o),
(243,276,qs),
(174,276,o),
(74,176,o),
(74,102,qs),
(74,33,o),
(174,-67,o),
(243,-67,qs),
(317,-67,o)
);
}
);
width = 533;
}
);
note = period;
unicode = 46;
}
{
glyphname = zero;
layers = (
{
background = {
shapes = (
{
closed = 1;
nodes = (
(856,959,qs),
(796,1136,o),
(595,1304,o),
(488,1304,qs),
(412,1304,o),
(283,1232,o),
(152,1069,o),
(72,773,o),
(72,612,qs),
(72,406,o),
(204,102,o),
(381,-30,o),
(480,-30,qs),
(536,-30,o),
(644,13,o),
(692,60,qs),
(758,124,o),
(854,310,o),
(881,448,qs),
(896,528,o),
(896,631,qs),
(896,840,o)
);
},
{
closed = 1;
nodes = (
(748,413,o),
(693,120,o),
(566,12,o),
(479,12,qs),
(352,12,o),
(225,267,o),
(225,587,qs),
(225,910,o),
(266,1069,qs),
(290,1167,o),
(417,1259,o),
(488,1259,qs),
(573,1259,o),
(700,1143,o),
(728,998,qs),
(745,910,o),
(746,664,qs),
(747,595,ls)
);
}
);
};
layerId = m01;
shapes = (
{
alignment = -1;
pos = (-6,0);
ref = zero.lf;
}
);
width = 960;
},
{
layerId = "9613C2D5-9CC0-4B03-8E94-AFF45D3AC865";
shapes = (
{
ref = zero.lf;
}
);
width = 1176;
}
);
note = zero;
unicode = 48;
}
{
glyphname = one;
layers = (
{
background = {
shapes = (
{
closed = 1;
nodes = (
(727,34,o),
(717,43,qs),
(713,47,o),
(669,58,qs),
(601,72,l),
(570,83,o),
(564,90,qs),
(555,101,o),
(555,137,qs),
(555,152,o),
(557,217,o),
(557,249,qs),
(557,337,l),
(564,1228,ls),
(564,1281,o),
(551,1298,o),
(525,1298,qs),
(514,1298,o),
(494,1297,q),
(484,1291,o),
(394,1199,o),
(297,1118,qs),
(236,1068,o),
(228,1064,qs),
(175,1034,o),
(161,1021,qs),
(154,1015,o),
(154,1005,qs),
(154,997,o),
(172,980,o),
(180,980,qs),
(202,980,o),
(429,1142,q),
(427,983,o),
(427,953,qs),
(429,816,l),
(427,581,ls),
(426,321,o),
(425,287,qs),
(422,197,o),
(422,186,qs),
(422,124,ls),
(422,105,o),
(412,83,q),
(376,66,o),
(318,54,qs),
(281,47,o),
(267,34,o),
(267,17,qs),
(267,11,o),
(268,2,q),
(726,2,l),
(727,15,ls)
);
}
);
};
layerId = m01;
shapes = (
{
closed = 1;
nodes = (
(357,0,o),
(451,4,o),
(504,4,qs),
(557,4,o),
(645,0,o),
(737,-6,o),
(792,-6,qs),
(819,-6,o),
(819,16,qs),
(819,25,o),
(798,39,o),
(786,41,qs),
(706,61,o),
(615,90,o),
(578,141,o),
(578,190,qs),
(578,1092,ls),
(578,1133,o),
(582,1201,o),
(586,1231,qs),
(588,1239,o),
(572,1248,o),
(562,1248,qs),
(561,1248,o),
(555,1248,o),
(553,1246,qs),
(486,1180,o),
(347,1139,o),
(259,1125,qs),
(239,1123,o),
(210,1103,o),
(210,1090,qs),
(210,1074,o),
(241,1058,o),
(261,1056,qs),
(304,1054,o),
(378,1039,o),
(425,1000,o),
(425,962,qs),
(425,214,ls),
(425,157,o),
(380,96,o),
(284,63,o),
(210,43,qs),
(180,35,o),
(180,18,qs),
(180,10,o),
(196,-6,o),
(210,-6,qs),
(263,-6,o)
);
}
);
width = 960;
},
{
layerId = "9613C2D5-9CC0-4B03-8E94-AFF45D3AC865";
shapes = (
{
closed = 1;
nodes = (
(404,0,o),
(527,4,o),
(566,4,qs),
(606,4,o),
(733,0,o),
(864,-4,o),
(905,-4,qs),
(937,-4,o),
(937,25,qs),
(937,45,o),
(917,61,o),
(900,67,qs),
(849,82,o),
(764,112,o),
(713,157,o),
(713,192,qs),
(713,1082,ls),
(713,1137,o),
(725,1201,o),
(725,1225,qs),
(725,1235,o),
(698,1246,o),
(682,1246,qs),
(674,1246,o),
(662,1241,o),
(658,1239,qs),
(562,1190,o),
(368,1131,o),
(247,1123,qs),
(221,1121,o),
(184,1097,o),
(184,1070,qs),
(184,1047,o),
(219,1027,o),
(235,1023,qs),
(278,1015,o),
(355,992,o),
(404,941,o),
(404,892,qs),
(404,190,ls),
(404,151,o),
(361,106,o),
(286,80,o),
(235,67,qs),
(198,57,o),
(198,24,qs),
(198,10,o),
(221,-6,o),
(233,-6,qs),
(276,-6,o)
);
}
);
width = 811;
}
);
note = one;
unicode = 49;
}
{
glyphname = six;
layers = (
{
background = {
shapes = (
{
closed = 1;
nodes = (
(572,1232,qs),
(492,1188,o),
(313,1030,o),
(261,961,qs),
(184,859,o),
(100,614,o),
(100,477,qs),
(100,231,o),
(325,-28,o),
(487,-28,qs),
(572,-28,o),
(648,1,qs),
(702,22,o),
(736,55,qs),
(802,120,o),
(830,175,qs),
(849,211,o),
(870,301,q),
(875,401,l),
(863,483,o),
(861,489,qs),
(831,578,o),
(813,607,qs),
(777,663,o),
(731,700,qs),
(706,720,o),
(658,735,q),
(629,749,l),
(545,764,o),
(538,764,qs),
(527,764,o),
(453,742,o),
(427,725,q),
(441,696,o),
(454,696,q),
(462,698,ls),
(483,706,o),
(510,706,qs),
(599,706,o),
(726,547,o),
(726,381,qs),
(726,259,o),
(666,87,o),
(563,15,o),
(504,15,qs),
(391,15,o),
(240,270,o),
(240,398,q),
(243,435,ls),
(246,536,o),
(254,576,qs),
(282,716,o),
(354,889,o),
(437,999,qs),
(498,1081,o),
(541,1111,q),
(638,1194,o),
(657,1204,qs),
(739,1251,o),
(781,1262,qs),
(794,1266,o),
(800,1277,q),
(796,1295,o),
(787,1310,q),
(681,1290,o)
);
}
);
};
layerId = m01;
shapes = (
{
alignment = -1;
pos = (31,0);
ref = six.lf;
}
);
width = 960;
},
{
layerId = "9613C2D5-9CC0-4B03-8E94-AFF45D3AC865";
shapes = (
{
ref = six.lf;
}
);
width = 1041;
}
);
note = six;
unicode = 54;
}
{
glyphname = eight;
layers = (
{
background = {
shapes = (
{
closed = 1;
nodes = (
(227,554,qs),
(170,508,o),
(116,379,o),
(116,300,qs),
(116,161,o),
(321,-28,o),
(494,-28,qs),
(662,-28,o),
(879,188,o),
(879,345,qs),
(879,429,o),
(805,567,o),
(751,609,qs),
(725,630,o),
(588,703,q),
(678,749,o),
(715,780,qs),
(770,825,o),
(826,937,o),
(826,1005,qs),
(826,1127,o),
(638,1297,o),
(477,1297,qs),
(334,1297,o),
(137,1096,o),
(137,972,qs),
(137,901,o),
(204,765,o),
(254,722,qs),
(289,691,o),
(386,639,q),
(271,589,o)
);
},
{
closed = 1;
nodes = (
(500,743,qs),
(450,760,o),
(437,768,qs),
(349,825,o),
(325,847,qs),
(288,880,o),
(254,957,o),
(254,1015,qs),
(254,1114,o),
(382,1250,o),
(481,1250,qs),
(543,1250,o),
(650,1200,o),
(714,1085,o),
(714,1005,qs),
(714,902,o),
(660,821,qs),
(627,772,o),
(543,726,q),
(515,738,o)
);
},
{
closed = 1;
nodes = (
(753,407,o),
(753,282,qs),
(753,167,o),
(606,21,o),
(491,21,qs),
(365,21,o),
(287,122,qs),
(240,183,o),
(240,290,qs),
(240,392,o),
(290,508,o),
(334,550,qs),
(363,579,o),
(435,617,q),
(604,553,o)
);
}
);
};
layerId = m01;
shapes = (
{
alignment = -1;
pos = (20,0);
ref = eight.lf;
}
);
width = 960;
},
{
layerId = "9613C2D5-9CC0-4B03-8E94-AFF45D3AC865";
shapes = (
{
ref = eight.lf;
}
);
width = 1111;
}
);
note = eight;
unicode = 56;
}
{
glyphname = colon;
kernLeft = colon;
layers = (
{
background = {
shapes = (
{
closed = 1;
nodes = (
(175,568,o),
(219,568,qs),
(268,568,o),
(293,596,qs),
(331,636,o),
(331,685,qs),
(331,728,o),
(265,794,o),
(221,794,qs),
(180,794,o),
(117,730,o),
(117,692,qs),
(117,632,o)
);
},
{
closed = 1;
nodes = (
(176,-27,o),
(226,-27,qs),
(269,-27,o),
(330,37,o),
(330,84,qs),
(330,131,o),
(271,193,o),
(230,193,qs),
(187,193,o),
(122,127,o),
(122,83,qs),
(122,48,o)
);
}
);
};
layerId = m01;
shapes = (
{
alignment = -1;
pos = (20,541);
ref = period;
},
{
alignment = -1;
pos = (20,0);
ref = period;
}
);
width = 448;
},
{
layerId = "9613C2D5-9CC0-4B03-8E94-AFF45D3AC865";
shapes = (
{
pos = (20,541);
ref = period;
},
{
pos = (20,0);
ref = period;
}
);
width = 533;
}
);
note = colon;
unicode = 58;
}
{
glyphname = less;
layers = (
{
background = {
shapes = (
{
closed = 1;
nodes = (
(263,638,l),
(1218,1035,l),
(1218,1130,l),
(147,678,l),
(147,599,l),
(1218,144,l),
(1218,240,l)
);
}
);
};
layerId = m01;
shapes = (
{
closed = 1;
nodes = (
(994,-6,o),
(994,14,qs),
(994,27,o),
(974,94,o),
(947,108,qs),
(261,449,ls),
(257,451,o),
(255,457,o),
(259,459,qs),
(931,800,ls),
(960,815,o),
(992,882,o),
(992,900,qs),
(992,909,o),
(984,919,o),
(974,919,qs),
(968,919,o),
(958,913,qs),
(169,525,ls),
(139,512,o),
(104,449,o),
(104,435,qs),
(104,427,o),
(159,394,o),
(184,382,qs),
(954,-4,ls),
(964,-8,o)
);
}
);
width = 1365;
},
{
layerId = "9613C2D5-9CC0-4B03-8E94-AFF45D3AC865";
shapes = (
{
closed = 1;
nodes = (
(984,12,o),
(984,43,qs),
(984,73,o),
(945,127,o),
(911,141,qs),
(268,449,ls),
(259,453,o),
(261,466,o),
(268,468,q),
(911,778,ls),
(945,794,o),
(984,847,o),
(984,876,qs),
(984,894,o),
(970,923,o),
(951,923,qs),
(945,923,o),
(937,919,qs),
(147,533,l),
(112,519,o),
(69,447,o),
(69,431,qs),
(69,419,o),
(135,384,o),
(167,368,qs),
(937,0,ls),
(952,-8,o)
);
}
);
width = 1365;
}
);
note = less;
unicode = 60;
}
{
glyphname = equal;
layers = (
{
background = {
shapes = (
{
closed = 1;
nodes = (
(1219,825,l),
(1219,913,l),
(147,913,l),
(147,825,l)
);
},
{
closed = 1;
nodes = (
(1219,361,l),
(1219,450,l),
(147,450,l),
(147,361,l)
);
}
);
};
layerId = m01;
shapes = (
{
closed = 1;
nodes = (
(972,615,o),
(1011,672,o),
(1011,692,qs),
(1011,702,o),
(994,713,o),
(984,713,qs),
(145,713,ls),
(127,713,o),
(108,684,o),
(98,649,o),
(98,639,qs),
(98,631,o),
(116,615,o),
(125,615,qs),
(949,615,ls)
);
},
{
closed = 1;
nodes = (
(972,280,o),
(1011,331,o),
(1011,357,qs),
(1011,366,o),
(994,378,o),
(984,378,qs),
(145,378,ls),
(127,378,o),
(108,349,o),
(98,314,o),
(98,304,qs),
(98,296,o),
(116,280,o),
(125,280,qs),
(949,280,ls)
);
}
);
width = 1365;
},
{
layerId = "9613C2D5-9CC0-4B03-8E94-AFF45D3AC865";
shapes = (
{
closed = 1;
nodes = (
(1135,619,o),
(1172,678,o),
(1172,702,qs),
(1172,715,o),
(1146,733,o),
(1127,733,qs),
(143,733,ls),
(123,733,o),
(98,700,o),
(88,657,o),
(88,645,qs),
(88,637,o),
(106,619,o),
(120,619,qs),
(1109,619,ls)
);
},
{
closed = 1;
nodes = (
(1135,261,o),
(1172,319,o),
(1172,343,qs),
(1172,357,o),
(1146,374,o),
(1127,374,qs),
(143,374,ls),
(123,374,o),
(98,341,o),
(88,298,o),
(88,286,qs),
(88,278,o),
(106,261,o),
(120,261,qs),
(1109,261,ls)
);
}
);
width = 1365;
}
);
note = equal;
unicode = 61;
}
{
glyphname = greater;
layers = (
{
background = {
shapes = (
{
closed = 1;
nodes = (
(1102,636,l),
(147,240,l),
(147,144,l),
(1218,596,l),
(1218,675,l),
(147,1130,l),
(147,1034,l)
);
}
);
};
layerId = m01;
shapes = (
{
closed = 1;
nodes = (
(104,917,o),
(104,898,qs),
(104,884,o),
(123,817,o),
(151,804,qs),
(837,463,ls),
(841,461,o),
(843,455,o),
(839,453,qs),
(167,112,ls),
(137,98,o),
(106,29,o),
(106,12,qs),
(106,4,o),
(116,-8,o),
(123,-8,qs),
(131,-8,o),
(139,-2,q),
(929,386,ls),
(958,402,o),
(994,463,o),
(994,476,qs),
(994,486,o),
(939,517,o),
(913,529,qs),
(143,915,ls),
(133,919,o)
);
}
);
width = 1365;
},
{
layerId = "9613C2D5-9CC0-4B03-8E94-AFF45D3AC865";
shapes = (
{
closed = 1;
nodes = (
(69,900,o),
(69,868,qs),
(69,839,o),
(110,786,o),
(141,770,qs),
(784,463,ls),
(794,459,o),
(792,447,o),
(784,443,qs),
(141,133,ls),
(110,120,o),
(69,65,o),
(69,35,qs),
(69,18,o),
(82,-12,o),
(102,-12,qs),
(108,-12,o),
(116,-8,qs),
(905,378,l),
(941,392,o),
(984,466,o),
(984,480,qs),
(984,492,o),
(917,529,o),
(886,543,qs),
(116,911,l),
(100,921,o)
);
}
);
width = 1365;
}
);
note = greater;
unicode = 62;
}
{
glyphname = question;
kernLeft = question;
layers = (
{
background = {
shapes = (
{
closed = 1;
nodes = (
(256,449,o),
(259,457,qs),
(269,481,o),
(310,509,o),
(360,516,qs),
(468,530,o),
(493,539,qs),
(546,558,o),
(617,621,o),
(677,746,o),
(677,816,qs),
(677,900,o),
(602,1087,o),
(535,1154,qs),
(443,1249,o),
(282,1311,o),
(218,1311,qs),
(150,1311,o),
(113,1283,qs),
(89,1264,o),
(89,1227,qs),
(89,1196,o),
(131,1158,o),
(168,1158,qs),
(184,1158,o),
(239,1170,qs),
(318,1188,o),
(346,1188,qs),
(432,1188,o),
(603,1004,o),
(603,884,qs),
(603,814,o),
(534,712,o),
(461,687,qs),
(410,669,o),
(258,661,qs),
(202,658,o),
(175,640,q),
(170,627,o),
(170,620,q),
(172,606,l),
(178,544,ls),
(193,399,o),
(197,374,qs),
(200,355,o),
(200,344,qs),
(202,325,o),
(205,314,q),
(247,314,l),
(248,329,o)
);
},
{
closed = 1;
nodes = (
(192,-30,o),
(227,-30,qs),
(276,-30,o),
(333,24,o),
(333,69,qs),
(333,115,o),
(273,179,o),
(236,179,qs),
(194,179,o),
(158,144,qs),
(131,117,o),
(131,69,qs),
(131,31,o)
);
}
);
};
layerId = m01;
shapes = (
{
closed = 1;
nodes = (
(296,386,o),
(296,400,qs),
(298,447,o),
(317,529,o),
(359,555,qs),
(390,576,o),
(433,602,o),
(484,631,o),
(527,655,qs),
(557,670,o),
(610,747,o),
(610,819,qs),
(610,870,o),
(564,1003,o),
(482,1143,o),
(427,1197,qs),
(378,1246,o),
(265,1295,o),
(216,1295,qs),
(190,1295,o),
(137,1252,o),
(137,1225,qs),
(137,1199,o),
(161,1148,o),
(200,1115,o),
(219,1115,qs),
(235,1115,o),
(257,1117,o),
(267,1119,qs),
(276,1121,o),
(298,1123,o),
(312,1123,qs),
(412,1121,o),
(510,996,o),
(510,898,qs),
(510,854,o),
(431,780,o),
(390,758,qs),
(298,711,o),
(192,633,o),
(192,582,qs),
(192,515,o),
(216,443,o),
(223,412,qs),
(229,388,o),
(257,355,o),
(267,355,qs),
(282,355,o)
);
},
{
closed = 1;
nodes = (
(412,41,o),
(412,90,qs),
(412,139,o),
(343,208,o),
(294,208,qs),
(245,208,o),
(176,139,o),
(176,90,qs),
(176,41,o),
(245,-27,o),
(294,-27,qs),
(343,-27,o)
);
}
);
width = 747;
},
{
layerId = "9613C2D5-9CC0-4B03-8E94-AFF45D3AC865";
shapes = (
{
closed = 1;
nodes = (
(333,359,o),
(335,382,qs),
(343,441,o),
(374,494,o),
(417,515,qs),
(451,533,o),
(512,568,o),
(568,602,o),
(596,615,qs),
(633,633,o),
(694,727,o),
(694,807,qs),
(694,866,o),
(658,984,o),
(596,1094,o),
(551,1141,qs),
(484,1211,o),
(331,1295,o),
(247,1295,qs),
(188,1295,o),
(100,1231,o),
(100,1194,qs),
(100,1158,o),
(137,1074,o),
(194,1013,o),
(223,1013,qs),
(245,1013,o),
(278,1021,o),
(292,1027,qs),
(306,1033,o),
(353,1050,o),
(400,1050,qs),
(451,1050,o),
(537,1003,o),
(537,952,qs),
(537,898,o),
(472,829,o),
(410,802,qs),
(290,747,o),
(172,643,o),
(172,570,qs),
(172,515,o),
(204,427,o),
(221,396,qs),
(239,366,o),
(276,335,o),
(290,335,qs),
(310,335,o)
);
},
{
closed = 1;
nodes = (
(429,59,o),
(429,120,qs),
(429,180,o),
(343,267,o),
(282,267,qs),
(221,267,o),
(135,180,o),
(135,120,qs),
(135,59,o),
(221,-27,o),
(282,-27,qs),
(343,-27,o)
);
}
);
width = 853;
}
);
note = question;
unicode = 63;
}
{
glyphname = at;
layers = (
{
background = {
shapes = (
{
closed = 1;
nodes = (
(1218,826,l),
(1202,895,o),
(1113,964,o),
(1046,964,qs),
(955,964,o),
(841,881,qs),
(684,769,o),
(495,408,o),
(495,262,qs),
(495,157,o),
(605,30,o),
(676,30,qs),
(752,30,o),
(932,149,o),
(1070,315,q),
(1052,224,o),
(1052,167,qs),
(1052,103,o),
(1129,31,o),
(1205,31,qs),
(1342,31,o),
(1594,195,o),
(1757,554,o),
(1757,737,qs),
(1757,922,o),
(1583,1251,o),
(1250,1422,o),
(1043,1422,qs),
(792,1422,o),
(345,1165,o),
(97,708,o),
(97,444,qs),
(97,196,o),
(323,-217,o),
(731,-442,o),
(969,-442,qs),
(1272,-442,o),
(1746,-102,o),
(1836,172,q),
(1778,172,l),
(1662,-99,o),
(1237,-381,o),
(974,-381,qs),
(762,-381,o),
(394,-188,o),
(191,188,o),
(191,418,qs),
(191,666,o),
(422,1126,o),
(818,1371,o),
(1049,1371,qs),
(1231,1371,o),
(1532,1216,o),
(1697,926,o),
(1697,755,qs),
(1697,577,o),
(1551,249,o),
(1346,103,o),
(1272,103,qs),
(1241,103,o),
(1198,147,o),
(1198,178,qs),
(1198,215,o),
(1225,331,o),
(1291,559,qs),
(1408,958,l),
(1251,936,l)
);
},
{
closed = 1;
nodes = (
(1182,839,o),
(1182,774,qs),
(1182,671,o),
(1124,509,qs),
(1093,420,o),
(953,238,o),
(826,151,o),
(768,151,qs),
(724,151,o),
(653,230,o),
(653,292,qs),
(653,381,o),
(712,525,qs),
(791,720,o),
(903,836,qs),
(981,917,o),
(1058,917,qs),
(1109,917,o)
);
}
);
};
layerId = m01;
shapes = (
{
closed = 1;
nodes = (
(1000,-202,o),
(1146,-123,o),
(1239,-51,o),
(1239,-33,qs),
(1239,-8,o),
(1211,-8,qs),
(1203,-8,o),
(1186,-20,o),
(1176,-27,qs),
(1127,-69,o),
(986,-137,o),
(835,-178,o),
(770,-178,qs),
(653,-178,o),
(445,-94,o),
(282,57,o),
(190,257,o),
(190,374,qs),
(190,498,o),
(284,698,o),
(447,841,o),
(657,915,o),
(772,915,qs),
(909,915,o),
(1139,786,o),
(1278,568,o),
(1278,431,qs),
(1278,351,o),
(1203,229,o),
(1084,165,o),
(1015,165,qs),
(996,165,o),
(980,200,o),
(980,221,qs),
(980,235,o),
(984,261,o),
(986,274,qs),
(1027,533,ls),
(1031,557,o),
(1056,655,o),
(1070,690,q),
(1074,694,o),
(1058,702,o),
(1039,706,o),
(1035,706,qs),
(1025,706,o),
(1011,688,o),
(996,668,o),
(986,668,qs),
(980,668,o),
(962,672,o),
(941,680,qs),
(923,686,o),
(843,696,o),
(813,696,qs),
(706,696,o),
(517,600,o),
(400,425,o),
(400,306,qs),
(400,204,o),
(535,92,o),
(631,92,qs),
(694,92,o),
(788,129,o),
(849,165,o),
(858,165,qs),
(868,165,o),
(886,129,o),
(925,92,o),
(964,92,qs),
(1070,92,o),
(1254,180,o),
(1370,347,o),
(1370,461,qs),
(1370,570,o),
(1278,762,o),
(1121,909,o),
(921,994,o),
(811,994,qs),
(670,994,o),
(415,911,o),
(214,751,o),
(98,512,o),
(98,355,qs),
(98,219,o),
(202,-4,o),
(382,-169,o),
(617,-257,o),
(749,-257,qs),
(829,-257,o)
);
},
{
closed = 1;
nodes = (
(590,192,o),
(539,272,o),
(539,343,qs),
(539,439,o),
(608,570,o),
(715,637,o),
(770,637,qs),
(833,637,o),
(911,578,o),
(911,523,qs),
(911,517,o),
(911,506,o),
(909,500,qs),
(872,298,ls),
(864,253,o),
(837,214,o),
(819,202,qs),
(790,182,o),
(737,159,o),
(702,159,qs),
(664,159,o)
);
}
);
width = 1877;
},
{
layerId = "9613C2D5-9CC0-4B03-8E94-AFF45D3AC865";
shapes = (
{
closed = 1;
nodes = (
(1072,-251,o),
(1243,-165,o),
(1350,-82,o),
(1350,-57,qs),
(1350,-20,o),
(1297,-20,qs),
(1284,-20,o),
(1243,-43,o),
(1225,-55,qs),
(1172,-92,o),
(1023,-153,o),
(872,-188,o),
(811,-188,qs),
(688,-188,o),
(468,-102,o),
(300,55,o),
(204,263,o),
(204,384,qs),
(204,513,o),
(302,719,o),
(472,864,o),
(692,943,o),
(813,943,qs),
(974,943,o),
(1209,817,o),
(1339,594,o),
(1339,443,qs),
(1339,363,o),
(1266,247,o),
(1148,184,o),
(1080,184,qs),
(1060,184,o),
(1045,219,o),
(1045,241,qs),
(1045,255,o),
(1048,278,o),
(1050,290,qs),
(1097,559,ls),
(1103,590,o),
(1135,711,o),
(1152,756,q),
(1152,764,o),
(1123,774,o),
(1090,778,o),
(1084,778,qs),
(1072,778,o),
(1054,753,o),
(1037,725,o),
(1025,725,qs),
(1017,725,o),
(984,739,o),
(968,743,qs),
(945,749,o),
(862,764,o),
(825,764,qs),
(694,764,o),
(476,649,o),
(347,435,o),
(347,290,qs),
(347,167,o),
(513,33,o),
(633,33,qs),
(707,33,o),
(823,80,o),
(898,125,o),
(909,125,qs),
(921,125,o),
(951,84,o),
(1013,43,o),
(1072,43,qs),
(1174,43,o),
(1364,157,o),
(1486,353,o),
(1486,478,qs),
(1486,606,o),
(1384,819,o),
(1203,978,o),
(970,1064,o),
(841,1064,qs),
(684,1064,o),
(402,974,o),
(184,798,o),
(59,535,o),
(59,363,qs),
(59,214,o),
(176,-33,o),
(380,-212,o),
(643,-310,o),
(788,-310,qs),
(876,-310,o)
);
},
{
closed = 1;
nodes = (
(608,190,o),
(561,282,o),
(561,355,qs),
(561,455,o),
(621,596,o),
(717,670,o),
(772,670,qs),
(831,670,o),
(915,598,o),
(915,541,qs),
(915,533,o),
(915,521,o),
(913,517,q),
(870,288,ls),
(862,245,o),
(841,200,o),
(823,186,qs),
(798,167,o),
(747,147,o),
(713,147,qs),
(678,147,o)
);
}
);
width = 1899;
}
);
note = at;
unicode = 64;
}
{
glyphname = A;
kernLeft = A;
kernRight = A;
layers = (
{
background = {
shapes = (
{
closed = 1;
nodes = (
(-15,13,qs),
(-15,7,l),
(23,4,o),
(47,4,qs),
(62,4,o),
(96,6,qs),
(148,8,o),
(169,8,qs),
(190,8,o),
(239,6,qs),
(345,1,o),
(425,1,qs),
(449,1,o),
(494,2,q),
(497,12,o),
(497,17,qs),
(497,24,o),
(486,33,q),
(350,45,l),
(315,50,o),
(294,56,q),
(285,77,o),
(285,86,qs),
(285,102,o),
(341,259,q),
(429,534,ls),
(433,547,o),
(446,577,q),
(487,582,o),
(521,582,qs),
(584,581,l),
(798,583,ls),
(829,583,o),
(870,576,q),
(963,325,o),
(990,235,o),
(1008,185,qs),
(1034,110,o),
(1034,92,qs),
(1034,83,o),
(1028,65,q),
(1007,56,o),
(966,54,qs),
(861,47,ls),
(851,46,o),
(839,40,q),
(834,27,o),
(834,13,q),
(843,8,o),
(854,7,qs),
(876,7,ls),
(885,7,o),
(910,4,o),
(922,4,qs),
(1043,6,l),
(1143,3,ls),
(1272,0,o),
(1323,0,qs),
(1336,0,o),
(1368,1,q),
(1371,11,o),
(1371,16,qs),
(1371,22,o),
(1367,33,q),
(1349,42,o),
(1303,55,qs),
(1290,59,o),
(1225,75,o),
(1220,79,qs),
(1203,93,o),
(1163,180,o),
(1099,370,qs),
(1018,593,l),
(866,1004,ls),
(825,1107,o),
(807,1159,qs),
(774,1257,o),
(731,1342,q),
(696,1343,l),
(667,1341,l),
(637,1247,o),
(616,1191,qs),
(532,969,o),
(510,907,qs),
(416,644,ls),
(393,578,o),
(368,518,qs),
(360,499,o),
(329,410,qs),
(264,223,o),
(212,121,qs),
(187,74,o),
(152,55,qs),
(138,48,o),
(61,41,qs),
(44,40,o),
(37,40,qs),
(14,40,ls),
(3,40,o),
(-11,32,q),
(-15,20,o)
);
},
{
closed = 1;
nodes = (
(467,652,o),
(474,683,o),
(502,760,o),
(515,799,qs),
(543,886,o),
(607,1042,qs),
(645,1133,o),
(651,1145,q),
(661,1127,l),
(752,896,ls),
(759,878,o),
(824,704,qs),
(837,670,o),
(847,631,q),
(788,626,o),
(710,626,qs),
(573,626,o),
(466,632,q),
(460,636,l)
);
}
);
};
layerId = m01;
shapes = (
{
closed = 1;
nodes = (
(223,2,o),
(288,2,qs),
(343,2,o),
(441,-2,o),
(466,-2,qs),
(492,-2,o),
(523,8,o),
(523,20,qs),
(523,41,o),
(459,59,qs),
(412,71,o),
(345,127,o),
(345,171,qs),
(345,180,o),
(365,255,o),
(392,349,o),
(419,433,o),
(425,453,qs),
(433,474,o),
(451,488,o),
(459,488,qs),
(829,488,ls),
(856,488,o),
(878,482,o),
(882,466,qs),
(898,417,o),
(933,290,o),
(958,178,o),
(958,149,qs),
(958,118,o),
(903,71,o),
(839,61,qs),
(813,57,o),
(774,37,o),
(774,24,qs),
(774,12,o),
(805,0,o),
(831,0,qs),
(854,0,o),
(921,2,o),
(1000,2,o),
(1037,2,qs),
(1082,2,o),
(1188,-4,o),
(1282,-10,o),
(1309,-10,qs),
(1335,-10,o),
(1366,-2,o),
(1366,10,qs),
(1366,24,o),
(1335,49,o),
(1301,55,qs),
(1262,63,o),
(1194,94,o),
(1131,172,o),
(1103,251,qs),
(1080,321,o),
(1000,551,o),
(903,839,o),
(802,1148,o),
(755,1297,qs),
(751,1309,o),
(745,1333,o),
(741,1341,qs),
(739,1344,o),
(733,1344,o),
(731,1342,qs),
(725,1335,o),
(711,1288,o),
(694,1276,qs),
(676,1264,o),
(641,1252,o),
(623,1246,q),
(621,1215,o),
(606,1160,o),
(596,1133,qs),
(547,998,o),
(459,768,o),
(376,557,o),
(284,337,o),
(229,212,qs),
(198,139,o),
(112,76,o),
(61,61,qs),
(29,51,o),
(-4,29,o),
(-4,16,qs),
(-4,4,o),
(27,-10,o),
(53,-10,qs),
(102,-10,o)
);
},
{
closed = 1;
nodes = (
(470,557,o),
(470,566,qs),
(470,570,o),
(474,582,qs),
(653,1062,ls),
(664,1096,o),
(668,1096,qs),
(674,1096,o),
(686,1060,qs),
(839,582,ls),
(841,576,o),
(843,566,o),
(843,562,qs),
(843,553,o),
(815,553,qs),
(512,553,ls),
(492,553,o)
);
}
);
width = 1387;
},
{
layerId = "9613C2D5-9CC0-4B03-8E94-AFF45D3AC865";
shapes = (
{
closed = 1;
nodes = (
(208,2,o),
(265,2,qs),
(323,2,o),
(421,-4,o),
(486,-4,qs),
(508,-4,o),
(527,10,o),
(527,24,qs),
(527,57,o),
(484,67,qs),
(392,88,o),
(345,151,o),
(363,214,qs),
(370,243,o),
(386,292,o),
(402,339,o),
(419,388,o),
(427,417,qs),
(431,433,o),
(445,451,o),
(461,451,qs),
(802,451,ls),
(817,451,o),
(829,433,o),
(833,417,qs),
(843,380,o),
(862,304,o),
(884,229,o),
(894,190,qs),
(909,133,o),
(839,82,o),
(764,67,qs),
(747,63,o),
(721,41,o),
(721,24,qs),
(721,10,o),
(747,-6,o),
(762,-6,qs),
(805,-6,o),
(923,0,o),
(1037,4,o),
(1076,4,qs),
(1121,4,o),
(1241,0,o),
(1360,-4,o),
(1401,-4,qs),
(1417,-4,o),
(1438,12,o),
(1438,25,qs),
(1438,45,o),
(1413,61,o),
(1395,67,qs),
(1356,78,o),
(1293,112,o),
(1248,161,o),
(1239,192,qs),
(1195,329,o),
(1107,600,o),
(1021,868,o),
(937,1131,o),
(898,1260,qs),
(894,1276,o),
(884,1301,o),
(876,1315,qs),
(868,1331,o),
(851,1327,o),
(841,1321,q),
(827,1307,o),
(770,1266,o),
(733,1252,qs),
(692,1239,o),
(625,1221,o),
(586,1211,qs),
(580,1209,o),
(564,1133,o),
(531,1043,qs),
(492,935,o),
(412,721,o),
(329,512,o),
(243,300,o),
(196,192,qs),
(176,149,o),
(92,82,o),
(33,67,qs),
(16,61,o),
(-10,43,o),
(-10,24,qs),
(-10,4,o),
(20,-10,o),
(41,-10,qs),
(104,-10,o)
);
},
{
closed = 1;
nodes = (
(482,574,o),
(482,584,qs),
(482,592,o),
(486,600,q),
(637,1033,ls),
(645,1052,o),
(649,1052,qs),
(655,1052,o),
(660,1033,qs),
(786,600,ls),
(788,592,o),
(790,586,o),
(790,578,qs),
(790,564,o),
(760,564,qs),
(515,564,ls),
(504,564,o)
);
}
);
width = 1344;
}
);
note = A;
unicode = 65;
}
{
glyphname = B;
kernLeft = B;
kernRight = B;
layers = (
{
background = {
shapes = (
{
closed = 1;
nodes = (
(95,1232,qs),
(160,1229,o),
(245,1217,q),
(246,1192,l),
(247,991,ls),
(253,794,o),
(253,530,qs),
(253,426,ls),
(253,416,o),
(255,349,qs),
(256,326,o),
(256,311,qs),
(256,145,o),
(244,105,qs),
(238,84,o),
(205,65,o),
(80,39,qs),
(63,35,o),
(57,29,qs),
(52,24,o),
(52,12,qs),
(52,1,l),
(86,-2,o),
(121,-2,qs),
(155,-2,o),
(355,0,qs),
(506,5,l),
(655,5,ls),
(893,5,o),
(1164,238,o),
(1164,387,qs),
(1164,476,o),
(1137,531,qs),
(1100,606,o),
(962,710,o),
(854,739,q),
(859,747,l),
(1070,848,o),
(1070,996,qs),
(1070,1087,o),
(957,1236,o),
(842,1273,qs),
(763,1298,o),
(593,1298,qs),
(468,1298,o),
(410,1296,qs),
(265,1290,o),
(148,1280,qs),
(54,1275,ls),
(44,1274,o),
(27,1270,q),
(27,1239,l),
(53,1233,o)
);
},
{
closed = 1;
nodes = (
(416,892,l),
(415,964,l),
(418,1085,ls),
(418,1115,o),
(417,1145,qs),
(415,1192,o),
(415,1202,qs),
(415,1212,o),
(416,1233,q),
(489,1252,o),
(574,1252,qs),
(665,1252,o),
(752,1223,qs),
(803,1206,o),
(872,1136,o),
(899,1049,o),
(899,1007,qs),
(899,913,o),
(745,723,o),
(529,723,qs),
(474,723,o),
(424,733,q),
(423,751,l)
);
},
{
closed = 1;
nodes = (
(440,116,o),
(424,202,o),
(421,437,qs),
(421,522,l),
(422,597,l),
(421,634,ls),
(421,645,o),
(422,668,q),
(444,675,o),
(626,675,qs),
(720,675,o),
(876,616,o),
(955,525,o),
(988,405,o),
(988,364,qs),
(988,310,o),
(941,194,o),
(856,111,o),
(825,95,qs),
(758,60,o),
(659,53,q),
(533,54,o)
);
}
);
};
layerId = m01;
shapes = (
{
closed = 1;
nodes = (
(227,-4,o),
(298,0,o),
(349,0,qs),
(408,0,o),
(510,-8,o),
(535,-8,qs),
(647,-8,o),
(807,27,o),
(868,59,qs),
(909,80,o),
(1003,147,o),
(1072,272,o),
(1072,380,qs),
(1072,466,o),
(1019,578,o),
(935,647,o),
(839,690,o),
(794,704,q),
(786,707,o),
(786,721,o),
(794,723,qs),
(843,743,o),
(894,776,o),
(925,807,qs),
(947,829,o),
(992,929,o),
(992,996,qs),
(992,1156,o),
(766,1288,o),
(537,1288,qs),
(480,1288,o),
(412,1284,o),
(357,1278,o),
(319,1278,qs),
(280,1278,o),
(227,1280,o),
(169,1280,o),
(116,1280,qs),
(90,1280,o),
(59,1270,o),
(59,1258,qs),
(59,1244,o),
(90,1223,o),
(123,1219,qs),
(196,1213,o),
(255,1146,o),
(255,1076,qs),
(255,194,ls),
(255,123,o),
(176,61,o),
(102,47,qs),
(37,35,o),
(37,12,qs),
(37,0,o),
(69,-10,o),
(94,-10,qs),
(151,-10,o)
);
},
{
closed = 1;
nodes = (
(408,129,o),
(408,212,qs),
(408,602,ls),
(408,621,o),
(457,672,o),
(519,672,qs),
(608,672,o),
(717,639,o),
(743,623,qs),
(770,610,o),
(837,547,o),
(888,447,o),
(888,370,qs),
(888,286,o),
(798,151,o),
(649,73,o),
(562,73,qs),
(488,73,o)
);
},
{
closed = 1;
nodes = (
(408,749,o),
(408,800,qs),
(408,1141,ls),
(408,1186,o),
(457,1229,o),
(537,1229,qs),
(658,1229,o),
(780,1146,o),
(823,1027,o),
(823,970,qs),
(823,886,o),
(756,796,o),
(735,784,qs),
(674,751,o),
(551,727,o),
(498,727,qs),
(474,727,o)
);
}
);
width = 1259;
},
{
layerId = "9613C2D5-9CC0-4B03-8E94-AFF45D3AC865";
shapes = (
{
closed = 1;
nodes = (
(208,-4,o),
(312,0,o),
(351,0,qs),
(427,0,o),
(564,-8,o),
(639,-8,qs),
(753,-8,o),
(917,22,o),
(982,53,qs),
(1023,74,o),
(1121,141,o),
(1190,270,o),
(1190,380,qs),
(1190,466,o),
(1131,578,o),
(1033,649,o),
(921,686,o),
(868,696,qs),
(860,698,o),
(860,713,o),
(868,715,qs),
(909,725,o),
(982,762,o),
(1013,788,qs),
(1062,827,o),
(1119,937,o),
(1119,996,qs),
(1119,1156,o),
(874,1288,o),
(641,1288,qs),
(570,1288,o),
(474,1278,o),
(396,1268,o),
(349,1268,qs),
(298,1268,o),
(219,1276,o),
(133,1284,o),
(69,1284,qs),
(51,1284,o),
(29,1266,o),
(29,1252,qs),
(29,1241,o),
(47,1217,o),
(71,1211,qs),
(139,1195,o),
(188,1143,o),
(188,1080,qs),
(188,186,ls),
(188,125,o),
(135,82,o),
(71,63,qs),
(31,51,o),
(31,22,qs),
(31,10,o),
(51,-10,o),
(69,-10,qs),
(108,-10,o)
);
},
{
closed = 1;
nodes = (
(521,169,o),
(521,227,qs),
(521,564,ls),
(521,598,o),
(582,627,o),
(608,627,qs),
(660,627,o),
(733,598,o),
(747,584,qs),
(764,570,o),
(805,517,o),
(835,431,o),
(835,365,qs),
(835,292,o),
(780,174,o),
(688,106,o),
(633,106,qs),
(580,106,o)
);
},
{
closed = 1;
nodes = (
(521,755,o),
(521,790,qs),
(521,1113,ls),
(521,1154,o),
(572,1195,o),
(621,1195,qs),
(682,1195,o),
(764,1146,o),
(805,1039,o),
(805,951,qs),
(805,872,o),
(762,788,o),
(749,774,qs),
(713,743,o),
(643,721,o),
(598,721,qs),
(574,721,o)
);
}
);
width = 1387;
}
);
note = B;
unicode = 66;
}
{
glyphname = C;
kernLeft = C;
kernRight = C;
layers = (
{
background = {
shapes = (
{
closed = 1;
nodes = (
(956,1311,o),
(845,1311,qs),
(693,1311,o),
(610,1293,qs),
(492,1266,o),
(299,1136,o),
(157,940,o),
(89,749,o),
(89,621,qs),
(89,486,o),
(175,257,o),
(315,107,o),
(500,16,o),
(657,-27,o),
(815,-27,qs),
(1011,-27,o),
(1128,13,qs),
(1152,21,o),
(1168,25,q),
(1187,87,o),
(1229,256,q),
(1230,263,o),
(1231,287,q),
(1221,293,o),
(1216,293,q),
(1204,289,l),
(1172,220,o),
(1081,116,o),
(986,59,o),
(913,38,qs),
(884,29,o),
(804,19,q),
(757,18,ls),
(642,18,o),
(416,137,o),
(286,416,o),
(286,630,qs),
(286,742,o),
(341,957,o),
(435,1108,o),
(571,1217,o),
(661,1248,qs),
(712,1265,o),
(786,1265,qs),
(926,1265,o),
(1116,1139,o),
(1158,1022,q),
(1169,1020,o),
(1175,1020,qs),
(1182,1020,o),
(1196,1023,q),
(1197,1050,o),
(1197,1066,qs),
(1197,1147,o),
(1185,1224,q),
(1152,1252,o)
);
}
);
};
layerId = m01;
shapes = (
{
closed = 1;
nodes = (
(1096,-2,o),
(1168,27,qs),
(1199,37,o),
(1217,53,o),
(1231,80,qs),
(1243,110,o),
(1268,186,o),
(1284,255,o),
(1284,270,qs),
(1284,302,o),
(1231,302,o),
(1217,276,qs),
(1152,161,o),
(968,31,o),
(827,31,qs),
(706,31,o),
(508,143,o),
(365,329,o),
(288,561,o),
(288,680,qs),
(288,788,o),
(366,988,o),
(506,1146,o),
(700,1239,o),
(813,1239,qs),
(894,1239,o),
(1033,1205,o),
(1082,1172,qs),
(1133,1137,o),
(1184,1029,o),
(1203,954,qs),
(1209,933,o),
(1243,925,o),
(1272,943,o),
(1270,956,q),
(1268,1033,o),
(1256,1137,o),
(1252,1182,qs),
(1250,1209,o),
(1225,1241,o),
(1195,1248,qs),
(1129,1266,o),
(1029,1288,o),
(923,1299,o),
(847,1299,qs),
(696,1299,o),
(423,1199,o),
(212,1019,o),
(90,776,o),
(90,633,qs),
(90,484,o),
(206,239,o),
(406,65,o),
(660,-29,o),
(798,-29,qs),
(894,-29,o)
);
}
);
width = 1301;
},
{
layerId = "9613C2D5-9CC0-4B03-8E94-AFF45D3AC865";
shapes = (
{
closed = 1;
nodes = (
(1125,14,o),
(1199,47,qs),
(1217,57,o),
(1244,84,o),
(1250,106,qs),
(1264,153,o),
(1282,237,o),
(1292,310,o),
(1292,337,qs),
(1292,368,o),
(1233,372,o),
(1217,337,qs),
(1156,206,o),
(978,84,o),
(831,84,qs),
(723,84,o),
(564,169,o),
(459,325,o),
(408,543,o),
(408,674,qs),
(408,776,o),
(466,962,o),
(576,1109,o),
(733,1194,o),
(831,1194,qs),
(933,1194,o),
(1070,1139,o),
(1109,1097,qs),
(1143,1066,o),
(1176,980,o),
(1190,941,qs),
(1197,917,o),
(1235,902,o),
(1268,917,o),
(1268,941,qs),
(1268,984,o),
(1262,1107,o),
(1252,1178,qs),
(1250,1199,o),
(1225,1223,o),
(1209,1231,qs),
(1164,1250,o),
(1041,1282,o),
(909,1301,o),
(849,1301,qs),
(658,1301,o),
(361,1188,o),
(155,996,o),
(49,751,o),
(49,617,qs),
(49,472,o),
(163,235,o),
(366,65,o),
(637,-27,o),
(792,-27,qs),
(921,-27,o)
);
}
);
width = 1387;
}
);
note = C;
unicode = 67;
}
{
glyphname = D;
kernLeft = B;
kernRight = D;
layers = (
{
background = {
shapes = (
{
closed = 1;
nodes = (
(22,-1,o),
(24,-6,qs),
(26,-14,l),
(434,-7,l),
(440,-6,o),
(445,-6,qs),
(477,-6,o),
(505,-10,qs),
(576,-17,o),
(689,-17,qs),
(860,-17,o),
(926,-5,qs),
(1086,26,o),
(1242,111,o),
(1394,280,o),
(1479,510,o),
(1479,627,qs),
(1479,758,o),
(1402,967,o),
(1253,1144,o),
(1182,1185,qs),
(1068,1250,o),
(853,1298,o),
(732,1298,qs),
(672,1298,o),
(534,1290,qs),
(482,1287,o),
(454,1287,qs),
(357,1287,o),
(265,1293,q),
(220,1301,o),
(183,1301,qs),
(146,1300,l),
(75,1300,ls),
(66,1300,o),
(43,1295,q),
(45,1274,o),
(63,1259,o),
(104,1250,qs),
(203,1229,o),
(226,1204,qs),
(242,1187,o),
(242,1132,qs),
(245,807,l),
(243,678,l),
(245,608,l),
(243,513,l),
(243,355,ls),
(243,130,o),
(216,75,q),
(181,49,o),
(110,41,qs),
(61,36,o),
(24,20,q),
(22,5,ls)
);
},
{
closed = 1;
nodes = (
(411,214,o),
(411,714,qs),
(412,941,ls),
(412,1011,o),
(409,1127,qs),
(408,1145,o),
(408,1158,qs),
(408,1179,o),
(414,1204,q),
(420,1212,o),
(426,1218,q),
(476,1241,o),
(580,1241,qs),
(731,1241,o),
(991,1162,o),
(1182,992,o),
(1220,899,qs),
(1275,765,o),
(1275,635,qs),
(1275,499,o),
(1247,414,qs),
(1227,356,o),
(1131,211,o),
(982,96,o),
(788,33,o),
(687,33,qs),
(609,33,o),
(533,59,q),
(448,101,o)
);
}
);
};
layerId = m01;
shapes = (
{
closed = 1;
nodes = (
(1115,92,o),
(1303,282,o),
(1409,529,o),
(1409,670,qs),
(1409,800,o),
(1325,1025,o),
(1148,1195,o),
(866,1292,o),
(666,1292,qs),
(647,1292,o),
(562,1288,o),
(459,1280,o),
(363,1276,o),
(331,1276,qs),
(284,1276,o),
(225,1278,o),
(165,1280,o),
(114,1280,qs),
(88,1280,o),
(57,1268,o),
(57,1254,qs),
(57,1239,o),
(88,1225,o),
(122,1219,qs),
(196,1205,o),
(253,1146,o),
(253,1076,qs),
(253,194,ls),
(253,123,o),
(196,61,o),
(122,47,qs),
(88,41,o),
(57,31,o),
(57,16,qs),
(57,2,o),
(88,-10,o),
(114,-10,qs),
(167,-10,o),
(227,-4,o),
(280,0,o),
(319,0,qs),
(398,0,o),
(572,-6,o),
(707,-14,o),
(727,-14,qs),
(868,-14,o)
);
},
{
closed = 1;
nodes = (
(496,80,o),
(410,159,o),
(410,237,qs),
(410,1111,ls),
(410,1170,o),
(472,1221,o),
(592,1231,o),
(676,1231,qs),
(776,1231,o),
(972,1150,o),
(1129,1000,o),
(1223,778,o),
(1223,637,qs),
(1223,466,o),
(1092,204,o),
(856,55,o),
(704,55,qs),
(631,55,o)
);
}
);
width = 1579;
},
{
layerId = "9613C2D5-9CC0-4B03-8E94-AFF45D3AC865";
shapes = (
{
closed = 1;
nodes = (
(1190,98,o),
(1368,286,o),
(1458,527,o),
(1458,657,qs),
(1458,798,o),
(1348,1031,o),
(1156,1199,o),
(909,1292,o),
(772,1292,qs),
(733,1292,o),
(615,1286,o),
(492,1280,o),
(388,1274,o),
(359,1274,qs),
(319,1274,o),
(216,1280,o),
(108,1284,o),
(65,1284,qs),
(53,1284,o),
(29,1268,o),
(29,1254,qs),
(29,1237,o),
(49,1215,o),
(67,1211,qs),
(145,1194,o),
(196,1143,o),
(196,1080,qs),
(196,190,ls),
(196,129,o),
(141,82,o),
(67,67,qs),
(49,63,o),
(29,41,o),
(29,24,qs),
(29,10,o),
(53,-6,o),
(65,-6,qs),
(108,-6,o),
(216,-2,o),
(319,0,o),
(359,0,qs),
(384,0,o),
(513,-6,o),
(676,-14,o),
(755,-14,qs),
(927,-14,o)
);
},
{
closed = 1;
nodes = (
(570,127,o),
(529,202,o),
(529,263,qs),
(529,1113,ls),
(529,1145,o),
(568,1170,o),
(645,1178,o),
(704,1178,qs),
(804,1178,o),
(952,1094,o),
(1050,941,o),
(1099,729,o),
(1099,600,qs),
(1099,447,o),
(1019,219,o),
(853,94,o),
(723,94,qs),
(657,94,o)
);
}
);
width = 1600;
}
);
note = D;
unicode = 68;
}
{
glyphname = E;
kernLeft = B;
kernRight = AE;
layers = (
{
background = {
shapes = (
{
closed = 1;
nodes = (
(49,-4,o),
(60,-14,o),
(75,-14,qs),
(160,-14,o),
(340,-6,qs),
(360,-5,o),
(383,-5,qs),
(505,-5,l),
(805,-1,l),
(931,-2,l),
(1212,1,l),
(1234,1,l),
(1250,23,o),
(1250,56,qs),
(1252,129,o),
(1263,199,qs),
(1267,230,o),
(1296,329,q),
(1285,337,o),
(1276,337,qs),
(1257,337,o),
(1238,296,qs),
(1175,157,o),
(1092,73,o),
(964,40,o),
(771,40,qs),
(691,40,o),
(582,43,o),
(574,43,qs),
(513,42,ls),
(456,42,o),
(439,64,qs),
(427,80,o),
(426,182,qs),
(425,295,l),
(426,411,l),
(425,595,l),
(426,628,l),
(469,634,o),
(608,634,qs),
(673,634,ls),
(746,634,o),
(820,637,o),
(834,637,qs),
(898,637,o),
(955,586,o),
(981,485,qs),
(996,426,o),
(1012,398,q),
(1019,398,ls),
(1024,398,o),
(1032,402,q),
(1035,417,o),
(1035,426,qs),
(1035,431,o),
(1024,559,o),
(1024,611,qs),
(1024,806,o),
(1029,843,qs),
(1031,859,o),
(1031,866,qs),
(1031,873,o),
(1029,881,q),
(1018,886,o),
(1005,886,q),
(979,876,o),
(964,724,o),
(949,706,qs),
(940,694,o),
(887,685,q),
(717,685,o),
(609,681,qs),
(600,680,o),
(588,680,qs),
(570,680,o),
(518,682,qs),
(485,683,o),
(468,683,qs),
(451,683,ls),
(438,683,o),
(427,686,q),
(427,825,ls),
(422,1053,o),
(422,1065,qs),
(422,1182,o),
(439,1206,qs),
(450,1220,o),
(505,1220,qs),
(530,1220,l),
(815,1226,ls),
(836,1226,o),
(858,1225,qs),
(940,1223,o),
(949,1223,qs),
(993,1223,o),
(1021,1207,o),
(1046,1165,qs),
(1083,1102,o),
(1120,1006,o),
(1131,987,q),
(1140,984,o),
(1151,984,q),
(1156,986,o),
(1157,992,q),
(1150,1064,o),
(1150,1168,qs),
(1150,1175,o),
(1159,1233,o),
(1159,1247,q),
(1157,1256,o),
(1152,1264,q),
(1142,1269,l),
(1059,1266,l),
(1042,1269,l),
(900,1268,l),
(809,1272,o),
(786,1272,qs),
(760,1272,o),
(612,1266,o),
(480,1266,qs),
(304,1270,l),
(230,1268,ls),
(167,1268,o),
(108,1273,qs),
(88,1274,o),
(74,1274,qs),
(67,1274,o),
(58,1269,q),
(53,1258,o),
(53,1250,qs),
(53,1239,o),
(66,1232,q),
(95,1227,o),
(133,1226,qs),
(222,1223,o),
(240,1204,qs),
(252,1191,o),
(253,1089,qs),
(258,804,l),
(257,553,l),
(259,433,l),
(258,179,l),
(259,109,ls),
(259,73,o),
(245,53,q),
(222,41,o),
(125,35,qs),
(84,32,o),
(67,27,qs),
(60,25,o),
(50,16,q),
(49,6,ls)
);
}
);
};
layerId = m01;
shapes = (
{
closed = 1;
nodes = (
(249,-4,o),
(312,2,o),
(355,2,qs),
(429,2,o),
(568,-2,o),
(713,-6,o),
(874,-10,o),
(968,-10,qs),
(980,-10,o),
(990,10,o),
(996,24,qs),
(1007,51,o),
(1037,145,o),
(1056,233,o),
(1056,251,qs),
(1056,263,o),
(1045,276,o),
(1035,278,qs),
(1025,280,o),
(1009,265,o),
(1003,253,qs),
(972,194,o),
(923,123,o),
(892,102,qs),
(860,82,o),
(776,69,o),
(713,69,qs),
(568,69,ls),
(502,69,o),
(439,125,o),
(439,200,qs),
(439,576,ls),
(439,610,o),
(472,627,o),
(506,627,qs),
(688,627,ls),
(727,627,o),
(766,584,o),
(778,539,qs),
(794,476,o),
(823,476,qs),
(835,476,o),
(841,496,o),
(841,510,qs),
(841,517,o),
(839,576,o),
(837,641,o),
(837,660,qs),
(837,676,o),
(841,735,o),
(843,790,o),
(843,798,qs),
(843,813,o),
(825,829,o),
(817,829,qs),
(794,829,o),
(782,786,qs),
(768,731,o),
(725,690,o),
(668,690,qs),
(474,690,ls),
(461,690,o),
(439,715,o),
(439,733,qs),
(439,1148,ls),
(439,1176,o),
(494,1211,o),
(510,1211,qs),
(766,1211,ls),
(804,1211,o),
(870,1190,o),
(898,1158,qs),
(911,1145,o),
(931,1084,o),
(941,1050,qs),
(945,1041,o),
(952,1031,o),
(962,1031,qs),
(972,1031,o),
(990,1043,o),
(990,1060,qs),
(990,1099,o),
(970,1207,o),
(960,1262,qs),
(958,1272,o),
(935,1280,o),
(925,1280,qs),
(917,1280,o),
(825,1278,o),
(758,1276,qs),
(698,1276,o),
(555,1274,o),
(490,1274,qs),
(421,1274,o),
(321,1276,o),
(218,1280,o),
(143,1280,qs),
(118,1280,o),
(86,1270,o),
(86,1258,qs),
(86,1244,o),
(118,1225,o),
(151,1219,qs),
(225,1205,o),
(282,1146,o),
(282,1076,qs),
(282,194,ls),
(282,123,o),
(212,61,o),
(137,47,qs),
(73,35,o),
(73,12,qs),
(73,0,o),
(104,-10,o),
(129,-10,qs),
(182,-10,o)
);
}
);
width = 1344;
},
{
layerId = "9613C2D5-9CC0-4B03-8E94-AFF45D3AC865";
shapes = (
{
closed = 1;
nodes = (
(210,-4,o),
(312,0,o),
(351,0,qs),
(439,0,o),
(653,-2,o),
(851,-6,o),
(984,-8,o),
(994,-8,qs),
(1009,-8,o),
(1037,2,o),
(1041,16,qs),
(1054,65,o),
(1084,157,o),
(1103,239,o),
(1103,274,qs),
(1103,288,o),
(1096,314,o),
(1084,314,qs),
(1072,314,o),
(1054,306,o),
(1047,290,qs),
(1025,247,o),
(968,161,o),
(935,133,qs),
(907,110,o),
(831,88,o),
(792,88,qs),
(617,88,ls),
(568,88,o),
(521,133,o),
(521,188,qs),
(521,559,ls),
(521,580,o),
(543,604,o),
(564,604,qs),
(749,604,ls),
(786,604,o),
(831,537,o),
(849,474,qs),
(862,427,o),
(896,427,qs),
(905,427,o),
(919,453,o),
(915,482,qs),
(913,512,o),
(909,566,o),
(907,619,o),
(907,645,qs),
(907,672,o),
(909,725,o),
(915,780,o),
(917,807,qs),
(919,829,o),
(903,853,o),
(894,853,qs),
(868,853,o),
(853,817,qs),
(835,770,o),
(790,696,o),
(739,696,qs),
(572,696,ls),
(549,696,o),
(521,717,o),
(521,743,qs),
(521,1103,ls),
(521,1146,o),
(584,1194,o),
(633,1194,qs),
(756,1194,ls),
(811,1194,o),
(878,1152,o),
(900,1131,qs),
(921,1109,o),
(954,1037,o),
(976,984,qs),
(984,966,o),
(1007,951,o),
(1017,951,qs),
(1027,951,o),
(1043,970,o),
(1043,990,qs),
(1043,1043,o),
(1017,1182,o),
(1009,1254,qs),
(1007,1278,o),
(974,1295,o),
(958,1295,qs),
(951,1295,o),
(870,1280,o),
(807,1280,qs),
(711,1278,o),
(461,1274,o),
(351,1274,qs),
(312,1274,o),
(214,1280,o),
(112,1284,o),
(69,1284,qs),
(51,1284,o),
(29,1266,o),
(29,1252,qs),
(29,1241,o),
(47,1217,o),
(71,1211,qs),
(139,1195,o),
(188,1143,o),
(188,1080,qs),
(188,186,ls),
(188,125,o),
(135,82,o),
(71,63,qs),
(31,51,o),
(31,22,qs),
(31,10,o),
(51,-10,o),
(69,-10,qs),
(108,-10,o)
);
}
);
width = 1451;
}
);
note = E;
unicode = 69;
}
{
glyphname = F;
kernLeft = B;
kernRight = F;
layers = (
{
background = {
shapes = (
{
closed = 1;
nodes = (
(155,-20,o),
(214,-11,qs),
(300,3,o),
(377,3,qs),
(522,3,o),
(604,-14,q),
(614,-11,o),
(622,1,o),
(622,8,qs),
(622,24,o),
(594,37,qs),
(545,58,o),
(434,69,o),
(413,86,q),
(405,107,o),
(405,121,qs),
(407,452,ls),
(406,540,o),
(406,552,qs),
(406,621,ls),
(406,626,o),
(410,638,q),
(423,646,o),
(453,646,qs),
(463,646,ls),
(475,646,o),
(535,649,qs),
(560,650,o),
(626,650,qs),
(838,650,o),
(864,644,qs),
(879,641,o),
(891,621,qs),
(925,564,o),
(941,464,q),
(952,462,l),
(961,462,o),
(978,469,q),
(966,837,ls),
(965,884,o),
(961,907,q),
(950,912,o),
(945,912,qs),
(939,912,o),
(927,906,q),
(914,823,l),
(894,751,o),
(889,744,qs),
(874,722,o),
(844,711,qs),
(799,695,o),
(684,695,qs),
(493,695,l),
(437,692,l),
(408,694,l),
(402,730,o),
(402,770,qs),
(405,1042,ls),
(405,1104,o),
(402,1155,qs),
(402,1170,ls),
(402,1204,o),
(423,1213,qs),
(454,1227,o),
(502,1227,qs),
(580,1226,ls),
(593,1226,o),
(709,1233,o),
(776,1233,qs),
(918,1233,o),
(978,1210,qs),
(1008,1198,o),
(1021,1166,qs),
(1048,1098,o),
(1052,1055,qs),
(1054,1024,o),
(1062,1013,qs),
(1067,1007,o),
(1076,1007,qs),
(1089,1007,o),
(1105,1014,q),
(1107,1031,o),
(1107,1042,qs),
(1098,1221,l),
(1099,1261,l),
(1098,1268,o),
(1092,1284,q),
(1078,1294,o),
(1060,1294,qs),
(1017,1293,l),
(990,1293,l),
(686,1281,l),
(399,1276,l),
(260,1276,ls),
(195,1274,o),
(181,1274,qs),
(153,1274,ls),
(107,1276,o),
(92,1276,qs),
(78,1276,o),
(65,1268,q),
(62,1260,o),
(62,1255,qs),
(62,1246,o),
(84,1230,o),
(206,1205,o),
(235,1175,o),
(235,1135,qs),
(232,1006,l),
(246,228,ls),
(246,113,o),
(237,69,q),
(224,55,o),
(185,38,o),
(82,21,o),
(60,10,q),
(59,-15,l),
(79,-20,l)
);
}
);
};
layerId = m01;
shapes = (
{
closed = 1;
nodes = (
(243,-2,o),
(316,4,o),
(363,4,qs),
(400,4,o),
(445,-2,o),
(502,-10,o),
(555,-10,qs),
(580,-10,o),
(611,0,o),
(611,12,qs),
(611,25,o),
(580,41,o),
(547,47,qs),
(474,61,o),
(421,135,o),
(417,198,qs),
(414,296,o),
(412,482,o),
(412,572,qs),
(412,598,o),
(439,619,o),
(459,621,qs),
(490,625,o),
(553,625,o),
(586,625,qs),
(610,625,o),
(658,623,o),
(684,623,qs),
(707,623,o),
(762,590,o),
(776,545,qs),
(780,535,o),
(802,500,o),
(821,500,qs),
(833,500,o),
(839,519,o),
(839,533,qs),
(837,576,o),
(833,637,o),
(833,666,qs),
(833,690,o),
(837,741,o),
(839,774,qs),
(841,788,o),
(821,805,o),
(813,805,qs),
(805,805,o),
(782,780,o),
(778,772,qs),
(764,739,o),
(702,692,o),
(658,692,qs),
(623,692,o),
(494,686,o),
(431,686,qs),
(417,686,o),
(412,713,o),
(412,729,qs),
(410,764,o),
(410,866,o),
(410,915,qs),
(410,966,o),
(410,1074,o),
(412,1111,qs),
(414,1150,o),
(433,1209,o),
(478,1209,qs),
(727,1209,ls),
(764,1209,o),
(831,1188,o),
(858,1156,qs),
(872,1143,o),
(896,1094,o),
(903,1060,q),
(907,1050,o),
(923,1037,o),
(933,1037,qs),
(951,1037,o),
(951,1078,qs),
(951,1092,o),
(949,1170,o),
(945,1254,o),
(941,1276,qs),
(939,1286,o),
(915,1293,o),
(905,1293,qs),
(870,1293,o),
(774,1274,o),
(711,1274,qs),
(651,1274,o),
(521,1274,o),
(464,1274,qs),
(398,1274,o),
(300,1276,o),
(200,1280,o),
(127,1280,qs),
(102,1280,o),
(71,1270,o),
(71,1258,qs),
(71,1244,o),
(102,1225,o),
(135,1219,qs),
(210,1205,o),
(255,1111,o),
(255,1023,qs),
(255,196,ls),
(255,123,o),
(198,61,o),
(123,47,qs),
(59,35,o),
(59,12,qs),
(59,0,o),
(90,-10,o),
(116,-10,qs),
(169,-10,o)
);
}
);
width = 1152;
},
{
layerId = "9613C2D5-9CC0-4B03-8E94-AFF45D3AC865";
shapes = (
{
closed = 1;
nodes = (
(216,0,o),
(319,4,o),
(359,4,qs),
(398,4,o),
(521,0,o),
(647,-4,o),
(688,-4,qs),
(704,-4,o),
(719,12,o),
(719,25,qs),
(719,45,o),
(700,63,o),
(682,67,qs),
(598,84,o),
(529,131,o),
(529,192,qs),
(529,280,o),
(525,472,o),
(525,561,qs),
(525,582,o),
(547,606,o),
(568,606,qs),
(596,606,o),
(655,606,o),
(682,606,qs),
(704,606,o),
(751,606,o),
(772,606,qs),
(809,606,o),
(854,562,o),
(872,502,qs),
(878,482,o),
(905,455,o),
(919,455,qs),
(929,455,o),
(943,480,o),
(939,510,qs),
(935,555,o),
(931,606,o),
(931,645,qs),
(931,674,o),
(937,751,o),
(941,794,qs),
(943,815,o),
(927,839,o),
(917,839,qs),
(905,839,o),
(884,821,o),
(876,804,qs),
(858,760,o),
(813,698,o),
(762,698,qs),
(717,698,o),
(625,698,o),
(580,698,qs),
(557,698,o),
(529,719,o),
(529,745,qs),
(529,790,o),
(529,892,o),
(529,935,qs),
(529,968,o),
(529,1060,o),
(529,1094,qs),
(529,1137,o),
(592,1184,o),
(641,1184,qs),
(764,1184,ls),
(815,1184,o),
(884,1158,o),
(909,1133,qs),
(937,1105,o),
(970,1021,o),
(984,970,qs),
(988,952,o),
(1015,937,o),
(1025,937,qs),
(1050,937,o),
(1050,976,qs),
(1050,1011,o),
(1048,1103,o),
(1045,1205,o),
(1041,1254,qs),
(1039,1278,o),
(1005,1295,o),
(990,1295,qs),
(947,1295,o),
(807,1274,o),
(723,1274,qs),
(635,1274,o),
(441,1274,o),
(359,1274,qs),
(319,1274,o),
(221,1280,o),
(120,1284,o),
(76,1284,qs),
(59,1284,o),
(37,1266,o),
(37,1252,qs),
(37,1241,o),
(55,1217,o),
(78,1211,qs),
(147,1195,o),
(196,1143,o),
(196,1080,qs),
(196,190,ls),
(196,129,o),
(141,82,o),
(67,67,qs),
(29,57,o),
(29,24,qs),
(29,10,o),
(53,-6,o),
(65,-6,qs),
(108,-6,o)
);
}
);
width = 1259;
}
);
note = F;
unicode = 70;
}
{
glyphname = G;
kernLeft = C;
kernRight = G;
layers = (
{
anchors = (
{
name = top;
pos = (790,1323);
}
);
background = {
shapes = (
{
closed = 1;
nodes = (
(1052,1312,o),
(880,1312,qs),
(631,1312,o),
(486,1238,qs),
(280,1133,o),
(95,798,o),
(95,623,qs),
(95,483,o),
(154,348,qs),
(193,256,o),
(376,76,o),
(629,-25,o),
(827,-25,qs),
(950,-25,o),
(1082,-2,qs),
(1153,10,o),
(1240,45,qs),
(1301,69,o),
(1339,104,o),
(1345,126,qs),
(1356,163,o),
(1356,298,qs),
(1355,429,ls),
(1355,493,o),
(1365,504,qs),
(1385,527,o),
(1418,527,qs),
(1483,526,ls),
(1506,526,o),
(1548,535,q),
(1553,552,o),
(1553,563,qs),
(1553,569,o),
(1549,574,o),
(1542,575,qs),
(1504,577,o),
(1477,577,qs),
(1384,576,l),
(1281,580,ls),
(1193,582,o),
(1154,582,qs),
(980,582,o),
(928,574,q),
(921,566,o),
(921,561,q),
(936,536,l),
(946,534,o),
(952,533,q),
(979,534,l),
(1019,531,ls),
(1141,522,o),
(1187,465,o),
(1187,292,qs),
(1187,188,o),
(1160,116,o),
(1086,59,o),
(940,25,o),
(880,25,qs),
(787,25,o),
(740,36,qs),
(657,57,o),
(597,98,qs),
(505,160,o),
(370,329,o),
(296,525,o),
(296,648,qs),
(296,861,o),
(498,1163,o),
(640,1224,qs),
(738,1267,o),
(914,1267,qs),
(1058,1267,o),
(1257,1115,o),
(1324,963,q),
(1352,968,l),
(1352,993,o),
(1346,1062,qs),
(1335,1214,l),
(1271,1252,o)
);
}
);
};
layerId = m01;
shapes = (
{
closed = 1;
nodes = (
(1019,10,o),
(1141,61,o),
(1221,102,o),
(1235,104,qs),
(1256,108,o),
(1262,133,o),
(1262,141,qs),
(1262,149,o),
(1243,165,o),
(1237,174,qs),
(1233,184,o),
(1225,196,o),
(1225,206,qs),
(1225,259,ls),
(1225,296,o),
(1229,363,o),
(1235,406,qs),
(1241,445,o),
(1274,490,o),
(1317,502,qs),
(1325,504,o),
(1358,523,o),
(1358,537,qs),
(1358,557,o),
(1325,568,o),
(1317,568,qs),
(1264,568,o),
(1194,561,o),
(1143,561,qs),
(1090,561,o),
(1015,564,o),
(945,568,o),
(896,568,qs),
(888,568,o),
(856,551,o),
(856,535,qs),
(856,521,o),
(888,502,o),
(896,502,qs),
(915,502,o),
(994,490,o),
(1072,463,o),
(1088,441,qs),
(1094,433,o),
(1097,404,o),
(1097,382,qs),
(1097,365,o),
(1096,325,o),
(1094,286,o),
(1094,268,qs),
(1094,218,o),
(1056,139,o),
(1035,118,qs),
(1017,100,o),
(909,45,o),
(796,45,qs),
(698,45,o),
(513,123,o),
(368,276,o),
(282,496,o),
(282,635,qs),
(282,751,o),
(355,962,o),
(490,1129,o),
(678,1225,o),
(792,1225,qs),
(886,1225,o),
(1015,1186,o),
(1092,1137,o),
(1103,1121,qs),
(1127,1094,o),
(1152,1048,o),
(1164,1017,qs),
(1170,1000,o),
(1190,964,o),
(1209,964,qs),
(1221,964,o),
(1239,990,o),
(1239,1003,qs),
(1239,1043,o),
(1227,1154,o),
(1219,1211,qs),
(1217,1221,o),
(1211,1231,o),
(1201,1235,qs),
(1182,1244,o),
(1082,1266,o),
(958,1286,o),
(843,1299,o),
(809,1299,qs),
(662,1299,o),
(402,1194,o),
(202,1005,o),
(88,755,o),
(88,610,qs),
(88,474,o),
(198,241,o),
(388,69,o),
(633,-27,o),
(768,-27,qs),
(862,-27,o)
);
}
);
width = 1579;
},
{
layerId = "9613C2D5-9CC0-4B03-8E94-AFF45D3AC865";
shapes = (
{
closed = 1;
nodes = (
(998,8,o),
(1115,55,o),
(1192,92,o),
(1207,94,qs),
(1229,98,o),
(1248,123,o),
(1248,137,qs),
(1248,149,o),
(1239,171,o),
(1229,180,qs),
(1219,190,o),
(1201,210,o),
(1201,219,qs),
(1201,286,ls),
(1201,325,o),
(1207,390,o),
(1215,433,qs),
(1223,472,o),
(1264,513,o),
(1323,529,qs),
(1341,533,o),
(1360,551,o),
(1360,570,qs),
(1360,586,o),
(1344,600,o),
(1329,600,qs),
(1268,600,o),
(1129,592,o),
(1072,592,qs),
(1033,592,o),
(919,598,o),
(804,602,o),
(760,602,qs),
(745,602,o),
(717,586,o),
(717,572,qs),
(717,555,o),
(749,531,o),
(766,527,qs),
(784,523,o),
(821,513,o),
(858,500,o),
(878,492,qs),
(907,480,o),
(929,443,o),
(929,421,qs),
(929,404,o),
(927,335,o),
(927,267,o),
(925,249,qs),
(923,208,o),
(902,141,o),
(882,127,qs),
(862,114,o),
(805,84,o),
(770,84,qs),
(674,84,o),
(537,169,o),
(449,325,o),
(408,543,o),
(408,674,qs),
(408,776,o),
(461,962,o),
(566,1109,o),
(725,1194,o),
(829,1194,qs),
(890,1194,o),
(976,1168,o),
(1039,1127,o),
(1064,1101,qs),
(1097,1068,o),
(1148,980,o),
(1166,941,qs),
(1176,923,o),
(1197,902,o),
(1221,902,qs),
(1237,902,o),
(1254,921,o),
(1254,941,qs),
(1254,984,o),
(1241,1107,o),
(1231,1178,qs),
(1229,1199,o),
(1205,1223,o),
(1188,1231,qs),
(1152,1244,o),
(1052,1270,o),
(941,1290,o),
(835,1301,o),
(794,1301,qs),
(621,1301,o),
(345,1188,o),
(151,996,o),
(49,751,o),
(49,617,qs),
(49,472,o),
(155,235,o),
(345,65,o),
(594,-27,o),
(737,-27,qs),
(837,-27,o)
);
}
);
width = 1493;
}
);
note = G;
unicode = 71;
}
{
glyphname = H;
kernLeft = B;
kernRight = H;
layers = (
{
background = {
shapes = (
{
closed = 1;
nodes = (
(85,-14,qs),
(226,-8,o),
(290,-8,qs),
(328,-8,o),
(377,-12,qs),
(453,-18,o),
(504,-19,qs),
(536,-20,o),
(558,-21,o),
(566,-21,qs),
(577,-21,o),
(583,-16,qs),
(587,-13,o),
(587,-8,q),
(581,2,l),
(557,11,o),
(511,21,qs),
(442,36,o),
(433,42,qs),
(420,50,o),
(415,71,qs),
(405,116,o),
(405,253,qs),
(405,276,o),
(406,311,qs),
(411,483,o),
(411,500,qs),
(410,570,ls),
(410,594,o),
(427,612,o),
(450,612,qs),
(455,612,o),
(501,613,qs),
(525,614,o),
(560,614,qs),
(625,614,o),
(778,609,o),
(802,609,qs),
(826,609,o),
(874,612,qs),
(1113,625,o),
(1140,616,qs),
(1148,613,o),
(1151,599,q),
(1154,436,o),
(1154,351,qs),
(1154,345,o),
(1151,280,q),
(1152,136,ls),
(1152,101,o),
(1133,83,qs),
(1104,56,o),
(1054,51,qs),
(987,44,o),
(956,26,q),
(954,14,o),
(954,7,qs),
(954,1,o),
(956,-12,q),
(1081,7,o),
(1160,13,o),
(1254,13,qs),
(1374,13,o),
(1483,-7,qs),
(1491,-9,o),
(1496,-9,qs),
(1501,-8,l),
(1504,4,l),
(1504,17,o),
(1481,36,o),
(1421,51,qs),
(1340,69,l),
(1326,75,o),
(1320,89,qs),
(1308,118,o),
(1308,186,qs),
(1309,321,ls),
(1306,425,o),
(1306,474,qs),
(1308,638,l),
(1307,812,l),
(1309,905,l),
(1308,977,l),
(1308,1092,ls),
(1308,1103,o),
(1307,1139,qs),
(1306,1151,o),
(1306,1161,qs),
(1306,1204,o),
(1325,1218,q),
(1348,1227,o),
(1382,1229,qs),
(1435,1233,o),
(1473,1248,q),
(1477,1264,o),
(1478,1284,q),
(1341,1274,o),
(1282,1274,qs),
(1190,1274,o),
(1099,1279,qs),
(1033,1283,ls),
(1024,1283,o),
(990,1278,q),
(990,1259,o),
(995,1244,q),
(1010,1241,o),
(1027,1239,qs),
(1125,1226,o),
(1131,1223,qs),
(1141,1217,o),
(1145,1200,qs),
(1152,1172,o),
(1152,1015,qs),
(1152,852,o),
(1146,678,q),
(1136,675,o),
(1089,674,qs),
(835,666,l),
(738,669,l),
(591,667,ls),
(585,667,o),
(551,669,qs),
(426,675,o),
(421,679,q),
(417,773,ls),
(412,945,o),
(412,1107,qs),
(412,1195,o),
(459,1238,o),
(590,1249,q),
(601,1251,o),
(610,1262,o),
(610,1272,qs),
(610,1280,o),
(608,1289,q),
(497,1286,o),
(442,1282,qs),
(330,1274,o),
(230,1274,qs),
(136,1275,ls),
(123,1275,o),
(99,1273,q),
(98,1262,o),
(98,1254,qs),
(98,1247,o),
(103,1236,q),
(121,1233,o),
(168,1229,qs),
(229,1224,o),
(251,1212,o),
(259,1184,o),
(259,1098,qs),
(259,1069,o),
(253,918,o),
(253,853,qs),
(253,580,ls),
(253,575,o),
(247,422,o),
(247,371,qs),
(249,289,l),
(248,219,l),
(250,143,ls),
(250,109,o),
(236,76,qs),
(228,59,o),
(190,40,o),
(119,31,qs),
(74,26,o),
(40,7,q),
(39,-15,l),
(58,-15,o)
);
}
);
};
layerId = m01;
shapes = (
{
closed = 1;
nodes = (
(247,-4,o),
(304,0,o),
(345,0,qs),
(390,0,o),
(453,-4,o),
(521,-10,o),
(574,-10,qs),
(600,-10,o),
(631,4,o),
(631,16,qs),
(631,29,o),
(602,41,o),
(568,47,qs),
(502,59,o),
(412,147,o),
(412,208,qs),
(412,580,ls),
(412,602,o),
(421,602,qs),
(1170,602,ls),
(1180,602,o),
(1180,582,o),
(1180,572,qs),
(1180,190,ls),
(1180,127,o),
(1107,59,o),
(1045,47,qs),
(1011,41,o),
(982,29,o),
(982,16,qs),
(982,4,o),
(1013,-10,o),
(1039,-10,qs),
(1092,-10,o),
(1154,-4,o),
(1207,0,o),
(1248,0,qs),
(1290,0,o),
(1341,-4,o),
(1399,-10,o),
(1452,-10,qs),
(1478,-10,o),
(1509,4,o),
(1509,16,qs),
(1509,35,o),
(1446,47,qs),
(1374,61,o),
(1337,123,o),
(1337,196,qs),
(1337,1082,ls),
(1337,1139,o),
(1368,1205,o),
(1440,1219,qs),
(1505,1231,o),
(1505,1254,qs),
(1505,1266,o),
(1476,1280,o),
(1448,1280,qs),
(1395,1280,o),
(1344,1276,o),
(1305,1274,o),
(1270,1274,qs),
(1227,1274,o),
(1164,1276,o),
(1096,1280,o),
(1043,1280,qs),
(986,1280,o),
(986,1254,qs),
(986,1241,o),
(1017,1225,o),
(1050,1219,qs),
(1125,1205,o),
(1180,1135,o),
(1180,1082,qs),
(1180,700,ls),
(1180,676,o),
(1166,676,qs),
(439,676,ls),
(431,676,o),
(412,682,o),
(412,694,qs),
(412,1080,ls),
(412,1137,o),
(472,1205,o),
(545,1219,qs),
(578,1225,o),
(610,1241,o),
(610,1254,qs),
(610,1280,o),
(553,1280,qs),
(500,1280,o),
(439,1276,o),
(386,1274,o),
(345,1274,qs),
(306,1274,o),
(255,1276,o),
(196,1280,o),
(143,1280,qs),
(114,1280,o),
(86,1266,o),
(86,1254,qs),
(86,1231,o),
(151,1219,qs),
(225,1205,o),
(255,1148,o),
(255,1080,qs),
(255,194,ls),
(255,123,o),
(210,61,o),
(135,47,qs),
(73,35,o),
(73,16,qs),
(73,4,o),
(104,-10,o),
(129,-10,qs),
(182,-10,o)
);
}
);
width = 1557;
},
{
layerId = "9613C2D5-9CC0-4B03-8E94-AFF45D3AC865";
shapes = (
{
closed = 1;
nodes = (
(204,0,o),
(308,4,o),
(347,4,qs),
(386,4,o),
(496,0,o),
(610,-4,o),
(651,-4,qs),
(666,-4,o),
(682,12,o),
(682,25,qs),
(682,45,o),
(662,61,o),
(645,67,qs),
(568,88,o),
(517,137,o),
(517,192,qs),
(517,557,ls),
(517,590,o),
(549,590,qs),
(1021,590,ls),
(1037,590,o),
(1048,572,o),
(1048,557,qs),
(1048,192,ls),
(1048,137,o),
(998,88,o),
(921,67,qs),
(903,61,o),
(884,45,o),
(884,25,qs),
(884,12,o),
(902,-4,o),
(915,-4,qs),
(956,-4,o),
(1070,0,o),
(1182,4,o),
(1219,4,qs),
(1258,4,o),
(1362,0,o),
(1464,-6,o),
(1501,-6,qs),
(1513,-6,o),
(1536,10,o),
(1536,24,qs),
(1536,57,o),
(1499,67,qs),
(1433,82,o),
(1382,129,o),
(1382,190,qs),
(1382,1080,ls),
(1382,1143,o),
(1431,1194,o),
(1499,1211,qs),
(1536,1221,o),
(1536,1254,qs),
(1536,1268,o),
(1513,1284,o),
(1501,1284,qs),
(1458,1284,o),
(1356,1280,o),
(1258,1274,o),
(1219,1274,qs),
(1182,1274,o),
(1070,1278,o),
(956,1282,o),
(915,1282,qs),
(884,1282,o),
(884,1252,qs),
(884,1233,o),
(903,1217,o),
(921,1211,qs),
(1001,1188,o),
(1048,1137,o),
(1048,1078,qs),
(1048,731,ls),
(1048,702,o),
(1021,702,qs),
(549,702,ls),
(535,702,o),
(517,715,o),
(517,731,qs),
(517,1078,ls),
(517,1137,o),
(564,1188,o),
(645,1211,qs),
(662,1217,o),
(682,1233,o),
(682,1252,qs),
(682,1282,o),
(651,1282,qs),
(610,1282,o),
(496,1278,o),
(386,1274,o),
(347,1274,qs),
(308,1274,o),
(210,1280,o),
(108,1284,o),
(65,1284,qs),
(53,1284,o),
(29,1268,o),
(29,1254,qs),
(29,1221,o),
(67,1211,qs),
(135,1194,o),
(184,1143,o),
(184,1080,qs),
(184,190,ls),
(184,129,o),
(133,82,o),
(67,67,qs),
(29,57,o),
(29,24,qs),
(29,10,o),
(53,-6,o),
(65,-6,qs),
(102,-6,o)
);
}
);
width = 1771;
}
);
note = H;
unicode = 72;
}
{
glyphname = I;
kernLeft = B;
kernRight = H;
layers = (
{
background = {
shapes = (
{
closed = 1;
nodes = (
(64,2,l),
(299,1,l),
(437,3,l),
(501,0,o),
(526,0,qs),
(569,0,o),
(660,3,q),
(660,11,ls),
(660,20,o),
(657,33,q),
(642,47,o),
(586,49,qs),
(560,50,o),
(514,61,qs),
(483,69,o),
(456,96,o),
(445,158,o),
(445,270,qs),
(445,300,o),
(447,383,qs),
(447,559,l),
(443,1004,l),
(448,1133,ls),
(450,1182,o),
(460,1200,qs),
(466,1212,o),
(479,1217,qs),
(500,1227,o),
(595,1238,qs),
(642,1244,o),
(662,1249,q),
(664,1263,o),
(664,1279,q),
(494,1273,o),
(392,1273,qs),
(127,1279,l),
(43,1279,l),
(44,1254,o),
(52,1248,qs),
(63,1240,o),
(228,1227,o),
(265,1208,q),
(272,1195,o),
(276,1181,q),
(282,1111,o),
(282,1048,qs),
(282,1024,o),
(281,1006,qs),
(279,954,l),
(281,913,l),
(281,821,l),
(282,743,l),
(280,672,l),
(284,551,l),
(284,441,l),
(285,336,ls),
(285,106,o),
(241,53,o),
(88,43,qs),
(65,41,o),
(43,32,q),
(45,2,l)
);
}
);
};
layerId = m01;
shapes = (
{
closed = 1;
nodes = (
(223,-4,o),
(296,0,o),
(345,0,qs),
(390,0,o),
(453,-4,o),
(521,-10,o),
(574,-10,qs),
(600,-10,o),
(631,0,o),
(631,12,qs),
(631,25,o),
(600,41,o),
(566,47,qs),
(494,61,o),
(412,123,o),
(412,192,qs),
(412,1078,ls),
(412,1146,o),
(478,1205,o),
(551,1219,qs),
(584,1225,o),
(615,1244,o),
(615,1258,qs),
(615,1270,o),
(584,1280,o),
(559,1280,qs),
(506,1280,o),
(443,1276,o),
(388,1274,o),
(345,1274,qs),
(300,1274,o),
(237,1276,o),
(169,1280,o),
(116,1280,qs),
(90,1280,o),
(59,1270,o),
(59,1258,qs),
(59,1231,o),
(123,1219,qs),
(198,1205,o),
(255,1146,o),
(255,1078,qs),
(255,192,ls),
(255,123,o),
(176,61,o),
(102,47,qs),
(37,35,o),
(37,12,qs),
(37,0,o),
(69,-10,o),
(94,-10,qs),
(147,-10,o)
);
}
);
width = 725;
},
{
layerId = "9613C2D5-9CC0-4B03-8E94-AFF45D3AC865";
shapes = (
{
closed = 1;
nodes = (
(216,0,o),
(319,4,o),
(359,4,qs),
(398,4,o),
(508,0,o),
(621,-4,o),
(662,-4,qs),
(678,-4,o),
(694,12,o),
(694,25,qs),
(694,45,o),
(674,61,o),
(657,67,qs),
(580,88,o),
(529,137,o),
(529,192,qs),
(529,1078,ls),
(529,1137,o),
(576,1188,o),
(657,1211,qs),
(674,1217,o),
(694,1233,o),
(694,1252,qs),
(694,1268,o),
(678,1282,o),
(662,1282,qs),
(621,1282,o),
(508,1278,o),
(398,1274,o),
(359,1274,qs),
(319,1274,o),
(216,1280,o),
(108,1284,o),
(65,1284,qs),
(53,1284,o),
(29,1268,o),
(29,1254,qs),
(29,1221,o),
(67,1211,qs),
(145,1194,o),
(196,1143,o),
(196,1080,qs),
(196,190,ls),
(196,129,o),
(141,82,o),
(67,67,qs),
(29,57,o),
(29,24,qs),
(29,10,o),
(53,-6,o),
(65,-6,qs),
(108,-6,o)
);
}
);
width = 811;
}
);
note = I;
unicode = 73;
}
{
glyphname = J;
kernLeft = J;
kernRight = IJ;
layers = (
{
background = {
shapes = (
{
closed = 1;
nodes = (
(-173,-432,qs),
(-173,-467,o),
(-147,-488,qs),
(-109,-518,o),
(-46,-518,qs),
(72,-518,o),
(214,-440,o),
(360,-227,o),
(388,-97,qs),
(426,82,o),
(426,182,qs),
(426,298,l),
(428,477,l),
(416,755,ls),
(416,763,o),
(417,774,qs),
(419,812,o),
(419,821,qs),
(419,829,o),
(417,869,qs),
(416,896,o),
(416,931,qs),
(416,971,ls),
(416,1022,o),
(414,1040,qs),
(413,1065,l),
(417,1169,ls),
(417,1195,o),
(424,1204,qs),
(435,1218,o),
(481,1234,o),
(567,1238,q),
(569,1251,o),
(569,1274,q),
(533,1277,o),
(502,1277,qs),
(355,1277,ls),
(341,1277,o),
(306,1275,qs),
(260,1274,o),
(232,1274,qs),
(173,1274,o),
(111,1277,qs),
(79,1279,o),
(57,1279,q),
(56,1267,ls),
(56,1259,o),
(60,1244,q),
(73,1237,o),
(108,1237,q),
(182,1232,ls),
(211,1231,o),
(242,1215,o),
(248,1205,qs),
(258,1186,o),
(257,1160,qs),
(256,967,l),
(262,593,ls),
(270,366,o),
(270,257,qs),
(268,150,l),
(269,-6,ls),
(269,-120,o),
(240,-280,o),
(209,-344,qs),
(186,-390,o),
(110,-442,o),
(72,-442,qs),
(46,-442,o),
(22,-422,qs),
(17,-417,ls),
(12,-413,o),
(2,-404,qs),
(-57,-351,o),
(-103,-351,qs),
(-118,-351,o),
(-137,-364,qs),
(-173,-390,o)
);
}
);
};
layerId = m01;
shapes = (
{
closed = 1;
nodes = (
(218,-333,o),
(257,-286,qs),
(288,-249,o),
(361,-135,o),
(412,10,o),
(412,92,qs),
(412,1080,ls),
(412,1148,o),
(451,1205,o),
(523,1219,qs),
(557,1225,o),
(588,1244,o),
(588,1258,qs),
(588,1270,o),
(557,1280,o),
(531,1280,qs),
(478,1280,o),
(425,1276,o),
(384,1274,o),
(347,1274,qs),
(302,1274,o),
(239,1276,o),
(171,1280,o),
(118,1280,qs),
(92,1280,o),
(61,1270,o),
(61,1258,qs),
(61,1231,o),
(125,1219,qs),
(196,1205,o),
(255,1148,o),
(255,1080,qs),
(255,-2,ls),
(255,-145,o),
(194,-312,o),
(125,-312,qs),
(100,-312,o),
(59,-284,o),
(33,-253,qs),
(14,-225,o),
(-33,-204,o),
(-59,-204,qs),
(-80,-204,o),
(-135,-263,o),
(-135,-296,qs),
(-135,-392,o),
(67,-392,qs),
(123,-392,o)
);
}
);
width = 683;
},
{
layerId = "9613C2D5-9CC0-4B03-8E94-AFF45D3AC865";
shapes = (
{
closed = 1;
nodes = (
(351,-274,o),
(414,-190,qs),
(461,-127,o),
(533,12,o),
(572,139,o),
(572,184,qs),
(572,1078,ls),
(572,1137,o),
(619,1188,o),
(700,1211,qs),
(717,1217,o),
(737,1233,o),
(737,1252,qs),
(737,1268,o),
(721,1282,o),
(706,1282,qs),
(664,1282,o),
(551,1278,o),
(441,1274,o),
(402,1274,qs),
(363,1274,o),
(259,1280,o),
(151,1284,o),
(108,1284,qs),
(96,1284,o),
(73,1268,o),
(73,1254,qs),
(73,1221,o),
(110,1211,qs),
(188,1194,o),
(239,1143,o),
(239,1080,qs),
(239,18,ls),
(239,-161,o),
(174,-310,o),
(118,-310,qs),
(96,-310,o),
(59,-249,o),
(20,-202,qs),
(0,-180,o),
(-39,-157,o),
(-61,-157,qs),
(-96,-157,o),
(-167,-233,o),
(-167,-274,qs),
(-167,-392,o),
(122,-392,qs),
(198,-392,o)
);
}
);
width = 768;
}
);
note = J;
unicode = 74;
}
{
glyphname = K;
kernLeft = B;
kernRight = K;
layers = (
{
background = {
shapes = (
{
closed = 1;
nodes = (
(698,442,qs),
(881,288,l),
(1000,193,l),
(1058,142,o),
(1104,97,o),
(1108,93,qs),
(1131,72,o),
(1141,56,q),
(1126,54,o),
(1113,54,qs),
(1053,52,o),
(999,38,qs),
(960,28,o),
(947,16,q),
(946,8,ls),
(946,1,o),
(949,-13,q),
(1134,-1,o),
(1278,-1,qs),
(1314,-1,o),
(1369,-5,qs),
(1462,-12,o),
(1508,-12,qs),
(1520,-12,o),
(1554,-10,q),
(1556,4,l),
(1555,15,l),
(1541,29,o),
(1509,33,qs),
(1378,48,o),
(1230,190,qs),
(1129,286,o),
(772,571,o),
(667,669,qs),
(643,692,o),
(637,697,qs),
(629,704,o),
(625,711,q),
(781,837,l),
(1039,1054,ls),
(1094,1101,o),
(1161,1142,qs),
(1250,1196,o),
(1279,1208,qs),
(1330,1228,o),
(1438,1241,q),
(1442,1256,o),
(1442,1280,q),
(1418,1282,o),
(1406,1282,qs),
(1393,1282,o),
(1369,1280,qs),
(1213,1272,ls),
(1202,1271,o),
(1178,1271,qs),
(1079,1271,o),
(1023,1282,o),
(985,1282,qs),
(961,1282,o),
(948,1273,qs),
(941,1267,o),
(941,1256,qs),
(941,1246,o),
(960,1233,o),
(1060,1227,o),
(1106,1215,o),
(1124,1202,q),
(1119,1189,o),
(1110,1177,qs),
(1064,1123,o),
(951,1029,qs),
(677,805,l),
(540,703,o),
(484,669,qs),
(456,652,o),
(444,641,q),
(607,520,o)
);
},
{
closed = 1;
nodes = (
(84,-18,o),
(98,-18,qs),
(193,-18,o),
(303,-4,o),
(334,-4,qs),
(371,-4,o),
(523,-18,o),
(543,-18,qs),
(575,-17,l),
(587,-8,o),
(587,2,qs),
(587,11,o),
(581,24,q),
(564,29,o),
(546,31,qs),
(474,38,o),
(439,59,qs),
(428,66,o),
(418,91,o),
(417,213,qs),
(410,470,l),
(413,729,l),
(415,1105,l),
(414,1124,ls),
(414,1180,o),
(435,1200,qs),
(466,1229,o),
(553,1238,qs),
(586,1242,o),
(598,1248,q),
(600,1255,o),
(600,1261,qs),
(600,1269,o),
(589,1275,q),
(544,1275,o),
(511,1278,q),
(435,1272,o),
(381,1269,qs),
(343,1268,o),
(277,1268,qs),
(135,1268,o),
(79,1265,q),
(75,1255,o),
(75,1250,qs),
(75,1236,o),
(89,1226,q),
(157,1222,o),
(200,1215,qs),
(212,1213,o),
(230,1202,q),
(241,1181,o),
(243,1161,qs),
(249,1108,o),
(249,950,qs),
(247,763,l),
(253,485,l),
(251,404,l),
(251,218,l),
(252,120,ls),
(252,78,o),
(232,60,q),
(174,33,o),
(73,24,qs),
(63,23,o),
(58,13,q),
(60,-17,l)
);
}
);
};
layerId = m01;
shapes = (
{
closed = 1;
nodes = (
(245,-2,o),
(317,4,o),
(365,4,qs),
(402,4,o),
(447,-2,o),
(504,-10,o),
(557,-10,qs),
(582,-10,o),
(613,0,o),
(613,12,qs),
(613,25,o),
(582,41,o),
(549,47,qs),
(500,57,o),
(447,104,o),
(425,174,o),
(423,216,qs),
(419,333,o),
(414,500,o),
(414,592,qs),
(414,602,o),
(414,633,o),
(421,633,qs),
(429,633,o),
(455,611,o),
(466,600,qs),
(882,141,ls),
(894,127,o),
(911,104,o),
(911,92,qs),
(911,67,o),
(856,53,qs),
(804,41,o),
(804,20,qs),
(804,8,o),
(835,-2,o),
(860,-2,qs),
(927,-2,o),
(982,0,o),
(1019,0,qs),
(1074,0,o),
(1152,-4,o),
(1235,-10,o),
(1292,-10,qs),
(1317,-10,o),
(1348,0,o),
(1348,12,qs),
(1348,25,o),
(1317,39,o),
(1284,47,qs),
(1229,59,o),
(1164,88,o),
(1111,139,o),
(1068,186,qs),
(594,692,ls),
(572,715,o),
(584,727,qs),
(653,804,o),
(770,923,o),
(890,1035,o),
(960,1094,qs),
(1029,1150,o),
(1186,1209,o),
(1258,1223,qs),
(1292,1229,o),
(1323,1248,o),
(1323,1262,qs),
(1323,1272,o),
(1299,1284,o),
(1280,1284,qs),
(1268,1284,o),
(1156,1280,o),
(1019,1276,o),
(962,1276,qs),
(856,1276,ls),
(831,1276,o),
(800,1266,o),
(800,1254,qs),
(800,1241,o),
(827,1225,o),
(860,1215,qs),
(898,1205,o),
(898,1170,qs),
(898,1156,o),
(884,1127,o),
(868,1111,qs),
(476,711,ls),
(466,700,o),
(433,676,o),
(423,676,qs),
(415,676,o),
(414,706,o),
(414,713,qs),
(414,1080,ls),
(414,1137,o),
(447,1205,o),
(519,1219,qs),
(553,1225,o),
(584,1244,o),
(584,1258,qs),
(584,1270,o),
(553,1280,o),
(527,1280,qs),
(474,1280,o),
(419,1278,o),
(374,1276,o),
(337,1276,qs),
(294,1276,o),
(235,1278,o),
(171,1280,o),
(118,1280,qs),
(92,1280,o),
(61,1270,o),
(61,1258,qs),
(61,1231,o),
(125,1219,qs),
(200,1205,o),
(257,1148,o),
(257,1080,qs),
(257,198,ls),
(257,125,o),
(200,61,o),
(125,47,qs),
(61,35,o),
(61,12,qs),
(61,0,o),
(92,-10,o),
(118,-10,qs),
(171,-10,o)
);
}
);
width = 1515;
},
{
layerId = "9613C2D5-9CC0-4B03-8E94-AFF45D3AC865";
shapes = (
{
closed = 1;
nodes = (
(245,-2,o),
(319,8,o),
(359,8,qs),
(398,8,o),
(478,0,o),
(576,-8,o),
(639,-8,qs),
(658,-8,o),
(694,12,o),
(694,25,qs),
(694,45,o),
(662,61,o),
(645,67,qs),
(594,82,o),
(549,112,o),
(535,157,o),
(533,192,qs),
(529,280,o),
(527,455,o),
(527,543,qs),
(527,559,o),
(541,574,o),
(549,574,qs),
(559,574,o),
(582,559,o),
(596,543,qs),
(894,190,ls),
(909,171,o),
(927,139,o),
(927,123,qs),
(923,82,o),
(841,67,qs),
(804,57,o),
(804,24,qs),
(804,10,o),
(827,-6,o),
(839,-6,qs),
(907,-6,o),
(1031,4,o),
(1103,4,qs),
(1166,4,o),
(1290,-2,o),
(1411,-10,o),
(1470,-10,qs),
(1509,-10,o),
(1550,12,o),
(1550,25,qs),
(1550,45,o),
(1507,61,o),
(1489,67,qs),
(1438,82,o),
(1368,120,o),
(1315,167,o),
(1292,192,qs),
(823,721,ls),
(792,756,o),
(823,784,qs),
(882,837,o),
(990,947,o),
(1097,1048,o),
(1154,1092,qs),
(1209,1133,o),
(1352,1197,o),
(1456,1211,qs),
(1474,1215,o),
(1515,1233,o),
(1515,1252,qs),
(1515,1268,o),
(1482,1282,o),
(1462,1282,qs),
(1382,1282,o),
(1250,1278,o),
(1127,1276,o),
(1058,1276,qs),
(917,1276,ls),
(905,1276,o),
(882,1260,o),
(882,1246,qs),
(882,1229,o),
(902,1207,o),
(919,1203,qs),
(1009,1184,o),
(1009,1141,qs),
(1009,1127,o),
(988,1097,o),
(972,1080,qs),
(598,672,l),
(582,658,o),
(561,643,o),
(551,643,qs),
(543,643,o),
(529,657,o),
(529,672,qs),
(529,1078,ls),
(529,1137,o),
(576,1188,o),
(657,1211,qs),
(674,1217,o),
(694,1233,o),
(694,1252,qs),
(694,1268,o),
(678,1282,o),
(662,1282,qs),
(621,1282,o),
(508,1278,o),
(398,1274,o),
(359,1274,qs),
(319,1274,o),
(216,1280,o),
(108,1284,o),
(65,1284,qs),
(53,1284,o),
(29,1268,o),
(29,1254,qs),
(29,1221,o),
(67,1211,qs),
(145,1194,o),
(196,1143,o),
(196,1080,qs),
(196,190,ls),
(196,129,o),
(153,82,o),
(78,67,qs),
(29,57,o),
(29,24,qs),
(29,10,o),
(67,-12,o),
(84,-12,qs),
(153,-12,o)
);
}
);
width = 1387;
}
);
note = K;
unicode = 75;
}
{
glyphname = L;
kernLeft = B;
kernRight = L;
layers = (
{
background = {
shapes = (
{
closed = 1;
nodes = (
(146,-6,o),
(174,-4,qs),
(264,5,o),
(746,5,q),
(1120,-6,l),
(1122,11,o),
(1124,31,qs),
(1135,125,o),
(1164,266,qs),
(1171,298,o),
(1177,334,q),
(1144,334,l),
(1112,256,o),
(1093,230,qs),
(1081,214,o),
(1076,206,qs),
(1053,168,o),
(1012,132,qs),
(944,76,o),
(886,53,o),
(818,51,qs),
(645,45,l),
(577,45,ls),
(455,46,o),
(430,47,q),
(420,54,o),
(420,84,qs),
(419,146,l),
(422,428,l),
(420,759,l),
(420,822,l),
(419,1007,l),
(419,1067,ls),
(421,1116,o),
(421,1132,qs),
(421,1199,o),
(444,1212,qs),
(458,1220,o),
(644,1227,o),
(655,1229,q),
(661,1250,o),
(662,1268,q),
(629,1271,o),
(548,1271,q),
(468,1265,ls),
(459,1264,o),
(400,1264,q),
(376,1266,o),
(371,1266,qs),
(345,1265,l),
(257,1267,l),
(105,1272,ls),
(62,1274,o),
(43,1274,q),
(42,1264,o),
(42,1258,qs),
(42,1253,o),
(43,1242,q),
(182,1217,o),
(217,1209,o),
(243,1197,q),
(250,1179,o),
(251,1169,qs),
(254,1117,o),
(253,906,qs),
(253,844,l),
(252,610,l),
(253,431,l),
(246,167,ls),
(244,84,o),
(234,71,qs),
(220,53,o),
(171,49,qs),
(97,42,o),
(19,21,q),
(12,9,o),
(11,-6,q),
(115,-6,ls)
);
}
);
};
layerId = m01;
shapes = (
{
closed = 1;
nodes = (
(200,-4,o),
(323,0,o),
(372,0,qs),
(447,0,o),
(600,-4,o),
(766,-6,o),
(947,-10,o),
(1045,-10,qs),
(1060,-10,o),
(1070,10,o),
(1072,24,qs),
(1076,65,o),
(1090,139,o),
(1111,221,o),
(1125,272,q),
(1125,274,o),
(1127,280,o),
(1127,282,qs),
(1127,294,o),
(1115,317,o),
(1103,317,qs),
(1090,317,o),
(1064,270,o),
(1060,259,q),
(1035,206,o),
(998,153,o),
(958,120,qs),
(939,102,o),
(858,69,o),
(805,69,qs),
(562,69,ls),
(466,69,o),
(412,127,o),
(412,188,qs),
(412,1111,ls),
(412,1168,o),
(513,1205,o),
(586,1219,qs),
(619,1225,o),
(651,1244,o),
(651,1258,qs),
(651,1270,o),
(619,1280,o),
(594,1280,qs),
(541,1280,o),
(466,1276,o),
(396,1274,o),
(347,1274,qs),
(304,1274,o),
(245,1276,o),
(180,1280,o),
(127,1280,qs),
(102,1280,o),
(71,1270,o),
(71,1258,qs),
(71,1231,o),
(135,1219,qs),
(184,1211,o),
(235,1190,o),
(255,1145,o),
(255,1097,qs),
(255,188,ls),
(255,123,o),
(172,63,o),
(96,47,qs),
(90,45,o),
(53,31,o),
(53,14,qs),
(53,4,o),
(82,-10,o),
(108,-10,q),
(108,-10,o)
);
}
);
width = 1173;
},
{
layerId = "9613C2D5-9CC0-4B03-8E94-AFF45D3AC865";
shapes = (
{
closed = 1;
nodes = (
(218,-4,o),
(319,0,o),
(359,0,qs),
(447,0,o),
(660,-4,o),
(860,-6,o),
(1011,-10,o),
(1039,-10,qs),
(1056,-10,o),
(1070,14,o),
(1072,27,qs),
(1078,76,o),
(1092,153,o),
(1115,237,o),
(1131,296,q),
(1131,306,o),
(1139,337,o),
(1139,341,qs),
(1139,355,o),
(1127,382,o),
(1111,382,qs),
(1099,382,o),
(1078,365,o),
(1056,319,qs),
(1037,276,o),
(984,192,o),
(951,161,qs),
(923,135,o),
(856,106,o),
(815,106,qs),
(625,106,ls),
(576,106,o),
(529,151,o),
(529,206,qs),
(529,1078,ls),
(529,1137,o),
(576,1188,o),
(657,1211,qs),
(674,1217,o),
(694,1233,o),
(694,1252,qs),
(694,1268,o),
(678,1282,o),
(662,1282,qs),
(621,1282,o),
(508,1278,o),
(398,1274,o),
(359,1274,qs),
(319,1274,o),
(216,1280,o),
(108,1284,o),
(65,1284,qs),
(53,1284,o),
(29,1268,o),
(29,1254,qs),
(29,1221,o),
(67,1211,qs),
(120,1199,o),
(174,1170,o),
(196,1123,o),
(196,1080,qs),
(196,186,ls),
(196,125,o),
(143,82,o),
(78,63,qs),
(59,57,o),
(39,33,o),
(39,22,qs),
(39,10,o),
(59,-10,o),
(76,-10,qs),
(116,-10,o)
);
}
);
width = 1301;
}
);
note = L;
unicode = 76;
}
{
glyphname = M;
kernLeft = M;
kernRight = M;
layers = (
{
background = {
shapes = (
{
closed = 1;
nodes = (
(90,-3,o),
(130,0,qs),
(202,5,o),
(236,5,qs),
(547,-6,l),
(552,6,o),
(552,11,qs),
(552,18,o),
(545,33,q),
(509,39,o),
(469,39,qs),
(365,41,o),
(315,74,o),
(311,108,qs),
(297,227,o),
(297,322,qs),
(297,625,o),
(310,877,qs),
(320,1084,o),
(328,1127,q),
(391,1016,o),
(704,322,o),
(817,-8,q),
(840,-9,l),
(849,14,o),
(863,54,qs),
(895,141,o),
(940,254,qs),
(1009,418,l),
(1062,553,l),
(1210,903,l),
(1212,909,l),
(1227,947,ls),
(1277,1064,o),
(1294,1099,q),
(1302,1016,o),
(1302,855,qs),
(1302,652,o),
(1295,472,o),
(1295,439,qs),
(1298,237,ls),
(1298,120,o),
(1289,82,q),
(1260,63,o),
(1197,46,q),
(1140,41,o),
(1107,27,q),
(1104,17,o),
(1104,8,qs),
(1104,-5,l),
(1112,-9,o),
(1119,-9,qs),
(1130,-9,o),
(1171,-6,qs),
(1238,-2,o),
(1443,-2,qs),
(1448,-2,o),
(1586,-9,o),
(1645,-9,qs),
(1691,-9,l),
(1692,2,o),
(1692,11,qs),
(1692,19,o),
(1685,24,q),
(1563,43,o),
(1509,61,qs),
(1476,73,o),
(1462,100,o),
(1462,174,qs),
(1461,300,l),
(1462,496,ls),
(1454,850,o),
(1454,1000,qs),
(1455,1048,l),
(1454,1094,l),
(1459,1172,o),
(1472,1200,o),
(1520,1218,o),
(1609,1223,qs),
(1654,1225,o),
(1686,1242,q),
(1689,1254,o),
(1689,1261,qs),
(1689,1266,o),
(1687,1277,q),
(1637,1275,o),
(1559,1275,qs),
(1433,1275,o),
(1377,1278,qs),
(1352,1280,o),
(1336,1280,qs),
(1322,1280,o),
(1303,1273,q),
(1293,1250,o),
(1236,1090,qs),
(1222,1050,o),
(1199,994,qs),
(1142,855,o),
(1126,813,o),
(1117,796,qs),
(1110,783,o),
(1105,767,qs),
(1028,553,o),
(889,278,q),
(772,541,l),
(489,1167,l),
(447,1261,l),
(442,1270,o),
(432,1280,q),
(411,1285,o),
(395,1285,qs),
(389,1285,o),
(341,1282,qs),
(273,1278,o),
(245,1278,qs),
(159,1278,o),
(110,1285,qs),
(83,1289,o),
(75,1289,qs),
(66,1289,o),
(49,1283,q),
(42,1270,o),
(42,1265,qs),
(42,1257,o),
(52,1242,q),
(208,1225,o),
(280,1210,q),
(280,1184,ls),
(280,1117,o),
(264,847,qs),
(244,493,o),
(235,280,qs),
(228,116,o),
(213,79,qs),
(209,70,o),
(201,64,qs),
(189,56,o),
(126,53,q),
(45,44,o),
(14,23,q),
(15,-4,l)
);
}
);
};
layerId = m01;
shapes = (
{
closed = 1;
nodes = (
(198,-4,o),
(237,0,o),
(272,0,qs),
(310,0,o),
(351,-4,o),
(404,-10,o),
(457,-10,qs),
(482,-10,o),
(513,0,o),
(513,12,qs),
(513,25,o),
(482,41,o),
(449,47,qs),
(388,59,o),
(321,147,o),
(321,200,qs),
(321,333,o),
(337,557,o),
(366,786,o),
(384,923,qs),
(386,933,o),
(406,933,o),
(410,923,qs),
(519,666,o),
(694,221,o),
(770,-8,qs),
(774,-22,o),
(802,-20,o),
(805,-10,qs),
(1256,909,ls),
(1266,929,o),
(1286,931,o),
(1288,909,qs),
(1293,778,o),
(1305,557,o),
(1311,329,o),
(1311,188,qs),
(1311,120,o),
(1268,55,o),
(1211,47,qs),
(1178,43,o),
(1146,25,o),
(1146,12,qs),
(1146,0,o),
(1178,-10,o),
(1203,-10,qs),
(1256,-10,o),
(1317,-4,o),
(1370,0,o),
(1409,0,qs),
(1454,0,o),
(1517,-4,o),
(1585,-10,o),
(1638,-10,qs),
(1664,-10,o),
(1695,0,o),
(1695,12,qs),
(1695,25,o),
(1664,41,o),
(1631,47,qs),
(1558,61,o),
(1487,125,o),
(1484,186,qs),
(1478,298,o),
(1462,513,o),
(1450,735,o),
(1440,976,o),
(1440,1113,qs),
(1440,1135,o),
(1468,1172,o),
(1487,1180,qs),
(1515,1192,o),
(1578,1215,o),
(1603,1225,qs),
(1633,1237,o),
(1654,1252,o),
(1654,1266,qs),
(1654,1280,o),
(1623,1286,o),
(1613,1286,qs),
(1580,1286,o),
(1448,1270,o),
(1390,1270,qs),
(1319,1270,ls),
(1305,1270,o),
(1299,1244,qs),
(1293,1213,o),
(1274,1131,o),
(1264,1097,q),
(878,294,ls),
(870,280,o),
(839,286,o),
(833,300,qs),
(523,1086,ls),
(510,1123,o),
(490,1201,o),
(480,1237,qs),
(476,1252,o),
(457,1268,o),
(443,1268,qs),
(423,1268,o),
(343,1272,o),
(249,1280,o),
(169,1284,o),
(149,1284,qs),
(120,1284,o),
(82,1278,o),
(82,1262,qs),
(82,1248,o),
(106,1227,o),
(125,1223,qs),
(171,1215,o),
(237,1194,o),
(272,1164,qs),
(292,1148,o),
(300,1115,o),
(302,1099,qs),
(304,1086,o),
(304,1050,o),
(304,1035,qs),
(304,952,o),
(282,696,o),
(247,376,o),
(223,200,qs),
(214,131,o),
(151,57,o),
(102,47,qs),
(69,41,o),
(37,25,o),
(37,12,qs),
(37,0,o),
(69,-10,o),
(94,-10,qs),
(147,-10,o)
);
}
);
width = 1707;
},
{
layerId = "9613C2D5-9CC0-4B03-8E94-AFF45D3AC865";
shapes = (
{
closed = 1;
nodes = (
(155,-2,o),
(257,2,o),
(302,2,qs),
(343,2,o),
(392,0,o),
(451,-4,o),
(504,-4,qs),
(519,-4,o),
(551,12,o),
(551,25,qs),
(551,45,o),
(515,63,o),
(498,67,qs),
(419,86,o),
(349,149,o),
(349,204,qs),
(349,300,o),
(345,539,o),
(347,774,o),
(351,862,qs),
(353,888,o),
(378,900,o),
(386,880,qs),
(470,672,o),
(686,229,o),
(788,2,qs),
(796,-14,o),
(837,-25,o),
(849,6,qs),
(1205,890,ls),
(1211,903,o),
(1223,905,o),
(1223,894,qs),
(1229,788,o),
(1235,551,o),
(1243,308,o),
(1248,190,qs),
(1252,131,o),
(1194,82,o),
(1119,67,qs),
(1101,63,o),
(1076,41,o),
(1076,24,qs),
(1076,10,o),
(1101,-6,o),
(1117,-6,qs),
(1160,-6,o),
(1268,0,o),
(1372,4,o),
(1411,4,qs),
(1450,4,o),
(1568,0,o),
(1687,-4,o),
(1729,-4,qs),
(1744,-4,o),
(1766,12,o),
(1766,25,qs),
(1766,45,o),
(1740,61,o),
(1723,67,qs),
(1664,82,o),
(1585,143,o),
(1582,192,qs),
(1574,323,o),
(1560,513,o),
(1550,686,o),
(1538,890,o),
(1533,1033,qs),
(1529,1107,o),
(1582,1174,o),
(1640,1201,qs),
(1648,1205,o),
(1674,1217,o),
(1682,1219,qs),
(1699,1225,o),
(1727,1241,o),
(1727,1258,qs),
(1727,1276,o),
(1697,1290,o),
(1676,1290,qs),
(1621,1290,o),
(1431,1272,o),
(1344,1268,qs),
(1256,1268,ls),
(1231,1268,o),
(1223,1243,qs),
(1215,1219,o),
(1197,1131,o),
(1182,1054,q),
(925,437,l),
(923,429,o),
(913,429,o),
(909,437,qs),
(627,1101,ls),
(611,1141,o),
(588,1205,o),
(572,1244,qs),
(568,1256,o),
(541,1280,o),
(525,1280,qs),
(472,1280,o),
(361,1284,o),
(255,1286,o),
(167,1290,o),
(135,1290,qs),
(114,1290,o),
(84,1276,o),
(84,1258,qs),
(84,1241,o),
(114,1221,o),
(137,1215,qs),
(167,1207,o),
(218,1186,o),
(239,1174,qs),
(265,1160,o),
(290,1117,o),
(290,1078,qs),
(290,1056,o),
(290,1021,o),
(288,1011,qs),
(274,851,o),
(247,539,o),
(223,286,o),
(214,214,qs),
(206,155,o),
(137,76,o),
(92,59,qs),
(74,51,o),
(39,41,o),
(39,24,qs),
(39,10,o),
(61,-6,o),
(84,-6,q),
(84,-6,o)
);
}
);
width = 1877;
}
);
note = M;
unicode = 77;
}
{
glyphname = N;
kernLeft = B;
kernRight = N;
layers = (
{
background = {
shapes = (
{
closed = 1;
nodes = (
(168,1204,o),
(206,1177,qs),
(225,1163,o),
(231,1145,qs),
(242,1111,o),
(244,921,qs),
(246,637,l),
(246,501,ls),
(249,336,o),
(249,274,qs),
(249,141,o),
(238,72,q),
(226,58,o),
(207,51,qs),
(178,40,o),
(115,31,qs),
(68,24,l),
(42,12,l),
(43,-18,l),
(60,-20,o),
(69,-20,qs),
(83,-19,ls),
(159,-14,o),
(259,-14,qs),
(401,-14,o),
(500,-22,qs),
(516,-24,o),
(527,-24,qs),
(537,-24,o),
(553,-19,q),
(554,19,l),
(549,22,o),
(542,28,q),
(450,46,o),
(355,55,q),
(320,63,l),
(316,102,o),
(315,144,qs),
(308,475,ls),
(298,818,o),
(298,1013,q),
(301,1047,l),
(327,1028,o),
(357,998,o),
(414,931,qs),
(505,825,o),
(552,775,qs),
(726,589,o),
(835,465,qs),
(842,458,o),
(872,428,o),
(922,373,qs),
(1008,274,ls),
(1025,254,o),
(1073,205,qs),
(1279,-7,o),
(1314,-47,q),
(1361,-43,l),
(1365,67,o),
(1365,100,qs),
(1365,252,o),
(1359,458,qs),
(1353,659,l),
(1354,701,l),
(1346,846,l),
(1335,1162,ls),
(1335,1189,o),
(1359,1215,qs),
(1366,1223,o),
(1402,1234,qs),
(1426,1241,o),
(1482,1244,o),
(1498,1251,q),
(1500,1282,l),
(1483,1282,ls),
(1462,1282,o),
(1407,1278,qs),
(1310,1272,o),
(1264,1272,qs),
(1231,1272,o),
(1148,1286,o),
(1120,1286,qs),
(1094,1286,o),
(1067,1278,q),
(1060,1264,o),
(1058,1248,q),
(1066,1234,o),
(1082,1228,o),
(1127,1226,q),
(1165,1221,o),
(1183,1220,q),
(1259,1206,o),
(1268,1193,qs),
(1281,1175,o),
(1281,1065,qs),
(1281,1004,o),
(1295,843,o),
(1296,814,qs),
(1303,602,o),
(1303,561,qs),
(1303,518,l),
(1305,424,l),
(1301,364,ls),
(1301,356,o),
(1307,217,q),
(1306,201,l),
(1251,259,o),
(1216,298,qs),
(977,563,ls),
(825,731,o),
(720,837,o),
(656,912,qs),
(626,948,l),
(415,1181,ls),
(405,1192,o),
(397,1201,qs),
(361,1246,o),
(319,1281,q),
(301,1282,o),
(292,1282,qs),
(281,1282,o),
(253,1279,qs),
(181,1271,o),
(26,1271,q),
(27,1223,l),
(45,1218,o)
);
}
);
};
layerId = m01;
shapes = (
{
closed = 1;
nodes = (
(1350,-16,o),
(1350,16,qs),
(1350,29,o),
(1346,82,o),
(1341,159,o),
(1341,206,qs),
(1341,298,o),
(1341,531,o),
(1342,766,o),
(1342,970,o),
(1344,1103,o),
(1344,1113,qs),
(1348,1162,o),
(1395,1205,o),
(1468,1219,qs),
(1533,1231,o),
(1533,1258,qs),
(1533,1270,o),
(1501,1280,o),
(1476,1280,qs),
(1417,1280,o),
(1352,1276,o),
(1297,1274,o),
(1250,1274,qs),
(1233,1274,o),
(1195,1274,o),
(1158,1274,o),
(1139,1274,qs),
(1113,1274,o),
(1058,1264,o),
(1058,1252,qs),
(1058,1239,o),
(1113,1219,o),
(1146,1213,qs),
(1180,1207,o),
(1258,1145,o),
(1260,1105,qs),
(1260,970,o),
(1260,711,o),
(1258,490,o),
(1256,335,o),
(1256,308,qs),
(1254,267,o),
(1237,267,qs),
(1225,267,o),
(1195,298,o),
(1188,306,qs),
(1180,316,o),
(1092,421,o),
(958,584,o),
(802,774,o),
(645,964,o),
(513,1127,o),
(425,1235,o),
(417,1246,qs),
(408,1260,o),
(388,1280,o),
(370,1280,qs),
(317,1280,o),
(251,1282,o),
(196,1286,o),
(125,1288,o),
(69,1290,qs),
(59,1290,o),
(24,1280,o),
(24,1262,qs),
(24,1244,o),
(76,1219,o),
(84,1215,q),
(171,1188,o),
(278,1097,o),
(278,994,qs),
(278,833,o),
(267,529,o),
(251,284,o),
(243,210,qs),
(237,149,o),
(186,65,o),
(129,49,qs),
(96,41,o),
(65,25,o),
(65,12,qs),
(65,0,o),
(96,-10,o),
(122,-10,qs),
(174,-10,o),
(225,-4,o),
(265,0,o),
(300,0,qs),
(337,0,o),
(378,-4,o),
(431,-10,o),
(484,-10,qs),
(510,-10,o),
(541,0,o),
(541,12,qs),
(541,25,o),
(510,41,o),
(476,47,qs),
(404,61,o),
(351,151,o),
(351,204,qs),
(351,325,o),
(355,592,o),
(359,843,o),
(361,939,qs),
(361,951,o),
(368,980,o),
(378,980,qs),
(386,980,o),
(406,966,o),
(419,949,qs),
(429,937,o),
(513,837,o),
(639,690,o),
(784,517,o),
(929,345,o),
(1052,198,o),
(1133,100,o),
(1141,90,qs),
(1188,25,o),
(1292,-33,o),
(1309,-33,qs),
(1325,-33,o)
);
}
);
width = 1579;
},
{
layerId = "9613C2D5-9CC0-4B03-8E94-AFF45D3AC865";
shapes = (
{
closed = 1;
nodes = (
(1395,6,o),
(1395,59,qs),
(1395,76,o),
(1384,172,o),
(1372,288,o),
(1372,333,qs),
(1372,390,o),
(1376,527,o),
(1384,678,o),
(1391,839,o),
(1395,1005,o),
(1395,1090,qs),
(1395,1148,o),
(1458,1199,o),
(1525,1213,qs),
(1574,1223,o),
(1574,1254,qs),
(1574,1268,o),
(1548,1284,o),
(1527,1284,qs),
(1478,1284,o),
(1413,1280,o),
(1358,1278,o),
(1319,1278,qs),
(1286,1278,o),
(1231,1280,o),
(1164,1282,o),
(1111,1282,qs),
(1097,1282,o),
(1070,1266,o),
(1070,1252,qs),
(1070,1233,o),
(1097,1215,o),
(1115,1211,qs),
(1190,1192,o),
(1266,1141,o),
(1268,1084,qs),
(1272,1023,o),
(1274,864,o),
(1274,694,o),
(1274,531,o),
(1274,463,qs),
(1274,435,o),
(1258,435,qs),
(1252,435,o),
(1237,451,o),
(1231,459,qs),
(1180,515,o),
(1076,631,o),
(972,745,o),
(870,860,o),
(766,974,o),
(662,1088,o),
(559,1203,o),
(508,1260,q),
(502,1270,o),
(484,1280,o),
(468,1280,qs),
(415,1280,o),
(302,1284,o),
(194,1286,o),
(102,1290,o),
(71,1290,qs),
(49,1290,o),
(20,1276,o),
(20,1258,qs),
(20,1241,o),
(55,1219,o),
(73,1215,q),
(145,1188,o),
(247,1097,o),
(247,996,qs),
(247,835,o),
(231,537,o),
(214,298,o),
(206,225,qs),
(202,167,o),
(153,84,o),
(108,67,qs),
(90,59,o),
(61,41,o),
(61,24,qs),
(61,10,o),
(94,-6,o),
(106,-6,q),
(106,-6,o),
(159,-2,o),
(243,2,o),
(288,2,qs),
(329,2,o),
(390,0,o),
(461,-4,o),
(513,-4,qs),
(529,-4,o),
(561,12,o),
(561,25,qs),
(561,45,o),
(525,63,o),
(508,67,qs),
(429,86,o),
(345,155,o),
(345,221,qs),
(345,317,o),
(339,562,o),
(333,805,o),
(333,894,qs),
(333,903,o),
(339,931,o),
(347,931,qs),
(351,931,o),
(366,915,o),
(368,911,q),
(423,853,o),
(531,737,o),
(641,621,o),
(749,508,o),
(858,392,o),
(968,276,o),
(1076,161,o),
(1131,102,qs),
(1195,24,o),
(1311,-37,o),
(1339,-37,qs),
(1366,-37,o)
);
}
);
width = 1728;
}
);
note = N;
unicode = 78;
}
{
glyphname = O;
kernLeft = C;
kernRight = D;
layers = (
{
background = {
shapes = (
{
closed = 1;
nodes = (
(170,305,o),
(317,131,o),
(456,42,o),
(664,-20,o),
(797,-20,qs),
(928,-20,o),
(1154,51,o),
(1230,109,qs),
(1344,195,o),
(1391,261,qs),
(1451,346,o),
(1502,520,o),
(1502,652,qs),
(1502,768,o),
(1464,877,qs),
(1435,960,o),
(1378,1032,qs),
(1296,1136,o),
(1132,1236,o),
(931,1292,o),
(826,1292,qs),
(670,1292,o),
(568,1259,qs),
(423,1211,o),
(259,1086,o),
(143,900,o),
(94,741,o),
(94,639,qs),
(94,515,o)
);
},
{
closed = 1;
nodes = (
(540,80,o),
(413,199,o),
(326,353,o),
(276,563,o),
(276,646,qs),
(276,725,o),
(326,931,o),
(422,1102,o),
(534,1195,o),
(708,1255,o),
(799,1255,qs),
(911,1255,o),
(1109,1168,o),
(1249,1009,o),
(1280,908,qs),
(1320,775,o),
(1320,639,qs),
(1320,530,o),
(1272,312,o),
(1193,173,o),
(1053,64,o),
(872,17,o),
(788,17,qs),
(698,17,o)
);
}
);
};
layerId = m01;
shapes = (
{
closed = 1;
nodes = (
(1152,86,o),
(1321,278,o),
(1407,525,o),
(1407,657,qs),
(1407,802,o),
(1301,1039,o),
(1121,1209,o),
(886,1301,o),
(756,1301,qs),
(594,1301,o),
(343,1188,o),
(174,996,o),
(88,751,o),
(88,617,qs),
(88,472,o),
(194,235,o),
(374,65,o),
(610,-27,o),
(739,-27,qs),
(902,-27,o)
);
},
{
closed = 1;
nodes = (
(461,155,o),
(337,339,o),
(276,578,o),
(276,715,qs),
(276,868,o),
(378,1094,o),
(578,1219,o),
(725,1219,qs),
(849,1219,o),
(1033,1117,o),
(1156,935,o),
(1219,696,o),
(1219,561,qs),
(1219,408,o),
(1119,178,o),
(919,51,o),
(768,51,qs),
(645,51,o)
);
}
);
width = 1600;
},
{
layerId = "9613C2D5-9CC0-4B03-8E94-AFF45D3AC865";
shapes = (
{
closed = 1;
nodes = (
(1170,86,o),
(1348,278,o),
(1438,525,o),
(1438,657,qs),
(1438,802,o),
(1329,1039,o),
(1137,1209,o),
(890,1301,o),
(753,1301,qs),
(580,1301,o),
(317,1188,o),
(139,996,o),
(49,751,o),
(49,617,qs),
(49,472,o),
(159,235,o),
(351,65,o),
(598,-27,o),
(735,-27,qs),
(907,-27,o)
);
},
{
closed = 1;
nodes = (
(535,180,o),
(447,370,o),
(404,602,o),
(404,719,qs),
(404,862,o),
(472,1082,o),
(611,1207,o),
(713,1207,qs),
(811,1207,o),
(951,1094,o),
(1041,903,o),
(1084,672,o),
(1084,555,qs),
(1084,412,o),
(1013,190,o),
(874,65,o),
(770,65,qs),
(674,65,o)
);
}
);
width = 1621;
}
);
note = O;
unicode = 79;
}
{
glyphname = P;
kernLeft = B;
kernRight = P;
layers = (
{
background = {
shapes = (
{
closed = 1;
nodes = (
(38,1258,qs),
(38,1251,o),
(43,1240,q),
(191,1219,o),
(228,1186,qs),
(250,1167,o),
(250,1095,qs),
(250,1078,ls),
(250,892,o),
(254,712,qs),
(264,327,o),
(264,209,qs),
(264,172,o),
(263,151,qs),
(262,121,o),
(262,112,qs),
(262,71,o),
(252,57,qs),
(245,48,o),
(213,39,q),
(83,14,l),
(84,-12,l),
(132,-10,o),
(142,-10,qs),
(247,-13,l),
(423,-6,ls),
(472,-6,o),
(558,-15,qs),
(602,-20,o),
(614,-20,qs),
(633,-20,o),
(646,-11,o),
(650,4,q),
(644,14,o),
(636,17,qs),
(631,19,o),
(577,32,qs),
(461,58,o),
(437,65,q),
(429,90,o),
(429,138,qs),
(429,158,o),
(434,212,o),
(434,222,qs),
(421,679,l),
(421,735,l),
(415,785,o),
(415,989,qs),
(415,1045,o),
(417,1072,qs),
(418,1092,l),
(414,1205,l),
(415,1219,l),
(438,1237,o),
(562,1237,qs),
(602,1237,o),
(747,1203,o),
(782,1178,qs),
(844,1134,o),
(920,987,o),
(920,909,qs),
(920,829,o),
(848,685,o),
(707,607,o),
(628,607,qs),
(576,607,o),
(542,619,qs),
(527,625,o),
(513,625,q),
(506,622,o),
(502,615,q),
(506,601,o),
(525,588,qs),
(570,558,o),
(640,537,o),
(692,537,qs),
(878,537,o),
(1098,765,o),
(1098,922,qs),
(1098,1016,o),
(997,1206,o),
(811,1295,o),
(654,1295,qs),
(565,1295,o),
(498,1289,qs),
(328,1279,ls),
(257,1275,o),
(235,1275,qs),
(220,1275,o),
(179,1276,qs),
(101,1280,o),
(67,1280,qs),
(62,1280,o),
(44,1277,q),
(38,1266,o)
);
}
);
};
layerId = m01;
shapes = (
{
closed = 1;
nodes = (
(233,-2,o),
(310,4,o),
(359,4,qs),
(396,4,o),
(441,-2,o),
(498,-10,o),
(551,-10,qs),
(576,-10,o),
(608,0,o),
(608,12,qs),
(608,25,o),
(576,41,o),
(543,47,qs),
(470,61,o),
(412,147,o),
(412,218,qs),
(412,1152,ls),
(412,1197,o),
(482,1235,o),
(537,1235,qs),
(680,1235,o),
(864,1084,o),
(864,927,qs),
(864,755,o),
(745,559,o),
(627,559,qs),
(588,559,o),
(547,562,o),
(537,562,qs),
(527,562,o),
(506,543,o),
(506,535,qs),
(506,523,o),
(551,498,o),
(594,498,qs),
(745,498,o),
(939,619,o),
(1033,821,o),
(1033,941,qs),
(1033,1105,o),
(760,1290,o),
(537,1290,qs),
(510,1290,o),
(439,1284,o),
(359,1278,o),
(319,1278,qs),
(280,1278,o),
(233,1280,o),
(180,1280,o),
(127,1280,qs),
(102,1280,o),
(71,1270,o),
(71,1258,qs),
(71,1244,o),
(102,1225,o),
(135,1219,qs),
(210,1205,o),
(255,1111,o),
(255,1023,qs),
(255,196,ls),
(255,123,o),
(186,61,o),
(112,47,qs),
(47,35,o),
(47,12,qs),
(47,0,o),
(78,-10,o),
(104,-10,qs),
(157,-10,o)
);
}
);
width = 1152;
},
{
layerId = "9613C2D5-9CC0-4B03-8E94-AFF45D3AC865";
shapes = (
{
closed = 1;
nodes = (
(216,0,o),
(319,4,o),
(359,4,qs),
(398,4,o),
(521,0,o),
(647,-4,o),
(688,-4,qs),
(704,-4,o),
(719,12,o),
(719,25,qs),
(719,45,o),
(700,63,o),
(682,67,qs),
(598,84,o),
(529,131,o),
(529,192,qs),
(531,1097,ls),
(531,1150,o),
(586,1201,o),
(641,1201,qs),
(737,1201,o),
(841,1039,o),
(841,853,qs),
(841,707,o),
(764,525,o),
(690,525,qs),
(664,525,o),
(635,535,o),
(611,535,qs),
(602,535,o),
(574,519,o),
(574,504,qs),
(574,480,o),
(629,449,o),
(682,449,qs),
(845,449,o),
(1058,576,o),
(1164,786,o),
(1164,909,qs),
(1164,1088,o),
(882,1293,o),
(641,1293,qs),
(568,1293,o),
(478,1284,o),
(406,1274,o),
(359,1274,qs),
(319,1274,o),
(221,1280,o),
(120,1284,o),
(76,1284,qs),
(59,1284,o),
(37,1266,o),
(37,1252,qs),
(37,1241,o),
(55,1217,o),
(78,1211,qs),
(147,1195,o),
(196,1143,o),
(196,1080,qs),
(196,190,ls),
(196,129,o),
(141,82,o),
(67,67,qs),
(29,57,o),
(29,24,qs),
(29,10,o),
(53,-6,o),
(65,-6,qs),
(108,-6,o)
);
}
);
width = 1259;
}
);
note = P;
unicode = 80;
}
{
glyphname = Q;
kernLeft = C;
kernRight = D;
layers = (
{
background = {
shapes = (
{
closed = 1;
nodes = (
(97,784,o),
(97,609,qs),
(97,460,o),
(246,176,o),
(527,-16,o),
(702,-41,q),
(755,-103,o),
(835,-168,qs),
(954,-263,o),
(1157,-377,o),
(1400,-446,o),
(1492,-446,qs),
(1499,-446,o),
(1531,-445,q),
(1531,-427,l),
(1532,-415,ls),
(1532,-410,o),
(1531,-401,q),
(1487,-387,o),
(1435,-365,qs),
(1409,-354,l),
(1400,-353,l),
(1377,-344,ls),
(1329,-324,o),
(1276,-298,qs),
(1252,-286,o),
(1243,-283,q),
(1146,-240,o),
(947,-84,o),
(906,-35,q),
(923,-26,o),
(959,-21,qs),
(1011,-15,o),
(1194,71,o),
(1367,246,o),
(1477,519,o),
(1477,648,qs),
(1477,845,o),
(1371,1014,qs),
(1285,1150,o),
(998,1316,o),
(818,1316,qs),
(632,1316,o),
(476,1239,qs),
(281,1138,o)
);
},
{
closed = 1;
nodes = (
(510,92,qs),
(408,186,o),
(297,491,o),
(297,651,qs),
(297,847,o),
(347,957,qs),
(426,1130,o),
(662,1270,o),
(797,1270,qs),
(912,1270,o),
(1063,1187,o),
(1203,1011,o),
(1233,924,qs),
(1278,798,o),
(1278,645,qs),
(1278,451,o),
(1180,193,o),
(1112,122,qs),
(1060,68,o),
(885,0,o),
(775,0,qs),
(727,0,o),
(672,10,q),
(569,37,o)
);
}
);
};
layerId = m01;
shapes = (
{
closed = 1;
nodes = (
(1633,-455,o),
(1687,-421,qs),
(1709,-408,o),
(1723,-388,o),
(1723,-370,qs),
(1723,-355,o),
(1701,-355,qs),
(1693,-355,o),
(1674,-359,o),
(1664,-363,qs),
(1650,-368,o),
(1589,-376,o),
(1554,-376,qs),
(1440,-376,o),
(1270,-323,o),
(1172,-253,qs),
(1099,-200,o),
(980,-96,o),
(923,-35,qs),
(915,-27,o),
(915,-18,qs),
(915,-8,o),
(931,-4,qs),
(1088,37,o),
(1299,237,o),
(1407,508,o),
(1407,657,qs),
(1407,802,o),
(1301,1039,o),
(1121,1209,o),
(886,1301,o),
(756,1301,qs),
(594,1301,o),
(343,1188,o),
(174,996,o),
(88,751,o),
(88,617,qs),
(88,498,o),
(153,308,o),
(265,163,o),
(410,57,o),
(490,20,qs),
(531,0,o),
(647,-49,o),
(715,-106,qs),
(811,-184,o),
(949,-284,o),
(1025,-339,qs),
(1119,-406,o),
(1317,-486,o),
(1458,-486,qs),
(1513,-486,o)
);
},
{
closed = 1;
nodes = (
(461,155,o),
(337,339,o),
(276,578,o),
(276,715,qs),
(276,945,o),
(504,1219,o),
(725,1219,qs),
(849,1219,o),
(1033,1117,o),
(1156,935,o),
(1219,696,o),
(1219,561,qs),
(1219,329,o),
(994,51,o),
(768,51,qs),
(645,51,o)
);
}
);
width = 1579;
},
{
layerId = "9613C2D5-9CC0-4B03-8E94-AFF45D3AC865";
shapes = (
{
closed = 1;
nodes = (
(1656,-459,o),
(1695,-433,qs),
(1717,-419,o),
(1734,-394,o),
(1734,-376,qs),
(1734,-331,o),
(1674,-331,qs),
(1662,-331,o),
(1640,-333,o),
(1629,-335,qs),
(1617,-337,o),
(1587,-339,o),
(1568,-339,qs),
(1493,-339,o),
(1329,-268,o),
(1233,-190,qs),
(1160,-129,o),
(1072,-51,o),
(1029,-10,qs),
(1019,0,o),
(1019,10,qs),
(1019,25,o),
(1041,31,q),
(1172,88,o),
(1348,280,o),
(1438,525,o),
(1438,657,qs),
(1438,802,o),
(1329,1039,o),
(1137,1209,o),
(890,1301,o),
(753,1301,qs),
(580,1301,o),
(317,1188,o),
(139,996,o),
(49,751,o),
(49,617,qs),
(49,476,o),
(135,270,o),
(267,129,o),
(415,43,o),
(476,22,qs),
(557,-8,o),
(664,-106,o),
(698,-137,qs),
(762,-196,o),
(878,-282,o),
(949,-333,qs),
(1052,-406,o),
(1311,-486,o),
(1423,-486,qs),
(1515,-486,o)
);
},
{
closed = 1;
nodes = (
(535,180,o),
(447,366,o),
(404,598,o),
(404,719,qs),
(404,943,o),
(559,1199,o),
(713,1199,qs),
(811,1199,o),
(951,1092,o),
(1041,907,o),
(1084,676,o),
(1084,555,qs),
(1084,329,o),
(927,71,o),
(770,71,qs),
(674,71,o)
);
}
);
width = 1621;
}
);
note = Q;
unicode = 81;
}
{
glyphname = R;
kernLeft = B;
kernRight = R;
layers = (
{
background = {
shapes = (
{
closed = 1;
nodes = (
(42,9,q),
(44,-1,l),
(64,-5,l),
(146,-2,o),
(155,-2,qs),
(288,-3,l),
(424,-1,ls),
(436,-1,o),
(455,-2,qs),
(492,-4,o),
(582,-4,qs),
(593,-4,o),
(620,1,q),
(620,18,o),
(612,28,q),
(571,38,ls),
(478,61,o),
(439,84,o),
(431,103,q),
(422,137,o),
(423,156,qs),
(423,498,ls),
(423,597,o),
(426,629,q),
(454,628,l),
(539,629,ls),
(571,629,o),
(610,608,o),
(640,566,q),
(788,296,l),
(884,133,o),
(955,-3,q),
(978,-5,o),
(991,-5,qs),
(1175,-5,o),
(1312,-3,q),
(1313,6,o),
(1313,12,qs),
(1313,18,o),
(1312,28,q),
(1214,46,o),
(1131,86,o),
(1073,147,o),
(997,267,q),
(870,485,ls),
(809,586,o),
(775,658,q),
(794,671,o),
(827,688,qs),
(1020,785,o),
(1020,969,qs),
(1020,1066,o),
(914,1223,o),
(735,1289,o),
(512,1289,qs),
(249,1286,l),
(167,1286,ls),
(147,1286,o),
(102,1281,o),
(97,1281,qs),
(61,1280,o),
(51,1271,q),
(48,1260,o),
(48,1253,qs),
(48,1242,o),
(64,1232,o),
(218,1211,o),
(255,1161,o),
(254,1047,qs),
(253,867,l),
(254,616,l),
(252,481,l),
(255,362,ls),
(255,320,o),
(253,276,qs),
(245,120,o),
(245,95,qs),
(245,84,l),
(234,59,o),
(221,54,qs),
(202,47,o),
(56,30,q),
(42,18,o)
);
},
{
closed = 1;
nodes = (
(424,883,qs),
(425,960,l),
(420,1147,ls),
(420,1175,o),
(424,1227,q),
(467,1230,o),
(494,1230,qs),
(604,1230,o),
(761,1152,o),
(794,1094,qs),
(837,1018,o),
(837,950,qs),
(837,888,o),
(782,772,o),
(700,713,o),
(634,700,qs),
(540,683,o),
(468,683,qs),
(455,683,o),
(428,684,q),
(424,805,o)
);
}
);
};
layerId = m01;
shapes = (
{
closed = 1;
nodes = (
(1348,-31,o),
(1407,-2,o),
(1407,27,qs),
(1407,49,o),
(1378,49,qs),
(1309,49,o),
(1203,69,o),
(1152,114,qs),
(1060,198,o),
(927,355,o),
(815,519,o),
(755,611,qs),
(749,621,o),
(747,635,o),
(755,637,q),
(809,664,o),
(915,751,o),
(986,878,o),
(986,966,qs),
(986,1127,o),
(760,1288,o),
(545,1288,qs),
(488,1288,o),
(415,1284,o),
(357,1278,o),
(319,1278,qs),
(280,1278,o),
(233,1280,o),
(180,1280,o),
(127,1280,qs),
(102,1280,o),
(71,1270,o),
(71,1258,qs),
(71,1244,o),
(102,1223,o),
(135,1219,qs),
(192,1213,o),
(241,1182,o),
(255,1105,o),
(255,1031,qs),
(255,196,ls),
(255,123,o),
(186,61,o),
(112,47,qs),
(47,35,o),
(47,12,qs),
(47,0,o),
(78,-10,o),
(104,-10,qs),
(157,-10,o),
(233,-2,o),
(310,4,o),
(359,4,qs),
(396,4,o),
(441,-2,o),
(498,-10,o),
(551,-10,qs),
(576,-10,o),
(608,0,o),
(608,12,qs),
(608,25,o),
(576,41,o),
(543,47,qs),
(470,61,o),
(412,153,o),
(412,216,qs),
(412,561,ls),
(412,578,o),
(425,602,o),
(441,600,qs),
(468,598,o),
(553,580,o),
(596,559,qs),
(651,531,o),
(680,482,qs),
(749,372,o),
(845,231,o),
(931,123,o),
(978,65,qs),
(1013,24,o),
(1096,-24,o),
(1194,-41,o),
(1248,-41,qs),
(1274,-41,o)
);
},
{
closed = 1;
nodes = (
(412,664,o),
(412,713,qs),
(412,831,o),
(414,998,o),
(415,1047,qs),
(419,1148,o),
(459,1229,o),
(521,1229,qs),
(645,1229,o),
(768,1148,o),
(809,1015,o),
(809,935,qs),
(809,860,o),
(737,727,o),
(606,645,o),
(515,645,qs),
(466,645,o)
);
}
);
width = 1280;
},
{
layerId = "9613C2D5-9CC0-4B03-8E94-AFF45D3AC865";
shapes = (
{
closed = 1;
nodes = (
(1458,-14,o),
(1519,43,o),
(1519,90,qs),
(1519,127,o),
(1489,127,qs),
(1421,127,o),
(1274,151,o),
(1205,216,qs),
(1148,270,o),
(1035,406,o),
(923,566,o),
(864,653,qs),
(860,658,o),
(858,674,o),
(866,676,qs),
(927,694,o),
(1045,766,o),
(1123,886,o),
(1123,974,qs),
(1123,1133,o),
(870,1288,o),
(639,1288,qs),
(566,1288,o),
(476,1278,o),
(404,1268,o),
(357,1268,qs),
(306,1268,o),
(227,1276,o),
(141,1284,o),
(76,1284,qs),
(59,1284,o),
(37,1266,o),
(37,1252,qs),
(37,1241,o),
(55,1217,o),
(78,1211,qs),
(125,1201,o),
(176,1172,o),
(196,1123,o),
(196,1080,qs),
(196,190,ls),
(196,129,o),
(141,82,o),
(67,67,qs),
(29,57,o),
(29,24,qs),
(29,10,o),
(53,-6,o),
(65,-6,qs),
(108,-6,o),
(216,0,o),
(319,4,o),
(359,4,qs),
(398,4,o),
(521,0,o),
(647,-4,o),
(688,-4,qs),
(704,-4,o),
(719,12,o),
(719,25,qs),
(719,45,o),
(700,63,o),
(682,67,qs),
(598,84,o),
(529,131,o),
(529,192,qs),
(529,572,ls),
(529,590,o),
(539,611,o),
(549,611,qs),
(559,611,o),
(584,606,o),
(596,598,qs),
(623,582,o),
(643,539,qs),
(680,459,o),
(755,327,o),
(833,212,o),
(874,155,qs),
(913,102,o),
(1011,14,o),
(1158,-41,o),
(1268,-41,qs),
(1344,-41,o)
);
},
{
closed = 1;
nodes = (
(529,713,o),
(529,753,qs),
(529,841,o),
(529,972,o),
(529,1015,qs),
(529,1129,o),
(566,1195,o),
(606,1195,qs),
(668,1195,o),
(756,1139,o),
(804,1021,o),
(804,927,qs),
(804,853,o),
(758,741,o),
(668,678,o),
(598,678,qs),
(566,678,o)
);
}
);
width = 1429;
}
);
note = R;
unicode = 82;
}
{
glyphname = S;
kernLeft = S;
kernRight = S;
layers = (
{
background = {
shapes = (
{
closed = 1;
nodes = (
(684,1293,qs),
(610,1316,o),
(508,1316,qs),
(323,1316,o),
(103,1123,o),
(103,984,qs),
(103,907,o),
(134,849,qs),
(176,774,o),
(260,707,qs),
(312,666,o),
(656,487,o),
(713,420,qs),
(770,353,o),
(770,272,qs),
(770,213,o),
(695,88,o),
(562,22,o),
(483,22,qs),
(354,22,o),
(252,119,qs),
(149,216,o),
(138,339,qs),
(136,357,o),
(125,370,o),
(116,370,qs),
(105,370,o),
(101,363,qs),
(96,355,o),
(94,308,qs),
(93,232,o),
(79,114,qs),
(77,97,o),
(77,86,qs),
(77,68,o),
(109,36,o),
(182,10,qs),
(306,-33,o),
(441,-33,qs),
(596,-33,o),
(784,62,o),
(895,250,o),
(895,357,qs),
(895,442,o),
(825,580,o),
(687,685,o),
(527,768,qs),
(317,876,o),
(266,930,qs),
(215,984,o),
(215,1049,qs),
(215,1134,o),
(361,1262,o),
(475,1262,qs),
(585,1262,o),
(738,1134,o),
(770,994,q),
(779,992,l),
(785,992,o),
(794,996,q),
(797,1012,o),
(799,1069,qs),
(803,1158,ls),
(803,1168,o),
(795,1234,q),
(738,1275,o)
);
}
);
};
layerId = m01;
shapes = (
{
closed = 1;
nodes = (
(721,63,o),
(827,237,o),
(827,353,qs),
(827,451,o),
(743,586,o),
(611,684,o),
(543,725,qs),
(470,770,o),
(345,856,o),
(268,952,o),
(268,1011,qs),
(268,1094,o),
(333,1192,o),
(435,1235,o),
(494,1235,qs),
(578,1235,o),
(688,1125,o),
(729,1021,qs),
(733,1009,o),
(766,994,o),
(784,994,qs),
(813,994,o),
(813,1015,qs),
(813,1062,o),
(786,1168,o),
(774,1209,qs),
(770,1225,o),
(749,1252,o),
(733,1258,qs),
(702,1272,o),
(598,1301,o),
(527,1301,qs),
(390,1301,o),
(208,1205,o),
(118,1045,o),
(118,945,qs),
(118,851,o),
(216,719,o),
(365,619,o),
(441,570,qs),
(512,527,o),
(610,453,o),
(662,353,o),
(662,272,qs),
(662,200,o),
(602,92,o),
(496,33,o),
(427,33,qs),
(343,33,o),
(188,163,o),
(149,314,qs),
(147,325,o),
(127,335,o),
(118,335,qs),
(102,335,o),
(78,321,o),
(78,308,qs),
(82,267,o),
(88,141,o),
(98,102,qs),
(102,90,o),
(116,71,o),
(123,63,qs),
(178,18,o),
(317,-31,o),
(400,-31,qs),
(529,-31,o)
);
}
);
width = 981;
},
{
layerId = "9613C2D5-9CC0-4B03-8E94-AFF45D3AC865";
shapes = (
{
closed = 1;
nodes = (
(792,55,o),
(911,231,o),
(911,370,qs),
(911,457,o),
(860,592,o),
(735,717,o),
(621,784,qs),
(541,833,o),
(421,913,o),
(359,992,o),
(359,1035,qs),
(359,1090,o),
(396,1162,o),
(472,1201,o),
(533,1201,qs),
(629,1201,o),
(762,1078,o),
(794,956,qs),
(798,943,o),
(827,925,o),
(843,925,qs),
(880,925,o),
(880,951,qs),
(880,1027,o),
(870,1146,o),
(860,1188,qs),
(851,1221,o),
(831,1243,o),
(805,1252,qs),
(762,1270,o),
(619,1301,o),
(545,1301,qs),
(417,1301,o),
(204,1207,o),
(76,1037,o),
(76,919,qs),
(76,804,o),
(174,651,o),
(329,545,o),
(412,500,qs),
(490,459,o),
(588,388,o),
(635,306,o),
(635,247,qs),
(635,208,o),
(598,123,o),
(521,67,o),
(461,67,qs),
(341,67,o),
(167,259,o),
(122,404,q),
(114,417,o),
(100,429,o),
(78,429,qs),
(63,429,o),
(41,417,o),
(41,404,qs),
(37,317,o),
(53,159,o),
(74,102,qs),
(80,88,o),
(106,63,o),
(120,53,qs),
(190,10,o),
(351,-27,o),
(435,-27,qs),
(578,-27,o)
);
}
);
width = 1045;
}
);
note = S;
unicode = 83;
}
{
glyphname = T;
kernLeft = T;
kernRight = T;
layers = (
{
background = {
shapes = (
{
closed = 1;
nodes = (
(12,1026,qs),
(-4,966,o),
(-4,954,qs),
(-4,949,o),
(0,943,q),
(9,941,l),
(33,941,o),
(65,992,q),
(162,1128,o),
(211,1156,qs),
(242,1174,o),
(386,1174,qs),
(484,1174,o),
(547,1167,q),
(548,900,l),
(552,820,l),
(556,449,l),
(556,279,ls),
(556,150,o),
(547,106,qs),
(543,85,o),
(533,76,qs),
(515,60,o),
(401,29,o),
(359,23,qs),
(329,19,o),
(315,6,o),
(313,-17,q),
(327,-23,l),
(337,-25,o),
(382,-25,q),
(489,-19,l),
(635,-12,l),
(694,-16,o),
(811,-17,qs),
(953,-21,l),
(953,9,l),
(941,15,o),
(922,17,qs),
(891,22,o),
(799,45,qs),
(746,59,o),
(722,89,o),
(722,124,qs),
(723,198,l),
(722,331,l),
(726,434,o),
(726,471,qs),
(718,1092,ls),
(718,1125,o),
(720,1165,q),
(775,1169,o),
(889,1169,qs),
(1031,1169,o),
(1106,1147,o),
(1126,1122,qs),
(1156,1083,o),
(1176,993,qs),
(1185,954,o),
(1197,939,o),
(1205,939,qs),
(1213,939,o),
(1224,946,q),
(1228,955,o),
(1228,966,qs),
(1233,1135,o),
(1233,1166,qs),
(1232,1251,l),
(1233,1291,ls),
(1233,1307,o),
(1228,1327,q),
(1216,1331,o),
(1208,1331,qs),
(1189,1331,o),
(1176,1302,qs),
(1146,1238,o),
(1143,1234,qs),
(1134,1224,o),
(1119,1224,qs),
(1103,1224,o),
(1035,1230,qs),
(1020,1232,o),
(1010,1232,qs),
(855,1229,l),
(773,1229,l),
(494,1228,l),
(258,1231,l),
(215,1235,l),
(205,1234,l),
(184,1237,o),
(162,1254,o),
(145,1285,qs),
(122,1328,o),
(104,1328,qs),
(95,1328,o),
(81,1311,o),
(77,1281,q),
(36,1130,l),
(32,1103,o)
);
}
);
};
layerId = m01;
shapes = (
{
closed = 1;
nodes = (
(549,-4,o),
(621,0,o),
(670,0,qs),
(715,0,o),
(778,-4,o),
(847,-10,o),
(900,-10,qs),
(925,-10,o),
(956,0,o),
(956,12,qs),
(956,25,o),
(925,41,o),
(892,47,qs),
(819,61,o),
(737,129,o),
(737,200,qs),
(737,970,ls),
(737,1078,o),
(749,1172,o),
(792,1195,o),
(835,1195,qs),
(1033,1195,ls),
(1127,1195,o),
(1205,1146,o),
(1213,1105,qs),
(1221,1068,o),
(1237,1025,o),
(1250,1025,qs),
(1266,1025,o),
(1282,1070,o),
(1282,1088,qs),
(1282,1111,ls),
(1282,1137,o),
(1286,1160,o),
(1295,1192,o),
(1301,1227,qs),
(1303,1237,o),
(1309,1272,o),
(1309,1282,qs),
(1309,1297,o),
(1301,1327,o),
(1295,1327,qs),
(1272,1327,o),
(1243,1299,o),
(1219,1288,qs),
(1188,1274,o),
(1101,1258,o),
(1033,1258,qs),
(343,1258,ls),
(302,1258,o),
(218,1278,o),
(206,1297,qs),
(198,1313,o),
(165,1360,o),
(157,1360,qs),
(149,1360,o),
(127,1348,o),
(123,1315,qs),
(116,1254,o),
(90,1166,o),
(63,1109,qs),
(53,1090,o),
(53,1070,qs),
(53,1060,o),
(59,1045,o),
(67,1045,qs),
(82,1045,o),
(114,1072,o),
(141,1109,o),
(147,1119,qs),
(169,1158,o),
(261,1195,o),
(308,1195,qs),
(400,1195,ls),
(451,1195,o),
(512,1194,o),
(539,1188,qs),
(555,1186,o),
(572,1146,o),
(580,1050,o),
(580,960,qs),
(580,200,ls),
(580,129,o),
(502,61,o),
(427,47,qs),
(394,41,o),
(363,25,o),
(363,12,qs),
(363,0,o),
(394,-10,o),
(419,-10,qs),
(472,-10,o)
);
}
);
width = 1259;
},
{
layerId = "9613C2D5-9CC0-4B03-8E94-AFF45D3AC865";
shapes = (
{
closed = 1;
nodes = (
(555,0,o),
(664,4,o),
(704,4,qs),
(743,4,o),
(858,0,o),
(976,-4,o),
(1017,-4,qs),
(1033,-4,o),
(1054,12,o),
(1054,25,qs),
(1054,45,o),
(1029,61,o),
(1011,67,qs),
(935,88,o),
(874,137,o),
(874,192,qs),
(874,986,ls),
(874,1072,o),
(894,1160,o),
(935,1192,o),
(966,1192,qs),
(1047,1192,ls),
(1131,1192,o),
(1217,1121,o),
(1243,1043,qs),
(1256,1001,o),
(1282,966,o),
(1301,966,qs),
(1321,966,o),
(1335,1003,o),
(1335,1039,qs),
(1335,1080,ls),
(1335,1115,o),
(1348,1186,o),
(1370,1262,o),
(1380,1301,qs),
(1382,1311,o),
(1384,1331,o),
(1384,1339,qs),
(1384,1354,o),
(1374,1370,o),
(1360,1370,qs),
(1335,1370,o),
(1295,1323,o),
(1262,1303,qs),
(1248,1295,o),
(1184,1276,o),
(1139,1276,qs),
(390,1274,ls),
(365,1274,o),
(270,1290,o),
(249,1305,qs),
(229,1321,o),
(198,1372,o),
(182,1372,qs),
(163,1372,o),
(135,1348,o),
(131,1321,qs),
(125,1248,o),
(88,1139,o),
(49,1062,qs),
(35,1035,o),
(35,1009,qs),
(35,996,o),
(49,974,o),
(67,974,qs),
(88,974,o),
(131,1013,o),
(171,1064,o),
(180,1078,qs),
(216,1125,o),
(333,1192,o),
(398,1192,qs),
(431,1192,ls),
(441,1192,o),
(498,1188,o),
(512,1178,q),
(521,1174,o),
(533,1152,o),
(541,1084,o),
(541,1009,qs),
(541,190,ls),
(541,129,o),
(476,82,o),
(402,67,qs),
(384,63,o),
(359,41,o),
(359,24,qs),
(359,10,o),
(388,-6,o),
(400,-6,qs),
(443,-6,o)
);
}
);
width = 1408;
}
);
note = T;
unicode = 84;
}
{
glyphname = U;
kernLeft = U;
kernRight = U;
layers = (
{
background = {
shapes = (
{
closed = 1;
nodes = (
(163,1281,l),
(96,1280,l),
(70,1280,ls),
(54,1280,o),
(43,1272,qs),
(37,1267,o),
(37,1258,qs),
(37,1251,o),
(40,1242,q),
(58,1228,o),
(124,1228,qs),
(183,1229,ls),
(204,1229,o),
(215,1213,qs),
(231,1190,o),
(231,1132,qs),
(231,980,l),
(228,754,l),
(231,474,l),
(231,405,ls),
(231,263,o),
(266,189,qs),
(292,133,o),
(428,21,o),
(543,-14,qs),
(606,-34,o),
(749,-34,qs),
(840,-34,o),
(1027,26,o),
(1139,119,o),
(1198,235,o),
(1214,334,qs),
(1225,405,o),
(1225,601,qs),
(1222,705,l),
(1223,787,l),
(1216,994,ls),
(1212,1098,o),
(1212,1129,qs),
(1212,1187,o),
(1260,1230,o),
(1383,1246,q),
(1384,1282,l),
(1353,1283,l),
(1195,1278,ls),
(1189,1278,o),
(1123,1283,qs),
(1079,1286,o),
(1039,1286,qs),
(1001,1286,o),
(962,1282,q),
(963,1267,o),
(968,1253,q),
(1077,1231,o),
(1116,1203,qs),
(1134,1190,o),
(1153,1138,o),
(1160,993,qs),
(1175,706,ls),
(1175,698,o),
(1171,605,o),
(1171,589,qs),
(1171,560,ls),
(1174,485,o),
(1174,480,qs),
(1174,304,o),
(1095,131,o),
(914,33,o),
(744,33,qs),
(668,33,o),
(507,89,o),
(427,175,o),
(393,308,o),
(392,580,qs),
(389,1075,l),
(399,1189,l),
(403,1207,o),
(421,1218,qs),
(448,1236,o),
(494,1236,qs),
(504,1236,o),
(537,1233,o),
(544,1233,qs),
(560,1233,o),
(586,1240,q),
(589,1252,o),
(589,1258,qs),
(589,1267,o),
(584,1284,q),
(321,1281,l)
);
}
);
};
layerId = m01;
shapes = (
{
closed = 1;
nodes = (
(1103,104,o),
(1241,339,o),
(1244,490,qs),
(1248,625,o),
(1254,903,o),
(1264,1072,qs),
(1268,1131,o),
(1311,1209,o),
(1362,1219,qs),
(1427,1233,o),
(1427,1258,qs),
(1427,1270,o),
(1395,1280,o),
(1370,1280,qs),
(1348,1280,o),
(1297,1276,o),
(1243,1274,o),
(1211,1274,qs),
(1168,1274,o),
(1109,1276,o),
(1064,1276,qs),
(1039,1276,o),
(1007,1266,o),
(1007,1254,qs),
(1007,1241,o),
(1052,1221,o),
(1072,1215,qs),
(1099,1207,o),
(1135,1143,o),
(1152,1052,o),
(1152,1001,qs),
(1154,927,o),
(1158,764,o),
(1160,623,o),
(1160,580,qs),
(1160,351,o),
(972,71,o),
(770,71,qs),
(651,71,o),
(464,167,o),
(359,368,o),
(359,525,qs),
(359,1076,ls),
(359,1135,o),
(417,1209,o),
(441,1217,qs),
(474,1227,o),
(506,1243,o),
(506,1256,qs),
(506,1268,o),
(474,1278,o),
(449,1278,qs),
(417,1278,o),
(337,1274,o),
(292,1274,qs),
(237,1274,o),
(149,1280,o),
(104,1280,qs),
(78,1280,o),
(47,1270,o),
(47,1258,qs),
(47,1233,o),
(112,1215,qs),
(145,1207,o),
(202,1143,o),
(202,1072,qs),
(202,470,ls),
(202,321,o),
(319,96,o),
(555,-27,o),
(729,-27,qs),
(874,-27,o)
);
}
);
width = 1451;
},
{
layerId = "9613C2D5-9CC0-4B03-8E94-AFF45D3AC865";
shapes = (
{
closed = 1;
nodes = (
(1119,112,o),
(1260,359,o),
(1260,519,qs),
(1260,647,o),
(1264,890,o),
(1270,1033,qs),
(1274,1107,o),
(1327,1192,o),
(1395,1211,qs),
(1446,1227,o),
(1446,1254,qs),
(1446,1272,o),
(1419,1284,o),
(1397,1284,qs),
(1356,1284,o),
(1303,1280,o),
(1254,1276,o),
(1217,1276,qs),
(1170,1276,o),
(1096,1282,o),
(1019,1282,qs),
(992,1282,o),
(960,1268,o),
(960,1252,qs),
(960,1233,o),
(1019,1215,o),
(1041,1203,qs),
(1080,1184,o),
(1125,1131,o),
(1148,1031,o),
(1150,935,qs),
(1152,878,o),
(1150,749,o),
(1148,623,o),
(1148,570,qs),
(1148,357,o),
(976,159,o),
(804,159,qs),
(723,159,o),
(588,237,o),
(506,404,o),
(506,533,qs),
(506,1039,ls),
(506,1105,o),
(547,1178,o),
(578,1192,qs),
(610,1207,o),
(674,1229,o),
(674,1252,qs),
(674,1268,o),
(647,1282,o),
(623,1282,qs),
(562,1282,o),
(392,1274,o),
(335,1274,qs),
(276,1274,o),
(131,1284,o),
(67,1284,qs),
(45,1284,o),
(16,1268,o),
(16,1254,qs),
(16,1225,o),
(69,1211,qs),
(122,1197,o),
(171,1101,o),
(171,1050,qs),
(171,502,ls),
(171,343,o),
(296,106,o),
(545,-27,o),
(731,-27,qs),
(878,-27,o)
);
}
);
width = 1557;
}
);
note = U;
unicode = 85;
}
{
glyphname = V;
kernLeft = V;
kernRight = V;
layers = (
{
background = {
shapes = (
{
closed = 1;
nodes = (
(-7,1253,qs),
(-3,1251,o),
(32,1243,qs),
(131,1220,o),
(164,1195,o),
(197,1133,q),
(503,439,ls),
(578,271,o),
(697,-37,q),
(710,-39,o),
(721,-39,qs),
(730,-39,o),
(743,-31,q),
(772,56,ls),
(824,217,o),
(947,510,qs),
(1210,1160,l),
(1232,1204,o),
(1272,1231,o),
(1356,1241,qs),
(1376,1243,o),
(1400,1251,q),
(1406,1264,o),
(1406,1272,qs),
(1405,1280,l),
(1385,1287,o),
(1331,1287,qs),
(1224,1287,l),
(900,1284,l),
(897,1276,l),
(897,1269,o),
(906,1259,q),
(980,1250,ls),
(1046,1242,o),
(1058,1238,qs),
(1088,1228,o),
(1115,1197,o),
(1115,1182,qs),
(1115,1112,o),
(1018,847,q),
(1009,813,o),
(1007,807,qs),
(938,619,ls),
(885,479,o),
(833,355,qs),
(766,191,l),
(759,208,o),
(751,229,qs),
(676,423,o),
(599,609,qs),
(546,726,l),
(394,1079,ls),
(361,1157,o),
(361,1196,qs),
(361,1214,o),
(374,1225,qs),
(394,1240,o),
(522,1251,o),
(550,1250,qs),
(558,1250,ls),
(582,1250,o),
(588,1260,q),
(590,1276,l),
(587,1282,o),
(581,1285,q),
(551,1286,o),
(487,1287,o),
(453,1287,qs),
(283,1287,o),
(218,1284,qs),
(200,1283,o),
(185,1283,qs),
(152,1283,ls),
(71,1285,o),
(-10,1285,q),
(-17,1268,l),
(-14,1258,o)
);
}
);
};
layerId = m01;
shapes = (
{
closed = 1;
nodes = (
(641,-16,o),
(643,-10,qs),
(655,14,o),
(678,84,o),
(700,145,o),
(704,155,qs),
(1072,1048,ls),
(1094,1101,o),
(1192,1203,o),
(1264,1219,qs),
(1297,1227,o),
(1329,1244,o),
(1329,1258,qs),
(1329,1270,o),
(1297,1280,o),
(1272,1280,qs),
(1235,1280,o),
(1105,1274,o),
(1048,1274,qs),
(1011,1274,o),
(943,1276,o),
(880,1276,o),
(854,1276,qs),
(829,1276,o),
(798,1266,o),
(798,1254,qs),
(798,1241,o),
(833,1219,o),
(862,1215,qs),
(925,1207,o),
(994,1111,o),
(954,1007,qs),
(686,302,ls),
(680,288,o),
(668,292,o),
(664,300,qs),
(382,1045,ls),
(378,1058,o),
(361,1107,o),
(361,1141,qs),
(361,1174,o),
(433,1211,o),
(488,1217,qs),
(521,1221,o),
(553,1243,o),
(553,1256,qs),
(553,1268,o),
(521,1278,o),
(496,1278,qs),
(476,1278,o),
(412,1276,o),
(335,1274,o),
(296,1274,qs),
(251,1274,o),
(165,1276,o),
(88,1280,o),
(57,1280,qs),
(31,1280,o),
(0,1270,o),
(0,1258,qs),
(0,1244,o),
(33,1225,o),
(65,1215,qs),
(116,1201,o),
(182,1127,o),
(202,1072,qs),
(561,110,ls),
(570,84,o),
(594,12,o),
(602,-10,qs),
(608,-24,o),
(623,-24,qs),
(629,-24,o)
);
}
);
width = 1387;
},
{
layerId = "9613C2D5-9CC0-4B03-8E94-AFF45D3AC865";
shapes = (
{
closed = 1;
nodes = (
(739,-20,o),
(747,0,qs),
(768,45,o),
(811,139,o),
(866,261,o),
(903,347,qs),
(1186,1019,ls),
(1225,1113,o),
(1297,1199,o),
(1356,1215,qs),
(1374,1221,o),
(1407,1235,o),
(1407,1254,qs),
(1407,1274,o),
(1370,1288,o),
(1348,1288,qs),
(1288,1288,o),
(1192,1276,o),
(1135,1276,qs),
(1096,1276,o),
(1045,1278,o),
(992,1282,o),
(949,1282,qs),
(929,1282,o),
(892,1268,o),
(892,1254,qs),
(892,1237,o),
(931,1215,o),
(951,1211,qs),
(1043,1197,o),
(1084,1066,o),
(1045,966,qs),
(825,388,ls),
(819,368,o),
(809,372,o),
(805,386,qs),
(559,1088,l),
(557,1099,o),
(551,1125,o),
(551,1133,qs),
(551,1166,o),
(602,1197,o),
(660,1211,qs),
(678,1215,o),
(715,1237,o),
(715,1254,qs),
(715,1268,o),
(678,1284,o),
(662,1284,qs),
(619,1284,o),
(496,1280,o),
(374,1274,o),
(335,1274,qs),
(298,1274,o),
(188,1278,o),
(78,1282,o),
(37,1282,qs),
(24,1282,o),
(0,1268,o),
(0,1252,qs),
(0,1233,o),
(25,1217,o),
(43,1211,qs),
(102,1195,o),
(167,1125,o),
(186,1080,qs),
(576,180,l),
(592,135,o),
(637,31,o),
(651,0,qs),
(666,-35,o),
(696,-35,qs),
(717,-35,o)
);
}
);
width = 1365;
}
);
note = V;
unicode = 86;
}
{
glyphname = W;
kernLeft = V;
kernRight = V;
layers = (
{
background = {
shapes = (
{
closed = 1;
nodes = (
(80,1216,o),
(98,1187,q),
(144,1077,o),
(154,1046,qs),
(160,1026,o),
(167,1007,qs),
(176,981,o),
(188,952,qs),
(306,654,l),
(440,340,l),
(602,-56,l),
(645,-55,l),
(675,-16,o),
(723,85,qs),
(801,243,ls),
(873,403,o),
(924,500,qs),
(936,520,l),
(1027,347,o),
(1141,85,qs),
(1185,-18,o),
(1198,-55,q),
(1211,-56,o),
(1218,-56,qs),
(1226,-56,o),
(1242,-54,q),
(1285,60,l),
(1393,360,l),
(1472,559,o),
(1538,741,qs),
(1549,770,l),
(1565,810,ls),
(1578,841,o),
(1582,853,qs),
(1596,896,o),
(1609,922,q),
(1669,1096,o),
(1672,1102,qs),
(1698,1164,o),
(1717,1192,o),
(1752,1216,o),
(1824,1244,q),
(1826,1258,o),
(1826,1265,qs),
(1825,1275,l),
(1795,1277,l),
(1720,1277,l),
(1633,1276,l),
(1556,1278,ls),
(1545,1278,o),
(1503,1276,q),
(1502,1269,ls),
(1502,1262,o),
(1505,1250,q),
(1513,1244,o),
(1521,1241,q),
(1606,1221,o),
(1634,1198,o),
(1634,1184,qs),
(1634,1179,o),
(1631,1168,qs),
(1628,1152,ls),
(1617,1099,o),
(1599,1042,qs),
(1483,712,l),
(1406,518,ls),
(1374,437,o),
(1342,364,q),
(1281,205,l),
(1279,200,l),
(1264,152,l),
(1241,214,o),
(1172,360,o),
(1165,376,qs),
(1062,615,ls),
(1036,673,o),
(1025,699,q),
(1066,794,l),
(1085,832,o),
(1092,855,q),
(1109,892,o),
(1135,966,q),
(1208,1128,l),
(1228,1163,o),
(1253,1182,qs),
(1291,1209,o),
(1367,1222,qs),
(1397,1227,o),
(1414,1241,o),
(1414,1252,qs),
(1414,1259,o),
(1406,1267,q),
(1390,1271,o),
(1382,1272,q),
(1312,1271,l),
(1270,1272,l),
(1202,1272,l),
(1078,1279,o),
(1063,1277,qs),
(1055,1276,o),
(1045,1268,q),
(1040,1257,o),
(1040,1251,qs),
(1041,1243,l),
(1059,1235,l),
(1080,1232,ls),
(1125,1228,o),
(1138,1216,qs),
(1155,1199,o),
(1155,1178,qs),
(1155,1139,o),
(1121,1057,qs),
(1040,859,o),
(993,767,q),
(891,998,ls),
(814,1180,o),
(814,1199,qs),
(814,1209,o),
(833,1221,o),
(892,1228,qs),
(933,1232,o),
(949,1238,q),
(953,1247,o),
(953,1254,qs),
(953,1262,o),
(939,1275,o),
(925,1275,qs),
(909,1274,ls),
(891,1275,o),
(882,1275,qs),
(788,1270,l),
(736,1270,l),
(687,1269,l),
(632,1269,l),
(600,1268,l),
(537,1270,ls),
(524,1270,o),
(492,1269,q),
(485,1264,o),
(483,1255,q),
(483,1243,o),
(491,1234,q),
(512,1229,l),
(600,1224,o),
(636,1198,o),
(675,1108,qs),
(694,1065,o),
(728,992,qs),
(900,602,l),
(908,582,l),
(891,529,o),
(823,389,qs),
(736,207,o),
(691,134,q),
(682,152,o),
(679,160,qs),
(622,290,o),
(607,329,qs),
(564,442,o),
(536,505,qs),
(527,525,o),
(501,594,qs),
(351,970,l),
(288,1146,ls),
(281,1165,o),
(273,1182,qs),
(267,1195,o),
(267,1201,qs),
(267,1206,o),
(271,1216,q),
(283,1220,o),
(290,1221,qs),
(387,1225,l),
(389,1242,o),
(389,1251,qs),
(389,1257,o),
(388,1269,q),
(361,1273,o),
(230,1273,qs),
(206,1272,l),
(152,1273,l),
(59,1274,ls),
(-6,1274,o),
(-20,1256,q),
(-19,1240,l),
(0,1232,o)
);
}
);
};
layerId = m01;
shapes = (
{
closed = 1;
nodes = (
(692,10,o),
(700,29,qs),
(741,145,o),
(807,323,o),
(876,496,o),
(923,608,qs),
(931,627,o),
(939,633,o),
(945,619,qs),
(992,506,o),
(1060,317,o),
(1135,131,o),
(1186,14,qs),
(1192,0,o),
(1211,-24,o),
(1219,-24,qs),
(1229,-24,o),
(1248,14,o),
(1250,22,qs),
(1597,1047,ls),
(1609,1076,o),
(1646,1148,o),
(1711,1209,o),
(1758,1219,qs),
(1791,1227,o),
(1823,1244,o),
(1823,1258,qs),
(1823,1270,o),
(1791,1280,o),
(1766,1280,qs),
(1729,1280,o),
(1638,1274,o),
(1589,1274,qs),
(1552,1274,o),
(1487,1276,o),
(1448,1276,qs),
(1423,1276,o),
(1391,1266,o),
(1391,1254,qs),
(1391,1241,o),
(1437,1221,o),
(1456,1215,qs),
(1489,1207,o),
(1515,1160,o),
(1515,1131,qs),
(1515,1115,o),
(1509,1078,o),
(1503,1060,qs),
(1437,835,o),
(1313,431,o),
(1264,302,qs),
(1258,288,o),
(1246,280,o),
(1243,290,qs),
(1041,809,ls),
(1037,819,o),
(1047,870,o),
(1052,884,qs),
(1068,927,o),
(1109,1025,o),
(1146,1107,o),
(1156,1125,qs),
(1182,1166,o),
(1227,1205,o),
(1290,1219,qs),
(1323,1227,o),
(1354,1244,o),
(1354,1258,qs),
(1354,1270,o),
(1323,1280,o),
(1297,1280,qs),
(1262,1280,o),
(1215,1274,o),
(1182,1274,qs),
(1154,1274,o),
(1123,1278,o),
(1080,1278,qs),
(1054,1278,o),
(1023,1268,o),
(1023,1256,qs),
(1023,1241,o),
(1060,1219,o),
(1096,1195,o),
(1096,1172,qs),
(1096,1164,o),
(1094,1158,qs),
(1090,1143,o),
(1064,1062,o),
(1031,972,o),
(1015,937,qs),
(1003,911,o),
(990,913,o),
(980,937,qs),
(974,951,o),
(947,1015,o),
(917,1090,o),
(896,1150,o),
(892,1158,qs),
(890,1162,o),
(888,1170,o),
(888,1174,qs),
(888,1197,o),
(929,1221,o),
(968,1241,o),
(968,1256,qs),
(968,1268,o),
(937,1278,o),
(911,1278,qs),
(882,1278,o),
(805,1274,o),
(760,1274,qs),
(725,1274,o),
(664,1276,o),
(608,1280,o),
(576,1280,qs),
(551,1280,o),
(519,1270,o),
(519,1258,qs),
(519,1244,o),
(553,1225,o),
(584,1215,qs),
(635,1201,o),
(745,1117,o),
(770,1054,qs),
(882,776,ls),
(890,756,o),
(898,731,o),
(898,719,qs),
(898,711,o),
(892,690,o),
(886,674,qs),
(733,296,ls),
(727,280,o),
(713,276,o),
(704,298,qs),
(655,410,o),
(574,592,o),
(502,766,o),
(427,954,o),
(382,1068,q),
(382,1068,o),
(366,1121,o),
(366,1152,qs),
(366,1174,o),
(382,1211,o),
(406,1217,qs),
(439,1227,o),
(470,1243,o),
(470,1256,qs),
(470,1268,o),
(439,1278,o),
(414,1278,qs),
(384,1278,o),
(286,1274,o),
(231,1274,qs),
(182,1274,o),
(102,1280,o),
(57,1280,qs),
(31,1280,o),
(0,1270,o),
(0,1258,qs),
(0,1244,o),
(33,1225,o),
(65,1215,qs),
(116,1201,o),
(182,1137,o),
(206,1086,q),
(629,24,ls),
(637,4,o),
(653,-31,o),
(657,-31,qs),
(668,-31,o)
);
}
);
width = 1813;
},
{
layerId = "9613C2D5-9CC0-4B03-8E94-AFF45D3AC865";
shapes = (
{
closed = 1;
nodes = (
(776,-10,o),
(784,10,q),
(825,80,o),
(911,235,o),
(996,388,o),
(1033,459,qs),
(1039,470,o),
(1056,472,o),
(1062,459,qs),
(1119,337,o),
(1203,159,o),
(1264,43,o),
(1280,8,qs),
(1290,-12,o),
(1311,-29,o),
(1329,-29,qs),
(1344,-29,o),
(1362,-14,o),
(1370,6,qs),
(1850,1086,ls),
(1864,1117,o),
(1899,1166,o),
(1952,1205,o),
(1991,1215,qs),
(2009,1221,o),
(2052,1235,o),
(2052,1254,qs),
(2052,1274,o),
(2011,1288,o),
(1983,1288,qs),
(1925,1288,o),
(1864,1278,o),
(1834,1276,qs),
(1809,1274,o),
(1762,1282,o),
(1699,1282,qs),
(1680,1282,o),
(1642,1268,o),
(1642,1254,qs),
(1642,1237,o),
(1682,1215,o),
(1701,1211,qs),
(1727,1205,o),
(1754,1178,o),
(1756,1158,qs),
(1758,1148,o),
(1752,1111,o),
(1731,1056,qs),
(1676,919,o),
(1525,566,o),
(1446,392,qs),
(1442,382,o),
(1429,370,o),
(1421,390,qs),
(1282,700,ls),
(1270,729,o),
(1264,778,o),
(1276,804,qs),
(1297,847,o),
(1344,945,o),
(1393,1041,o),
(1415,1082,qs),
(1438,1127,o),
(1495,1195,o),
(1554,1211,qs),
(1572,1217,o),
(1605,1231,o),
(1605,1250,qs),
(1605,1270,o),
(1568,1284,o),
(1546,1284,qs),
(1486,1284,o),
(1427,1276,o),
(1397,1274,qs),
(1370,1274,o),
(1335,1280,o),
(1280,1280,qs),
(1248,1280,o),
(1239,1264,o),
(1239,1250,qs),
(1239,1229,o),
(1288,1207,o),
(1339,1182,o),
(1339,1150,qs),
(1339,1127,o),
(1329,1107,qs),
(1319,1086,o),
(1286,998,o),
(1250,909,o),
(1239,884,qs),
(1231,868,o),
(1217,854,o),
(1203,884,qs),
(1194,905,o),
(1168,972,o),
(1141,1045,o),
(1117,1109,o),
(1109,1129,qs),
(1099,1156,o),
(1113,1203,o),
(1154,1211,qs),
(1178,1217,o),
(1209,1227,o),
(1223,1243,o),
(1223,1254,qs),
(1223,1268,o),
(1188,1282,o),
(1156,1282,qs),
(1092,1282,o),
(962,1274,o),
(903,1274,qs),
(866,1274,o),
(756,1278,o),
(647,1282,o),
(606,1282,qs),
(592,1282,o),
(568,1268,o),
(568,1252,qs),
(568,1233,o),
(594,1217,o),
(611,1211,qs),
(670,1195,o),
(743,1131,o),
(760,1086,q),
(982,623,ls),
(986,613,o),
(992,598,o),
(992,590,qs),
(992,582,o),
(984,564,o),
(978,555,qs),
(880,388,ls),
(868,365,o),
(856,368,o),
(847,390,qs),
(811,480,o),
(735,658,o),
(658,837,o),
(580,1013,o),
(543,1101,q),
(541,1109,o),
(533,1145,o),
(533,1152,qs),
(533,1174,o),
(545,1203,o),
(578,1211,qs),
(608,1217,o),
(641,1235,o),
(641,1254,qs),
(641,1268,o),
(606,1284,o),
(580,1284,qs),
(515,1284,o),
(388,1274,o),
(329,1274,qs),
(272,1274,o),
(112,1282,o),
(49,1282,qs),
(35,1282,o),
(0,1268,o),
(0,1252,qs),
(0,1233,o),
(37,1217,o),
(55,1211,qs),
(114,1195,o),
(167,1131,o),
(186,1086,qs),
(696,16,ls),
(706,-4,o),
(721,-33,o),
(741,-33,qs),
(758,-33,o)
);
}
);
width = 1835;
}
);
note = W;
unicode = 87;
}
{
glyphname = X;
kernLeft = X;
kernRight = X;
layers = (
{
background = {
shapes = (
{
closed = 1;
nodes = (
(42,-11,qs),
(49,-11,o),
(83,-8,qs),
(148,-1,o),
(209,-1,qs),
(282,-1,o),
(466,-6,q),
(569,-20,o),
(590,-20,qs),
(621,-19,l),
(622,-10,o),
(622,-5,qs),
(622,2,o),
(620,15,q),
(456,40,o),
(429,54,qs),
(390,73,o),
(390,110,qs),
(390,139,o),
(410,177,qs),
(424,205,o),
(566,392,qs),
(675,536,o),
(689,546,q),
(736,488,o),
(967,169,o),
(1005,103,qs),
(1013,90,o),
(1019,70,q),
(1011,50,o),
(994,44,q),
(883,22,l),
(826,17,l),
(821,6,o),
(821,1,qs),
(821,-5,o),
(826,-17,q),
(840,-19,o),
(850,-19,qs),
(858,-19,o),
(920,-13,q),
(1097,-6,l),
(1197,-8,ls),
(1301,-9,o),
(1365,-17,qs),
(1399,-21,o),
(1414,-21,qs),
(1448,-20,l),
(1449,-10,ls),
(1449,0,o),
(1442,17,q),
(1343,26,o),
(1273,50,o),
(1247,75,qs),
(1205,115,o),
(1110,246,qs),
(812,646,l),
(798,664,ls),
(791,672,o),
(788,680,q),
(813,717,o),
(838,749,qs),
(882,804,o),
(897,825,qs),
(974,935,o),
(1142,1138,o),
(1174,1164,qs),
(1190,1177,o),
(1254,1209,q),
(1377,1252,l),
(1375,1272,l),
(1360,1275,l),
(1258,1277,l),
(1069,1277,l),
(873,1274,l),
(871,1263,l),
(871,1254,o),
(879,1238,q),
(886,1234,o),
(895,1231,q),
(909,1230,o),
(989,1213,qs),
(1026,1206,o),
(1054,1177,o),
(1054,1158,qs),
(1054,1144,o),
(1038,1108,o),
(889,884,qs),
(822,783,o),
(763,712,q),
(590,940,ls),
(483,1082,o),
(455,1144,qs),
(450,1155,o),
(450,1164,qs),
(450,1173,o),
(455,1189,q),
(465,1200,o),
(514,1219,o),
(631,1235,o),
(649,1242,q),
(650,1249,ls),
(650,1256,o),
(645,1269,q),
(619,1273,o),
(607,1273,qs),
(593,1273,o),
(569,1269,qs),
(527,1260,o),
(502,1260,qs),
(417,1260,o),
(369,1263,qs),
(201,1272,l),
(134,1277,l),
(107,1277,ls),
(90,1277,o),
(19,1274,q),
(17,1263,l),
(17,1252,o),
(23,1234,q),
(40,1231,o),
(78,1228,qs),
(180,1219,o),
(192,1210,qs),
(228,1184,o),
(505,788,o),
(659,588,q),
(580,468,o),
(422,292,qs),
(359,223,o),
(344,204,qs),
(310,160,o),
(250,99,qs),
(219,69,o),
(201,59,qs),
(189,52,o),
(103,32,q),
(35,24,o),
(14,17,q),
(10,-10,l),
(28,-11,o)
);
}
);
};
layerId = m01;
shapes = (
{
closed = 1;
nodes = (
(227,2,o),
(294,2,qs),
(347,2,o),
(443,-2,o),
(468,-2,qs),
(494,-2,o),
(525,8,o),
(525,20,qs),
(525,33,o),
(494,51,o),
(461,59,qs),
(421,69,o),
(372,110,o),
(372,137,qs),
(372,147,o),
(382,171,o),
(390,182,qs),
(655,523,ls),
(664,537,o),
(684,535,o),
(698,513,qs),
(902,218,ls),
(915,200,o),
(925,169,o),
(925,153,qs),
(925,116,o),
(868,71,o),
(839,61,qs),
(819,55,o),
(774,35,o),
(774,22,qs),
(774,10,o),
(805,0,o),
(831,0,qs),
(866,0,o),
(972,2,o),
(1033,2,qs),
(1080,2,o),
(1188,-4,o),
(1286,-10,o),
(1313,-10,qs),
(1339,-10,o),
(1370,0,o),
(1370,12,qs),
(1370,25,o),
(1339,43,o),
(1305,51,qs),
(1250,67,o),
(1141,153,o),
(1096,218,qs),
(792,655,l),
(782,676,o),
(794,702,o),
(819,733,qs),
(1045,1000,ls),
(1109,1076,o),
(1244,1211,o),
(1299,1225,qs),
(1333,1235,o),
(1364,1250,o),
(1364,1264,qs),
(1364,1276,o),
(1333,1286,o),
(1307,1286,qs),
(1268,1286,o),
(1141,1274,o),
(1084,1274,qs),
(1054,1274,o),
(1000,1276,o),
(949,1276,o),
(925,1276,qs),
(900,1276,o),
(868,1266,o),
(868,1254,qs),
(868,1241,o),
(913,1219,o),
(933,1215,qs),
(980,1207,o),
(1021,1176,o),
(1021,1154,qs),
(1021,1135,o),
(994,1084,o),
(970,1054,qs),
(760,778,ls),
(745,756,o),
(723,753,o),
(702,784,qs),
(523,1035,ls),
(459,1125,o),
(459,1156,qs),
(459,1180,o),
(510,1203,o),
(559,1217,qs),
(592,1227,o),
(623,1243,o),
(623,1256,qs),
(623,1268,o),
(592,1278,o),
(566,1278,qs),
(541,1278,o),
(431,1274,o),
(372,1274,qs),
(300,1274,o),
(141,1284,o),
(92,1284,qs),
(67,1284,o),
(35,1274,o),
(35,1262,qs),
(35,1248,o),
(69,1229,o),
(100,1219,qs),
(133,1209,o),
(200,1178,o),
(278,1105,o),
(327,1037,qs),
(590,668,ls),
(617,629,o),
(602,576,o),
(580,549,qs),
(335,243,ls),
(294,192,o),
(188,114,o),
(88,65,o),
(55,55,qs),
(24,45,o),
(-10,25,o),
(-10,12,qs),
(-10,0,o),
(22,-10,o),
(47,-10,qs),
(96,-10,o)
);
}
);
width = 1429;
},
{
layerId = "9613C2D5-9CC0-4B03-8E94-AFF45D3AC865";
shapes = (
{
closed = 1;
nodes = (
(202,-2,o),
(259,-2,qs),
(290,-2,o),
(400,-8,o),
(464,-8,qs),
(486,-8,o),
(521,6,o),
(521,20,qs),
(521,37,o),
(482,61,o),
(463,63,qs),
(421,69,o),
(376,106,o),
(372,131,qs),
(370,145,o),
(380,202,o),
(410,245,qs),
(576,492,ls),
(606,537,o),
(647,525,o),
(672,486,qs),
(888,184,ls),
(896,172,o),
(903,153,o),
(903,143,qs),
(903,110,o),
(825,78,o),
(786,69,qs),
(768,65,o),
(731,43,o),
(731,25,qs),
(731,12,o),
(768,-4,o),
(784,-4,qs),
(847,-4,o),
(964,2,o),
(1023,2,qs),
(1090,4,o),
(1211,-4,o),
(1348,-10,o),
(1431,-10,qs),
(1452,-10,o),
(1480,6,o),
(1480,20,qs),
(1480,39,o),
(1427,67,o),
(1409,71,qs),
(1376,80,o),
(1309,141,o),
(1282,180,qs),
(949,651,ls),
(923,686,o),
(925,733,o),
(947,758,qs),
(1225,1105,ls),
(1254,1143,o),
(1344,1201,o),
(1386,1215,qs),
(1403,1221,o),
(1442,1235,o),
(1442,1254,qs),
(1442,1274,o),
(1399,1288,o),
(1378,1288,qs),
(1317,1288,o),
(1241,1274,o),
(1184,1274,qs),
(1145,1274,o),
(1096,1278,o),
(1045,1282,o),
(1001,1282,qs),
(976,1282,o),
(939,1268,o),
(939,1254,qs),
(939,1237,o),
(978,1217,o),
(998,1211,qs),
(1045,1197,o),
(1084,1162,o),
(1084,1135,qs),
(1084,1115,o),
(1064,1062,o),
(1037,1025,qs),
(886,813,ls),
(866,788,o),
(835,794,o),
(817,817,qs),
(629,1074,ls),
(604,1107,o),
(604,1131,qs),
(604,1164,o),
(662,1197,o),
(723,1211,qs),
(741,1215,o),
(778,1237,o),
(778,1254,qs),
(778,1268,o),
(741,1284,o),
(725,1284,qs),
(653,1284,o),
(527,1270,o),
(463,1270,qs),
(366,1268,o),
(171,1282,o),
(73,1282,qs),
(59,1282,o),
(35,1268,o),
(35,1252,qs),
(35,1233,o),
(61,1217,o),
(78,1211,qs),
(118,1201,o),
(171,1162,o),
(210,1113,o),
(227,1086,qs),
(510,690,ls),
(537,653,o),
(537,584,o),
(512,551,qs),
(274,243,ls),
(229,184,o),
(153,112,o),
(80,71,o),
(41,59,qs),
(24,53,o),
(-10,39,o),
(-10,20,qs),
(-10,0,o),
(27,-14,o),
(49,-14,qs),
(112,-14,o)
);
}
);
width = 1408;
}
);
note = X;
unicode = 88;
}
{
glyphname = Y;
kernLeft = Y;
kernRight = Y;
layers = (
{
background = {
shapes = (
{
closed = 1;
nodes = (
(-1,1244,o),
(7,1244,qs),
(83,1237,o),
(102,1224,qs),
(145,1195,o),
(203,1110,qs),
(426,785,l),
(557,586,ls),
(593,532,o),
(606,489,o),
(606,392,qs),
(606,132,o),
(605,114,qs),
(602,89,o),
(590,77,qs),
(582,69,o),
(515,47,q),
(386,27,ls),
(379,26,o),
(372,20,q),
(369,11,o),
(369,6,qs),
(369,1,o),
(373,-10,q),
(397,-11,o),
(417,-11,qs),
(557,-11,l),
(728,-2,l),
(984,-13,l),
(991,4,o),
(991,16,qs),
(991,28,l),
(810,46,o),
(784,59,qs),
(774,65,o),
(768,93,qs),
(757,149,o),
(757,460,qs),
(757,539,o),
(768,578,qs),
(773,594,o),
(799,628,qs),
(813,646,o),
(836,683,qs),
(907,796,o),
(1113,1072,o),
(1260,1227,q),
(1272,1236,o),
(1293,1244,q),
(1306,1245,o),
(1312,1246,qs),
(1336,1249,ls),
(1351,1250,o),
(1358,1252,q),
(1361,1287,l),
(1325,1288,o),
(1319,1288,qs),
(1168,1285,l),
(980,1290,l),
(928,1289,l),
(927,1282,o),
(927,1276,qs),
(927,1268,o),
(934,1256,q),
(946,1254,o),
(953,1253,qs),
(1056,1243,o),
(1087,1222,qs),
(1106,1209,o),
(1106,1188,qs),
(1106,1179,o),
(1104,1171,qs),
(1100,1155,o),
(1078,1121,qs),
(912,872,l),
(768,665,ls),
(742,628,o),
(727,609,q),
(575,839,ls),
(552,872,o),
(531,908,qs),
(478,998,o),
(431,1064,qs),
(398,1109,o),
(378,1143,qs),
(367,1159,o),
(362,1167,qs),
(348,1187,o),
(348,1200,qs),
(348,1212,o),
(364,1223,qs),
(385,1238,o),
(419,1238,qs),
(448,1237,l),
(504,1238,l),
(515,1238,l),
(540,1250,l),
(540,1261,ls),
(540,1270,o),
(533,1278,q),
(510,1282,o),
(485,1282,qs),
(368,1280,ls),
(278,1280,o),
(142,1286,qs),
(54,1289,o),
(28,1289,qs),
(-20,1289,l),
(-17,1246,l)
);
}
);
};
layerId = m01;
shapes = (
{
closed = 1;
nodes = (
(486,-4,o),
(559,0,o),
(608,0,qs),
(653,0,o),
(715,-4,o),
(784,-10,o),
(837,-10,qs),
(862,-10,o),
(894,0,o),
(894,12,qs),
(894,25,o),
(862,41,o),
(829,47,qs),
(756,61,o),
(674,145,o),
(674,212,qs),
(674,510,ls),
(674,549,o),
(678,594,o),
(698,645,o),
(723,686,qs),
(756,741,o),
(804,817,o),
(849,888,o),
(902,970,o),
(941,1031,qs),
(994,1111,o),
(1062,1195,o),
(1113,1209,qs),
(1154,1221,o),
(1217,1244,o),
(1217,1258,qs),
(1217,1270,o),
(1186,1280,o),
(1160,1280,qs),
(1127,1280,o),
(1017,1274,o),
(956,1274,qs),
(913,1274,o),
(854,1276,o),
(809,1276,qs),
(784,1276,o),
(753,1266,o),
(753,1254,qs),
(753,1241,o),
(798,1219,o),
(817,1215,qs),
(845,1211,o),
(898,1184,o),
(898,1146,qs),
(898,1129,o),
(882,1080,o),
(862,1047,qs),
(813,958,o),
(743,833,o),
(698,764,qs),
(672,723,o),
(645,690,o),
(633,690,qs),
(617,690,o),
(578,764,qs),
(398,1097,ls),
(372,1143,o),
(372,1168,qs),
(372,1190,o),
(408,1209,o),
(435,1217,qs),
(468,1225,o),
(500,1243,o),
(500,1256,qs),
(500,1268,o),
(468,1278,o),
(443,1278,qs),
(412,1278,o),
(331,1274,o),
(286,1274,qs),
(219,1274,o),
(102,1280,o),
(57,1280,qs),
(31,1280,o),
(0,1270,o),
(0,1258,qs),
(0,1244,o),
(33,1225,o),
(65,1215,qs),
(98,1205,o),
(167,1131,o),
(225,1047,o),
(239,1023,qs),
(468,647,ls),
(476,633,o),
(517,541,o),
(517,502,qs),
(517,212,ls),
(517,141,o),
(439,61,o),
(365,47,qs),
(331,41,o),
(300,25,o),
(300,12,qs),
(300,0,o),
(331,-10,o),
(357,-10,qs),
(410,-10,o)
);
}
);
width = 1344;
},
{
layerId = "9613C2D5-9CC0-4B03-8E94-AFF45D3AC865";
shapes = (
{
closed = 1;
nodes = (
(533,-2,o),
(637,6,o),
(676,6,qs),
(715,6,o),
(827,-2,o),
(941,-10,o),
(982,-10,qs),
(1003,-10,o),
(1033,10,o),
(1033,24,qs),
(1033,43,o),
(998,59,o),
(976,65,qs),
(900,86,o),
(847,143,o),
(847,218,qs),
(847,502,ls),
(847,543,o),
(862,611,o),
(888,670,o),
(902,696,qs),
(931,747,o),
(992,845,o),
(1052,943,o),
(1115,1043,o),
(1145,1092,qs),
(1168,1133,o),
(1254,1199,o),
(1313,1215,qs),
(1331,1221,o),
(1364,1235,o),
(1364,1254,qs),
(1364,1274,o),
(1327,1288,o),
(1305,1288,qs),
(1246,1288,o),
(1156,1272,o),
(1107,1272,qs),
(1052,1272,o),
(954,1282,o),
(896,1282,qs),
(876,1282,o),
(839,1268,o),
(839,1254,qs),
(839,1237,o),
(878,1213,o),
(898,1211,qs),
(939,1209,o),
(1009,1168,o),
(1009,1129,qs),
(1009,1111,o),
(998,1070,o),
(990,1054,qs),
(949,964,o),
(862,798,o),
(815,713,qs),
(807,702,o),
(794,688,o),
(786,688,qs),
(768,688,o),
(755,713,qs),
(549,1064,ls),
(527,1101,o),
(527,1133,qs),
(527,1166,o),
(578,1197,o),
(637,1211,qs),
(655,1215,o),
(692,1237,o),
(692,1254,qs),
(692,1268,o),
(655,1284,o),
(639,1284,qs),
(566,1284,o),
(443,1270,o),
(374,1270,qs),
(286,1270,o),
(129,1282,o),
(37,1282,qs),
(24,1282,o),
(0,1268,o),
(0,1252,qs),
(0,1233,o),
(25,1217,o),
(43,1211,qs),
(82,1201,o),
(135,1162,o),
(174,1113,o),
(192,1086,qs),
(449,692,ls),
(476,647,o),
(513,557,o),
(513,482,qs),
(513,216,ls),
(513,155,o),
(459,80,o),
(384,65,qs),
(363,61,o),
(327,39,o),
(327,22,qs),
(327,8,o),
(357,-12,o),
(382,-12,qs),
(425,-12,o)
);
}
);
width = 1344;
}
);
note = Y;
unicode = 89;
}
{
glyphname = Z;
kernRight = Z;
layers = (
{
background = {
shapes = (
{
closed = 1;
nodes = (
(96,-15,qs),
(102,-15,o),
(134,-11,qs),
(227,2,o),
(281,2,qs),
(297,2,o),
(325,0,qs),
(378,-3,o),
(386,-3,qs),
(550,0,l),
(867,-7,l),
(1125,-3,ls),
(1153,-3,o),
(1194,-5,qs),
(1202,-5,o),
(1238,-2,q),
(1243,22,o),
(1243,49,qs),
(1241,111,l),
(1244,179,ls),
(1247,266,o),
(1247,316,qs),
(1247,334,o),
(1245,356,q),
(1241,359,l),
(1227,359,o),
(1216,349,q),
(1212,333,o),
(1205,302,qs),
(1175,163,o),
(1019,44,o),
(826,44,qs),
(774,44,o),
(687,45,qs),
(298,48,l),
(305,59,o),
(310,65,q),
(334,101,o),
(404,191,qs),
(606,458,l),
(751,649,ls),
(817,735,o),
(830,751,qs),
(853,780,o),
(895,837,qs),
(1082,1087,ls),
(1091,1100,o),
(1131,1148,qs),
(1207,1241,o),
(1207,1257,q),
(1206,1264,l),
(1185,1271,o),
(1166,1271,qs),
(1066,1266,l),
(858,1260,l),
(624,1254,l),
(570,1254,ls),
(501,1251,o),
(483,1249,qs),
(437,1244,o),
(392,1244,qs),
(285,1244,o),
(235,1277,o),
(235,1308,qs),
(235,1319,o),
(243,1346,q),
(230,1346,ls),
(222,1346,o),
(211,1343,q),
(202,1324,o),
(183,1264,o),
(160,1200,q),
(128,1082,o),
(92,991,o),
(89,971,q),
(106,973,l),
(126,986,o),
(159,1042,qs),
(184,1084,o),
(225,1127,qs),
(257,1160,o),
(281,1171,qs),
(326,1191,o),
(520,1201,o),
(635,1212,o),
(642,1212,qs),
(817,1215,o),
(896,1218,o),
(922,1218,qs),
(947,1218,o),
(983,1216,q),
(975,1203,o),
(968,1192,q),
(637,751,l),
(253,240,l),
(197,161,l),
(166,124,o),
(160,115,qs),
(140,86,o),
(72,13,q),
(74,-12,l),
(88,-15,o)
);
}
);
};
layerId = m01;
shapes = (
{
closed = 1;
nodes = (
(1074,12,o),
(1080,24,qs),
(1088,41,o),
(1113,127,o),
(1137,225,o),
(1152,302,o),
(1152,310,qs),
(1152,335,o),
(1135,335,qs),
(1121,335,o),
(1096,306,o),
(1092,294,qs),
(1017,94,o),
(849,80,qs),
(780,76,o),
(639,71,o),
(572,71,qs),
(508,71,o),
(394,76,o),
(351,80,qs),
(341,82,o),
(329,102,o),
(329,114,qs),
(329,129,o),
(335,137,qs),
(427,278,o),
(582,508,o),
(731,717,o),
(896,941,o),
(998,1078,qs),
(1117,1237,ls),
(1123,1244,o),
(1105,1272,o),
(1096,1272,qs),
(1041,1270,o),
(931,1268,o),
(819,1266,o),
(704,1266,o),
(643,1266,qs),
(576,1266,o),
(445,1266,o),
(396,1266,qs),
(347,1266,o),
(247,1290,o),
(227,1297,qs),
(212,1305,o),
(174,1325,o),
(167,1325,qs),
(159,1325,o),
(139,1313,o),
(137,1292,qs),
(135,1250,o),
(114,1158,o),
(92,1082,o),
(84,1060,qs),
(80,1048,o),
(71,1019,o),
(71,1007,qs),
(71,1000,o),
(80,986,o),
(88,986,qs),
(110,986,o),
(135,1031,o),
(143,1048,qs),
(171,1121,o),
(288,1190,o),
(335,1194,qs),
(372,1197,o),
(478,1197,o),
(535,1197,qs),
(613,1197,o),
(768,1195,o),
(821,1194,qs),
(843,1192,o),
(858,1184,o),
(858,1178,qs),
(858,1174,o),
(854,1166,o),
(851,1162,q),
(756,1021,o),
(594,788,o),
(437,570,o),
(268,341,o),
(169,204,qs),
(147,174,o),
(92,96,o),
(55,31,o),
(55,22,q),
(55,22,o),
(61,-6,o),
(69,-6,qs),
(219,-6,ls),
(276,-6,o),
(394,-4,o),
(453,-4,qs),
(517,-4,o),
(657,-6,o),
(804,-8,o),
(960,-10,o),
(1045,-10,qs),
(1060,-10,o)
);
}
);
width = 1344;
},
{
layerId = "9613C2D5-9CC0-4B03-8E94-AFF45D3AC865";
shapes = (
{
closed = 1;
nodes = (
(1066,12,o),
(1072,31,qs),
(1082,67,o),
(1103,143,o),
(1123,219,o),
(1137,288,o),
(1137,314,qs),
(1137,343,o),
(1107,343,qs),
(1096,343,o),
(1078,335,o),
(1070,319,qs),
(1011,178,o),
(929,135,qs),
(884,112,o),
(762,98,o),
(678,98,qs),
(655,98,o),
(568,100,o),
(547,102,qs),
(521,104,o),
(498,114,o),
(498,125,qs),
(498,145,o),
(521,182,qs),
(578,270,o),
(700,478,o),
(825,698,o),
(949,915,o),
(1007,1011,qs),
(1145,1235,ls),
(1148,1243,o),
(1125,1284,o),
(1109,1284,qs),
(1078,1284,o),
(954,1280,o),
(815,1278,o),
(696,1274,o),
(666,1274,qs),
(610,1274,o),
(496,1274,o),
(439,1274,qs),
(384,1274,o),
(310,1276,o),
(270,1290,qs),
(241,1301,o),
(180,1348,o),
(161,1348,qs),
(137,1348,o),
(120,1323,o),
(116,1292,qs),
(112,1237,o),
(102,1158,o),
(82,1084,o),
(57,1031,qs),
(51,1019,o),
(43,990,o),
(43,978,qs),
(43,964,o),
(57,943,o),
(74,943,qs),
(106,943,o),
(147,988,o),
(161,1011,qs),
(208,1090,o),
(339,1182,o),
(425,1182,qs),
(459,1182,o),
(517,1182,o),
(551,1182,qs),
(582,1182,o),
(643,1182,o),
(674,1182,qs),
(692,1182,o),
(704,1170,o),
(704,1160,qs),
(704,1152,o),
(696,1135,o),
(692,1125,q),
(627,1017,o),
(490,796,o),
(353,572,o),
(218,349,o),
(155,239,qs),
(137,210,o),
(100,147,o),
(61,84,o),
(41,53,qs),
(35,45,o),
(51,-10,o),
(71,-10,qs),
(221,-6,ls),
(296,-4,o),
(445,-2,o),
(517,0,qs),
(600,0,o),
(770,-4,o),
(913,-6,o),
(1007,-8,o),
(1015,-8,qs),
(1037,-8,o)
);
}
);
width = 1365;
}
);
note = Z;
unicode = 90;
}
{
glyphname = bracketleft;
layers = (
{
background = {
shapes = (
{
closed = 1;
nodes = (
(215,1073,l),
(213,931,l),
(217,825,ls),
(217,807,o),
(212,732,o),
(212,641,qs),
(216,516,l),
(213,221,l),
(218,135,ls),
(219,119,o),
(219,80,qs),
(219,-2,o),
(218,-56,qs),
(208,-276,l),
(214,-475,l),
(603,-475,l),
(601,-432,l),
(576,-431,o),
(549,-431,qs),
(507,-432,ls),
(429,-432,o),
(383,-422,qs),
(361,-417,o),
(348,-402,o),
(347,-381,qs),
(341,-256,l),
(342,-240,ls),
(347,-178,o),
(347,-63,qs),
(342,203,l),
(346,297,l),
(344,428,l),
(345,563,ls),
(345,574,o),
(343,603,qs),
(341,662,o),
(341,669,qs),
(341,765,l),
(340,795,l),
(344,848,l),
(344,925,l),
(346,1022,l),
(345,1063,ls),
(345,1174,o),
(352,1220,q),
(356,1225,l),
(384,1243,o),
(467,1243,qs),
(605,1241,l),
(603,1283,l),
(215,1285,l),
(213,1251,l)
);
}
);
};
layerId = m01;
shapes = (
{
closed = 1;
nodes = (
(576,-392,o),
(610,-380,o),
(610,-363,qs),
(610,-345,o),
(578,-329,o),
(559,-327,qs),
(404,-302,ls),
(386,-298,o),
(359,-263,o),
(359,-237,qs),
(359,1258,ls),
(359,1274,o),
(390,1305,o),
(404,1307,qs),
(559,1319,ls),
(578,1321,o),
(610,1335,o),
(610,1348,qs),
(610,1364,o),
(588,1374,o),
(574,1374,qs),
(290,1376,ls),
(259,1376,o),
(227,1370,o),
(216,1342,o),
(216,1309,qs),
(216,-343,ls),
(216,-366,o),
(227,-386,o),
(255,-392,o),
(276,-392,qs),
(559,-392,ls)
);
}
);
width = 555;
},
{
layerId = "9613C2D5-9CC0-4B03-8E94-AFF45D3AC865";
shapes = (
{
closed = 1;
nodes = (
(658,-392,o),
(682,-374,o),
(682,-351,qs),
(682,-333,o),
(633,-314,o),
(606,-310,qs),
(457,-286,ls),
(439,-282,o),
(423,-259,o),
(423,-245,qs),
(425,1227,ls),
(425,1243,o),
(441,1270,o),
(461,1272,qs),
(619,1295,l),
(635,1299,o),
(690,1317,o),
(690,1339,qs),
(690,1362,o),
(658,1372,o),
(643,1372,qs),
(298,1374,ls),
(265,1374,o),
(227,1364,o),
(216,1319,o),
(216,1264,qs),
(216,-284,ls),
(216,-339,o),
(227,-384,o),
(265,-394,o),
(298,-394,qs),
(643,-392,ls)
);
}
);
width = 747;
}
);
note = bracketleft;
unicode = 91;
}
{
glyphname = backslash;
layers = (
{
background = {
shapes = (
{
closed = 1;
nodes = (
(911,-277,l),
(200,1426,l),
(113,1426,l),
(823,-277,l)
);
}
);
};
layerId = m01;
shapes = (
{
closed = 1;
nodes = (
(747,-104,o),
(741,-92,qs),
(159,1270,ls),
(149,1292,o),
(108,1303,o),
(82,1303,qs),
(63,1303,o),
(51,1284,o),
(57,1270,qs),
(639,-92,ls),
(649,-112,o),
(688,-122,o),
(709,-122,qs),
(729,-122,o)
);
}
);
width = 1024;
},
{
layerId = "9613C2D5-9CC0-4B03-8E94-AFF45D3AC865";
shapes = (
{
closed = 1;
nodes = (
(774,-96,o),
(768,-82,qs),
(157,1264,ls),
(143,1292,o),
(98,1307,o),
(65,1307,qs),
(39,1307,o),
(16,1278,o),
(22,1264,qs),
(635,-82,ls),
(647,-108,o),
(700,-122,o),
(727,-122,qs),
(749,-122,o)
);
}
);
width = 1131;
}
);
note = backslash;
unicode = 92;
}
{
glyphname = bracketright;
kernLeft = parenright;
layers = (
{
background = {
shapes = (
{
closed = 1;
nodes = (
(153,1234,qs),
(176,1231,o),
(206,1220,q),
(212,1203,o),
(214,1195,q),
(215,1162,l),
(220,1060,l),
(214,972,o),
(214,945,qs),
(214,928,o),
(216,858,qs),
(222,656,o),
(222,609,qs),
(222,589,o),
(220,541,qs),
(218,506,o),
(218,494,qs),
(227,67,l),
(227,6,l),
(224,-32,o),
(224,-46,qs),
(224,-120,l),
(223,-223,l),
(224,-270,ls),
(224,-381,o),
(216,-415,q),
(184,-435,o),
(54,-435,qs),
(39,-435,o),
(-7,-434,o),
(-18,-434,qs),
(-36,-434,l),
(-35,-477,l),
(356,-476,l),
(357,-452,o),
(357,-434,qs),
(354,-316,l),
(355,-124,l),
(351,-25,o),
(351,-10,qs),
(351,5,o),
(354,70,o),
(354,93,qs),
(351,318,l),
(353,368,l),
(351,503,l),
(351,586,l),
(343,698,o),
(343,857,qs),
(343,875,o),
(351,976,o),
(351,1011,qs),
(351,1085,o),
(348,1151,qs),
(347,1171,l),
(349,1281,l),
(328,1285,o),
(312,1285,qs),
(41,1284,l),
(2,1284,l),
(-43,1282,l),
(-42,1240,l),
(142,1235,o)
);
}
);
};
layerId = m01;
shapes = (
{
closed = 1;
nodes = (
(421,-386,o),
(433,-366,o),
(433,-343,qs),
(433,1309,ls),
(433,1342,o),
(421,1370,o),
(390,1376,o),
(359,1376,qs),
(74,1374,ls),
(61,1374,o),
(39,1364,o),
(39,1348,qs),
(39,1335,o),
(71,1321,o),
(90,1319,qs),
(245,1307,ls),
(259,1305,o),
(290,1274,o),
(290,1258,qs),
(290,-237,ls),
(290,-263,o),
(263,-298,o),
(245,-302,qs),
(90,-327,ls),
(71,-329,o),
(39,-345,o),
(39,-363,qs),
(39,-380,o),
(73,-392,o),
(90,-392,qs),
(372,-392,ls),
(396,-392,o)
);
}
);
width = 555;
},
{
layerId = "9613C2D5-9CC0-4B03-8E94-AFF45D3AC865";
shapes = (
{
closed = 1;
nodes = (
(482,-384,o),
(494,-339,o),
(494,-284,qs),
(494,1264,ls),
(494,1319,o),
(482,1364,o),
(447,1374,o),
(412,1374,qs),
(67,1372,ls),
(53,1372,o),
(20,1362,o),
(20,1339,qs),
(20,1317,o),
(74,1299,o),
(90,1295,q),
(249,1272,ls),
(268,1270,o),
(284,1243,o),
(284,1227,qs),
(286,-245,ls),
(286,-259,o),
(270,-282,o),
(253,-286,qs),
(104,-310,ls),
(78,-314,o),
(27,-333,o),
(27,-351,qs),
(27,-374,o),
(53,-392,o),
(67,-392,qs),
(412,-394,ls),
(447,-394,o)
);
}
);
width = 747;
}
);
note = bracketright;
unicode = 93;
}
{
glyphname = asciicircum;
layers = (
{
background = {
shapes = (
{
closed = 1;
nodes = (
(129,783,l),
(513,1244,l),
(896,783,l),
(961,836,l),
(513,1374,l),
(66,836,l)
);
}
);
};
layerId = m01;
shapes = (
{
closed = 1;
nodes = (
(180,576,o),
(192,594,qs),
(478,1007,ls),
(484,1017,o),
(490,1017,o),
(498,1007,qs),
(788,592,ls),
(798,578,o),
(847,557,o),
(868,557,qs),
(882,557,o),
(888,586,o),
(880,598,qs),
(492,1182,l),
(486,1182,l),
(100,598,ls),
(94,590,o),
(94,578,qs),
(94,570,o),
(104,557,o),
(112,557,qs),
(129,557,o)
);
}
);
width = 1024;
},
{
layerId = "9613C2D5-9CC0-4B03-8E94-AFF45D3AC865";
shapes = (
{
closed = 1;
nodes = (
(184,517,o),
(204,547,qs),
(494,980,l),
(498,988,o),
(506,990,o),
(513,980,qs),
(809,547,ls),
(829,517,o),
(878,474,o),
(907,474,qs),
(939,474,o),
(960,506,o),
(951,521,qs),
(512,1194,l),
(496,1194,l),
(63,521,ls),
(59,513,o),
(59,508,qs),
(59,488,o),
(88,474,o),
(106,474,qs),
(135,474,o)
);
}
);
width = 1195;
}
);
note = asciicircum;
unicode = 94;
}
{
glyphname = underscore;
layers = (
{
background = {
shapes = (
{
closed = 1;
nodes = (
(1036,-256,l),
(1036,-154,l),
(-12,-154,l),
(-12,-256,l)
);
}
);
};
layerId = m01;
shapes = (
{
closed = 1;
nodes = (
(29,-259,o),
(10,-288,o),
(0,-323,o),
(0,-333,qs),
(0,-341,o),
(18,-357,o),
(27,-357,qs),
(919,-357,ls),
(943,-357,o),
(982,-300,o),
(982,-280,qs),
(982,-270,o),
(964,-259,o),
(954,-259,qs),
(47,-259,ls)
);
}
);
width = 1024;
},
{
layerId = "9613C2D5-9CC0-4B03-8E94-AFF45D3AC865";
shapes = (
{
closed = 1;
nodes = (
(37,-249,o),
(12,-284,o),
(0,-329,o),
(0,-341,qs),
(0,-349,o),
(20,-368,o),
(33,-368,qs),
(1127,-368,ls),
(1154,-368,o),
(1194,-306,o),
(1194,-280,qs),
(1194,-267,o),
(1168,-249,o),
(1146,-249,qs),
(57,-249,ls)
);
}
);
width = 1024;
}
);
note = underscore;
unicode = 95;
}
{
glyphname = grave;
layers = (
{
background = {
shapes = (
{
closed = 1;
nodes = (
(499,1038,qs),
(484,1058,o),
(461,1092,qs),
(373,1223,o),
(288,1293,o),
(252,1293,qs),
(231,1293,o),
(199,1262,o),
(199,1242,qs),
(199,1224,o),
(231,1177,o),
(319,1117,qs),
(503,993,o),
(518,983,q),
(535,984,l),
(525,1004,o)
);
}
);
};
layerId = m01;
shapes = (
{
closed = 1;
nodes = (
(351,913,qs),
(351,919,o),
(347,937,o),
(343,949,qs),
(329,986,o),
(268,1101,o),
(208,1211,o),
(192,1237,qs),
(184,1252,o),
(155,1272,o),
(139,1272,qs),
(102,1272,o),
(43,1252,o),
(43,1231,qs),
(43,1219,o),
(55,1203,o),
(63,1190,qs),
(86,1156,o),
(167,1056,o),
(249,962,o),
(274,937,qs),
(316,896,o),
(335,896,qs),
(351,896,o)
);
}
);
width = 683;
},
{
layerId = "9613C2D5-9CC0-4B03-8E94-AFF45D3AC865";
shapes = (
{
closed = 1;
nodes = (
(414,911,qs),
(414,919,o),
(410,941,o),
(404,954,qs),
(390,992,o),
(343,1103,o),
(296,1211,o),
(280,1241,qs),
(265,1274,o),
(223,1293,o),
(184,1293,qs),
(135,1293,o),
(65,1270,o),
(65,1244,qs),
(65,1235,o),
(73,1209,o),
(84,1195,qs),
(125,1150,o),
(210,1054,o),
(298,960,o),
(341,915,qs),
(370,886,o),
(392,886,qs),
(414,886,o)
);
}
);
width = 683;
}
);
note = grave;
unicode = 96;
}
{
color = 3;
glyphname = a;
kernLeft = a;
kernRight = a;
layers = (
{
background = {
shapes = (
{
closed = 1;
nodes = (
(791,129,q),
(779,113,ls),
(752,75,o),
(714,75,qs),
(688,75,o),
(669,95,qs),
(650,115,o),
(650,148,qs),
(650,162,o),
(651,191,qs),
(652,207,o),
(652,230,qs),
(651,346,l),
(654,505,ls),
(654,640,o),
(650,662,qs),
(643,708,o),
(579,786,o),
(495,817,o),
(409,817,qs),
(346,817,o),
(177,726,o),
(66,543,o),
(66,517,qs),
(66,508,o),
(76,501,qs),
(94,488,o),
(116,488,qs),
(142,488,o),
(185,516,q),
(202,546,o),
(208,572,qs),
(227,666,o),
(264,700,qs),
(324,754,o),
(393,754,qs),
(459,754,o),
(530,664,o),
(530,537,qs),
(530,498,o),
(528,465,q),
(505,453,o),
(403,410,qs),
(258,349,o),
(89,157,o),
(89,88,qs),
(89,40,o),
(148,-21,o),
(199,-21,qs),
(269,-21,o),
(319,-8,qs),
(350,1,o),
(409,35,q),
(521,113,l),
(530,46,o),
(552,20,qs),
(588,-24,o),
(660,-24,qs),
(702,-24,o),
(726,-9,qs),
(764,14,o),
(795,64,qs),
(819,102,o),
(819,117,qs),
(819,123,o),
(813,136,q),
(796,132,o)
);
},
{
closed = 1;
nodes = (
(398,75,qs),
(354,53,o),
(323,53,qs),
(283,53,o),
(230,105,o),
(230,144,qs),
(230,185,o),
(262,231,qs),
(306,295,o),
(456,393,o),
(523,417,q),
(526,371,o),
(526,344,qs),
(526,292,o),
(519,165,q),
(456,104,o)
);
}
);
};
layerId = m01;
shapes = (
{
closed = 1;
nodes = (
(410,22,o),
(474,76,q),
(480,76,l),
(533,-27,o),
(623,-27,qs),
(655,-27,o),
(727,10,o),
(758,42,qs),
(780,64,o),
(780,86,qs),
(780,96,o),
(768,108,o),
(758,108,qs),
(753,108,o),
(743,98,qs),
(719,76,o),
(670,76,qs),
(639,76,o),
(598,127,o),
(600,169,qs),
(610,646,ls),
(611,721,o),
(519,822,o),
(449,822,qs),
(410,822,o),
(308,786,o),
(202,723,o),
(157,681,qs),
(120,649,o),
(78,576,o),
(78,544,qs),
(78,536,o),
(90,526,o),
(100,526,qs),
(120,526,o),
(180,552,o),
(229,586,o),
(229,596,qs),
(229,604,o),
(227,624,o),
(227,632,qs),
(227,649,o),
(235,681,o),
(247,689,qs),
(267,705,o),
(325,725,o),
(355,725,qs),
(412,725,o),
(472,649,o),
(470,598,qs),
(466,471,ls),
(464,431,o),
(451,407,o),
(412,391,qs),
(212,308,ls),
(139,278,o),
(73,207,o),
(73,143,qs),
(73,108,o),
(122,28,o),
(194,-27,o),
(229,-27,qs),
(292,-27,o)
);
},
{
closed = 1;
nodes = (
(225,121,o),
(225,173,qs),
(225,207,o),
(306,288,o),
(410,326,qs),
(425,332,o),
(445,336,o),
(449,336,qs),
(461,336,o),
(468,316,o),
(466,294,qs),
(463,197,ls),
(461,159,o),
(447,125,o),
(437,115,qs),
(415,94,o),
(361,68,o),
(321,68,qs),
(286,68,o)
);
}
);
width = 832;
},
{
layerId = "9613C2D5-9CC0-4B03-8E94-AFF45D3AC865";
shapes = (
{
closed = 1;
nodes = (
(417,55,o),
(482,113,q),
(486,113,l),
(562,6,o),
(676,6,qs),
(723,6,o),
(809,41,o),
(847,76,qs),
(886,113,o),
(886,135,qs),
(886,144,o),
(872,157,o),
(862,157,qs),
(856,157,o),
(851,152,qs),
(823,128,o),
(788,128,qs),
(762,128,o),
(729,189,o),
(731,231,qs),
(741,589,ls),
(745,702,o),
(611,837,o),
(500,837,qs),
(457,837,o),
(335,798,o),
(210,735,o),
(157,695,qs),
(106,656,o),
(63,601,o),
(63,571,qs),
(63,553,o),
(84,529,o),
(100,529,qs),
(131,529,o),
(218,556,o),
(284,591,o),
(284,604,qs),
(284,615,o),
(280,650,o),
(280,662,qs),
(280,671,o),
(284,689,o),
(290,697,qs),
(302,710,o),
(353,730,o),
(376,730,qs),
(417,730,o),
(457,673,o),
(455,619,qs),
(453,517,ls),
(453,482,o),
(433,455,o),
(394,438,qs),
(225,368,ls),
(141,333,o),
(53,244,o),
(53,179,qs),
(53,131,o),
(108,52,o),
(202,6,o),
(259,6,qs),
(316,6,o)
);
},
{
closed = 1;
nodes = (
(314,170,o),
(314,224,qs),
(314,288,o),
(363,338,o),
(410,362,qs),
(415,366,o),
(425,368,o),
(429,368,qs),
(437,368,o),
(449,359,o),
(449,342,qs),
(443,200,ls),
(443,187,o),
(437,164,o),
(431,157,qs),
(421,144,o),
(398,133,o),
(380,133,qs),
(359,133,o)
);
}
);
width = 981;
}
);
note = a;
unicode = 97;
}
{
color = 3;
glyphname = b;
kernLeft = b;
kernRight = uni1EFC;
layers = (
{
background = {
shapes = (
{
closed = 1;
nodes = (
(159,1183,qs),
(177,1156,o),
(174,982,qs),
(174,922,ls),
(175,846,o),
(175,835,qs),
(174,799,l),
(174,711,l),
(170,608,l),
(172,566,l),
(170,348,l),
(171,272,l),
(169,123,ls),
(169,25,o),
(173,-42,q),
(202,-43,l),
(250,39,o),
(281,39,qs),
(291,39,o),
(453,-29,o),
(544,-29,qs),
(643,-29,o),
(819,53,o),
(917,169,o),
(951,269,qs),
(965,311,o),
(965,420,qs),
(965,489,o),
(925,584,qs),
(902,636,o),
(806,729,o),
(757,749,qs),
(677,781,o),
(577,781,qs),
(562,781,o),
(469,766,q),
(396,744,o),
(383,740,qs),
(301,709,l),
(299,738,o),
(299,743,qs),
(301,829,l),
(300,935,l),
(301,1030,l),
(301,1328,ls),
(301,1333,o),
(296,1349,q),
(281,1349,o),
(274,1348,q),
(151,1309,o),
(42,1290,q),
(34,1272,o),
(34,1262,qs),
(34,1257,l),
(130,1226,o)
);
},
{
closed = 1;
nodes = (
(371,69,qs),
(326,96,o),
(309,158,qs),
(299,198,o),
(299,433,qs),
(299,631,o),
(308,663,o),
(347,682,qs),
(412,713,o),
(508,713,qs),
(640,713,o),
(820,521,o),
(820,366,qs),
(820,197,o),
(661,26,o),
(509,26,qs),
(442,26,o)
);
}
);
};
layerId = m01;
shapes = (
{
closed = 1;
nodes = (
(831,88,o),
(941,296,o),
(941,431,qs),
(941,542,o),
(847,719,o),
(688,822,o),
(588,822,qs),
(523,822,o),
(363,757,o),
(302,705,q),
(292,707,o),
(284,733,o),
(284,771,qs),
(284,1178,ls),
(284,1261,o),
(290,1378,o),
(290,1386,qs),
(290,1392,o),
(282,1400,o),
(278,1400,qs),
(272,1400,o),
(261,1394,qs),
(247,1388,o),
(169,1356,o),
(80,1324,o),
(55,1318,qs),
(47,1316,o),
(31,1309,o),
(31,1299,qs),
(31,1287,o),
(49,1273,o),
(57,1269,qs),
(96,1251,o),
(147,1176,o),
(147,1124,qs),
(147,161,ls),
(147,123,o),
(133,36,o),
(133,18,qs),
(133,8,o),
(153,-6,o),
(161,-6,qs),
(169,-6,o),
(178,4,qs),
(188,14,o),
(210,30,o),
(221,30,qs),
(231,30,o),
(296,10,o),
(339,-2,qs),
(378,-12,o),
(464,-27,o),
(508,-27,qs),
(637,-27,o)
);
},
{
closed = 1;
nodes = (
(361,90,o),
(284,193,o),
(284,262,qs),
(284,647,l),
(327,687,o),
(445,739,o),
(523,739,qs),
(617,739,o),
(737,628,o),
(794,465,o),
(794,387,qs),
(794,288,o),
(735,127,o),
(627,34,o),
(553,34,qs),
(484,34,o)
);
}
);
width = 1045;
},
{
layerId = "9613C2D5-9CC0-4B03-8E94-AFF45D3AC865";
shapes = (
{
closed = 1;
nodes = (
(909,85,o),
(1033,287,o),
(1033,418,qs),
(1033,529,o),
(937,702,o),
(772,804,o),
(668,804,qs),
(611,804,o),
(486,765,o),
(425,728,q),
(417,728,o),
(408,756,o),
(408,778,qs),
(410,1177,ls),
(410,1203,o),
(419,1264,o),
(419,1277,qs),
(419,1286,o),
(410,1301,o),
(396,1301,qs),
(386,1301,o),
(366,1294,qs),
(333,1283,o),
(219,1242,o),
(100,1207,o),
(53,1198,qs),
(43,1196,o),
(31,1181,o),
(31,1170,qs),
(31,1157,o),
(45,1142,o),
(55,1140,qs),
(104,1133,o),
(127,1057,o),
(127,1007,qs),
(137,202,ls),
(139,122,o),
(116,22,o),
(116,6,qs),
(116,-3,o),
(133,-18,o),
(153,-18,qs),
(165,-18,o),
(184,-5,qs),
(200,6,o),
(239,19,o),
(259,19,qs),
(276,19,o),
(321,10,o),
(349,2,qs),
(388,-9,o),
(486,-27,o),
(547,-27,qs),
(692,-27,o)
);
},
{
closed = 1;
nodes = (
(457,107,o),
(408,202,o),
(408,261,qs),
(408,662,l),
(435,680,o),
(523,695,o),
(549,695,qs),
(613,695,o),
(694,593,o),
(731,442,o),
(731,368,qs),
(731,285,o),
(694,143,o),
(627,56,o),
(578,56,qs),
(535,56,o)
);
}
);
width = 1131;
}
);
note = b;
unicode = 98;
}
{
color = 3;
glyphname = c;
kernLeft = c;
kernRight = c;
layers = (
{
background = {
shapes = (
{
closed = 1;
nodes = (
(597,63,o),
(519,63,qs),
(407,63,o),
(239,255,o),
(239,417,qs),
(239,574,o),
(321,678,qs),
(380,751,o),
(469,751,qs),
(506,751,o),
(566,722,o),
(603,684,qs),
(663,622,o),
(713,622,qs),
(746,622,o),
(788,664,o),
(788,696,qs),
(788,740,o),
(747,768,qs),
(674,816,o),
(534,816,qs),
(388,816,o),
(195,717,o),
(78,516,o),
(78,403,qs),
(78,300,o),
(175,86,o),
(355,-31,o),
(467,-31,qs),
(570,-31,o),
(722,35,o),
(800,118,q),
(799,183,l),
(718,114,o)
);
}
);
};
layerId = m01;
shapes = (
{
closed = 1;
nodes = (
(582,-2,o),
(668,56,o),
(700,96,qs),
(715,116,o),
(729,145,o),
(729,157,qs),
(729,185,o),
(707,185,qs),
(704,185,o),
(692,179,o),
(688,175,qs),
(641,127,o),
(559,90,o),
(502,90,qs),
(419,90,o),
(284,177,o),
(204,328,o),
(204,421,qs),
(204,568,o),
(323,749,o),
(419,749,qs),
(455,749,o),
(561,689,o),
(604,655,qs),
(615,648,o),
(635,634,o),
(645,634,qs),
(662,634,o),
(702,659,o),
(729,699,o),
(729,715,qs),
(729,735,o),
(706,753,qs),
(610,822,o),
(482,822,qs),
(368,822,o),
(180,697,o),
(69,487,o),
(69,358,qs),
(69,249,o),
(161,72,o),
(319,-29,o),
(417,-29,qs),
(478,-29,o)
);
}
);
width = 853;
},
{
layerId = "9613C2D5-9CC0-4B03-8E94-AFF45D3AC865";
shapes = (
{
closed = 1;
nodes = (
(647,48,o),
(749,150,o),
(764,187,qs),
(772,204,o),
(776,229,o),
(776,237,qs),
(776,266,o),
(753,266,qs),
(743,266,o),
(727,255,o),
(717,248,qs),
(670,215,o),
(582,178,o),
(523,178,qs),
(443,178,o),
(333,246,o),
(278,375,o),
(278,466,qs),
(278,597,o),
(345,702,o),
(414,702,qs),
(453,702,o),
(557,653,o),
(610,610,qs),
(625,597,o),
(660,575,o),
(680,575,qs),
(696,575,o),
(741,610,o),
(776,653,o),
(776,664,qs),
(776,678,o),
(760,697,q),
(653,804,o),
(484,804,qs),
(361,804,o),
(161,690,o),
(41,497,o),
(41,377,qs),
(41,263,o),
(139,80,o),
(308,-27,o),
(414,-27,qs),
(502,-27,o)
);
}
);
width = 960;
}
);
note = c;
unicode = 99;
}
{
color = 3;
glyphname = d;
kernLeft = c;
kernRight = d;
layers = (
{
background = {
shapes = (
{
closed = 1;
nodes = (
(689,744,qs),
(602,784,o),
(467,784,qs),
(437,784,o),
(348,761,qs),
(312,752,o),
(202,685,o),
(172,651,qs),
(125,599,o),
(67,442,o),
(67,356,qs),
(67,260,o),
(155,76,o),
(319,-27,o),
(398,-27,qs),
(529,-27,o),
(685,39,qs),
(721,54,o),
(738,59,q),
(738,-37,l),
(757,-37,o),
(789,-31,qs),
(934,-3,ls),
(967,3,o),
(998,10,q),
(999,18,o),
(999,25,qs),
(999,43,l),
(975,45,o),
(961,45,qs),
(893,46,o),
(873,66,qs),
(863,75,o),
(863,146,qs),
(866,377,l),
(859,811,l),
(863,1196,ls),
(863,1280,o),
(859,1348,q),
(808,1347,l),
(710,1314,o),
(574,1300,q),
(572,1288,o),
(572,1278,qs),
(572,1267,l),
(587,1263,o),
(594,1261,qs),
(691,1235,o),
(731,1185,o),
(731,1093,qs),
(730,872,l),
(731,755,l),
(730,726,l),
(716,731,o)
);
},
{
closed = 1;
nodes = (
(589,50,o),
(515,50,qs),
(386,50,o),
(213,232,o),
(213,385,qs),
(213,559,o),
(373,737,o),
(488,737,qs),
(570,737,o),
(702,654,o),
(735,561,o),
(735,384,qs),
(735,175,o),
(731,108,q),
(711,90,o)
);
}
);
};
layerId = m01;
shapes = (
{
closed = 1;
nodes = (
(715,-36,o),
(731,-28,qs),
(800,1,o),
(905,31,o),
(960,39,q),
(970,39,o),
(988,61,o),
(988,75,qs),
(988,95,o),
(952,93,qs),
(927,91,o),
(878,87,o),
(868,87,qs),
(847,87,o),
(827,148,o),
(827,216,qs),
(827,1113,ls),
(827,1202,o),
(835,1314,o),
(841,1371,o),
(841,1383,qs),
(839,1395,o),
(827,1395,qs),
(823,1395,o),
(809,1393,o),
(802,1389,qs),
(774,1377,o),
(676,1337,o),
(590,1316,q),
(574,1310,o),
(574,1292,qs),
(574,1270,o),
(592,1266,qs),
(639,1258,o),
(690,1202,o),
(690,1121,qs),
(690,839,ls),
(690,792,o),
(676,792,qs),
(668,792,o),
(651,797,qs),
(629,805,o),
(549,819,o),
(510,819,qs),
(372,819,o),
(174,692,o),
(69,490,o),
(69,375,qs),
(69,275,o),
(157,89,o),
(319,-30,o),
(431,-30,qs),
(529,-30,o),
(658,65,o),
(688,111,q),
(688,99,ls),
(688,73,o),
(678,-1,o),
(678,-20,qs),
(678,-24,o),
(696,-40,o),
(700,-40,qs),
(706,-40,o)
);
},
{
closed = 1;
nodes = (
(370,99,o),
(274,170,o),
(208,307,o),
(208,420,qs),
(208,553,o),
(290,694,o),
(404,750,o),
(449,750,qs),
(521,750,o),
(629,684,o),
(690,581,o),
(690,527,qs),
(688,170,l),
(651,127,o),
(553,73,o),
(502,73,qs),
(470,73,o)
);
}
);
width = 1024;
},
{
layerId = "9613C2D5-9CC0-4B03-8E94-AFF45D3AC865";
shapes = (
{
closed = 1;
nodes = (
(725,5,o),
(737,11,qs),
(809,37,o),
(974,72,o),
(1048,79,qs),
(1058,79,o),
(1084,114,o),
(1084,129,qs),
(1084,151,o),
(1058,149,qs),
(1009,146,o),
(992,144,o),
(982,144,qs),
(956,144,o),
(937,197,o),
(937,260,qs),
(949,1214,l),
(951,1234,o),
(954,1288,o),
(958,1323,o),
(958,1314,qs),
(958,1338,o),
(935,1338,qs),
(933,1338,o),
(913,1332,o),
(884,1319,qs),
(829,1297,o),
(662,1249,o),
(592,1234,qs),
(570,1230,o),
(570,1206,qs),
(570,1182,o),
(594,1177,qs),
(635,1169,o),
(666,1108,o),
(666,1044,qs),
(666,835,ls),
(666,815,o),
(658,815,q),
(662,815,o),
(633,820,qs),
(606,828,o),
(545,835,o),
(517,835,qs),
(378,835,o),
(163,724,o),
(41,526,o),
(41,397,qs),
(41,288,o),
(143,111,o),
(316,9,o),
(423,9,qs),
(500,9,o),
(641,79,o),
(684,140,q),
(684,129,ls),
(682,111,o),
(678,64,o),
(672,33,q),
(672,26,o),
(696,0,o),
(702,0,qs),
(707,0,o)
);
},
{
closed = 1;
nodes = (
(421,186,o),
(370,268,o),
(343,380,o),
(343,449,qs),
(343,536,o),
(386,669,o),
(459,744,o),
(506,744,qs),
(539,744,o),
(613,704,o),
(664,645,o),
(664,617,qs),
(666,190,l),
(641,166,o),
(555,142,o),
(531,142,qs),
(490,142,o)
);
}
);
width = 1131;
}
);
note = d;
unicode = 100;
}
{
color = 3;
glyphname = e;
kernLeft = c;
kernRight = ae;
layers = (
{
background = {
shapes = (
{
closed = 1;
nodes = (
(792,601,o),
(713,743,o),
(633,788,qs),
(574,822,o),
(481,822,qs),
(395,822,o),
(330,795,qs),
(285,776,o),
(225,728,qs),
(183,694,o),
(154,641,qs),
(111,563,o),
(78,425,o),
(78,381,qs),
(78,242,o),
(195,47,o),
(297,3,qs),
(366,-26,o),
(437,-26,qs),
(515,-26,o),
(549,-17,qs),
(620,3,o),
(758,89,o),
(803,146,q),
(804,154,o),
(804,161,q),
(798,201,l),
(726,142,l),
(664,102,o),
(596,80,o),
(539,77,q),
(432,80,o),
(289,173,o),
(212,350,o),
(212,411,qs),
(213,460,l),
(213,470,l),
(212,480,ls),
(212,491,o),
(221,521,q),
(269,525,o),
(315,525,qs),
(391,525,l),
(792,528,l),
(792,542,ls)
);
},
{
closed = 1;
nodes = (
(288,688,qs),
(358,775,o),
(474,775,qs),
(529,775,o),
(612,732,o),
(652,653,o),
(652,622,qs),
(652,607,o),
(634,588,q),
(625,582,o),
(585,580,qs),
(332,564,o),
(281,564,qs),
(234,564,l),
(234,622,o)
);
}
);
};
layerId = m01;
shapes = (
{
closed = 1;
nodes = (
(568,0,o),
(651,56,o),
(680,94,qs),
(715,139,o),
(715,177,qs),
(715,197,o),
(700,197,qs),
(694,197,o),
(686,191,o),
(678,181,qs),
(641,137,o),
(545,92,o),
(486,92,qs),
(404,92,o),
(267,185,o),
(184,342,o),
(184,437,qs),
(184,481,o),
(206,511,o),
(233,511,qs),
(647,511,ls),
(706,511,o),
(706,572,qs),
(706,646,o),
(637,759,o),
(515,822,o),
(437,822,qs),
(335,822,o),
(163,707,o),
(59,518,o),
(59,403,qs),
(59,274,o),
(149,78,o),
(310,-29,o),
(417,-29,qs),
(470,-29,o)
);
},
{
closed = 1;
nodes = (
(214,592,qs),
(214,632,o),
(272,711,o),
(363,765,o),
(408,765,qs),
(476,765,o),
(576,683,o),
(576,626,qs),
(576,606,o),
(570,584,o),
(561,582,qs),
(529,576,o),
(463,572,o),
(415,572,qs),
(237,572,ls),
(214,572,o)
);
}
);
width = 853;
},
{
layerId = "9613C2D5-9CC0-4B03-8E94-AFF45D3AC865";
shapes = (
{
closed = 1;
nodes = (
(655,35,o),
(749,133,o),
(766,183,qs),
(778,216,o),
(778,233,qs),
(778,257,o),
(756,257,qs),
(751,257,o),
(735,248,o),
(729,244,qs),
(680,209,o),
(584,168,o),
(527,168,qs),
(455,168,o),
(345,231,o),
(282,340,o),
(282,407,qs),
(282,442,o),
(308,471,o),
(335,471,qs),
(723,471,ls),
(784,471,o),
(784,544,qs),
(784,617,o),
(702,734,o),
(564,804,o),
(480,804,qs),
(359,804,o),
(159,690,o),
(41,496,o),
(41,377,qs),
(41,263,o),
(139,80,o),
(308,-27,o),
(414,-27,qs),
(508,-27,o)
);
},
{
closed = 1;
nodes = (
(306,581,qs),
(304,617,o),
(347,684,o),
(415,726,o),
(455,726,qs),
(506,726,o),
(570,666,o),
(570,617,qs),
(570,599,o),
(559,566,o),
(549,562,qs),
(533,556,o),
(496,553,o),
(439,553,qs),
(335,553,ls),
(306,553,o)
);
}
);
width = 960;
}
);
note = e;
unicode = 101;
}
{
color = 3;
glyphname = f;
kernLeft = f;
kernRight = f;
layers = (
{
background = {
shapes = (
{
closed = 1;
nodes = (
(367,896,qs),
(367,1074,o),
(391,1176,o),
(482,1246,o),
(537,1246,qs),
(557,1246,o),
(576,1241,qs),
(587,1238,o),
(670,1205,qs),
(714,1186,o),
(752,1186,qs),
(783,1186,o),
(825,1226,o),
(825,1254,qs),
(825,1287,o),
(795,1308,qs),
(751,1339,o),
(656,1339,qs),
(585,1339,o),
(474,1303,o),
(430,1267,qs),
(370,1217,o),
(285,1084,o),
(267,1017,qs),
(260,993,o),
(248,890,qs),
(243,851,o),
(242,835,qs),
(241,800,o),
(234,789,qs),
(221,768,o),
(190,754,qs),
(110,716,o),
(106,712,qs),
(96,704,o),
(96,692,q),
(98,681,l),
(141,677,o),
(161,677,qs),
(215,675,o),
(241,667,q),
(246,497,o),
(246,212,qs),
(246,112,o),
(244,100,qs),
(240,79,o),
(230,71,qs),
(205,51,o),
(119,35,qs),
(112,33,o),
(97,30,q),
(98,-1,l),
(131,-1,l),
(383,7,l),
(457,4,ls),
(534,2,o),
(582,-1,q),
(596,0,l),
(599,11,o),
(599,32,q),
(580,35,o),
(525,43,qs),
(452,52,o),
(433,61,qs),
(403,74,o),
(392,96,qs),
(373,134,o),
(373,191,qs),
(375,448,ls),
(375,481,o),
(370,638,qs),
(369,648,o),
(369,653,qs),
(369,665,o),
(371,688,q),
(419,697,o),
(543,697,qs),
(581,697,ls),
(607,697,o),
(632,701,q),
(635,727,o),
(635,740,qs),
(635,751,o),
(633,773,q),
(617,773,o),
(368,779,q),
(367,832,o)
);
}
);
};
layerId = m01;
shapes = (
{
closed = 1;
nodes = (
(172,0,o),
(216,4,o),
(249,4,qs),
(300,4,o),
(390,-6,o),
(449,-6,qs),
(468,-6,o),
(488,4,o),
(488,16,qs),
(488,42,o),
(443,48,qs),
(365,58,o),
(314,95,o),
(314,135,qs),
(314,673,ls),
(314,685,o),
(327,699,o),
(351,699,qs),
(576,699,ls),
(588,699,o),
(594,715,qs),
(600,727,o),
(606,758,o),
(606,772,qs),
(606,782,o),
(590,794,o),
(580,794,qs),
(335,794,ls),
(327,794,o),
(314,802,o),
(314,814,qs),
(314,989,ls),
(314,1157,o),
(433,1320,o),
(525,1320,qs),
(590,1320,o),
(664,1275,o),
(690,1249,qs),
(709,1231,o),
(739,1203,o),
(756,1203,qs),
(784,1203,o),
(823,1243,o),
(823,1282,qs),
(823,1334,o),
(717,1402,o),
(608,1402,qs),
(543,1402,o),
(394,1344,o),
(261,1209,o),
(176,979,o),
(176,806,q),
(147,792,o),
(96,764,o),
(61,746,q),
(59,744,o),
(47,739,o),
(47,735,qs),
(47,725,o),
(69,701,o),
(74,699,q),
(106,697,o),
(157,695,o),
(176,695,q),
(176,135,ls),
(176,95,o),
(137,58,o),
(92,48,qs),
(73,44,o),
(47,32,o),
(47,16,qs),
(47,4,o),
(67,-6,o),
(86,-6,qs),
(125,-6,o)
);
}
);
width = 661;
},
{
layerId = "9613C2D5-9CC0-4B03-8E94-AFF45D3AC865";
shapes = (
{
closed = 1;
nodes = (
(196,47,o),
(270,51,o),
(304,51,qs),
(355,51,o),
(515,42,o),
(574,42,qs),
(586,42,o),
(606,62,o),
(606,73,qs),
(606,101,o),
(568,108,qs),
(486,125,o),
(441,166,o),
(441,216,qs),
(441,668,ls),
(441,694,o),
(472,714,o),
(519,714,qs),
(690,714,ls),
(696,714,o),
(706,729,qs),
(713,742,o),
(723,781,o),
(723,798,qs),
(723,809,o),
(707,829,o),
(690,829,qs),
(474,829,ls),
(461,829,o),
(441,840,o),
(441,857,qs),
(441,1006,ls),
(441,1143,o),
(517,1265,o),
(594,1265,qs),
(657,1265,o),
(751,1195,o),
(786,1158,qs),
(805,1134,o),
(841,1104,o),
(858,1104,qs),
(898,1104,o),
(939,1158,o),
(939,1200,qs),
(939,1280,o),
(815,1352,o),
(676,1352,qs),
(600,1352,o),
(427,1298,o),
(272,1176,o),
(167,977,o),
(157,829,q),
(125,816,o),
(71,796,o),
(47,786,qs),
(39,785,o),
(27,775,o),
(27,768,qs),
(27,753,o),
(43,711,o),
(55,709,qs),
(86,707,o),
(137,705,o),
(157,705,q),
(157,179,ls),
(157,149,o),
(131,123,o),
(74,107,qs),
(59,101,o),
(39,84,o),
(39,70,qs),
(39,57,o),
(67,42,o),
(78,42,qs),
(118,42,o)
);
}
);
width = 619;
}
);
note = f;
unicode = 102;
}
{
color = 3;
glyphname = g;
kernLeft = g;
kernRight = g;
layers = (
{
background = {
shapes = (
{
closed = 1;
nodes = (
(219,-93,qs),
(93,-157,o),
(13,-274,o),
(13,-313,qs),
(13,-358,o),
(86,-450,o),
(260,-528,o),
(420,-528,qs),
(565,-528,o),
(789,-442,o),
(899,-304,o),
(899,-223,qs),
(899,-163,o),
(834,-50,o),
(706,8,o),
(591,12,qs),
(326,20,o),
(231,71,qs),
(195,91,o),
(195,112,qs),
(195,132,o),
(232,155,qs),
(309,201,o),
(401,201,qs),
(429,200,o),
(435,200,qs),
(516,200,o),
(674,280,o),
(764,432,o),
(764,503,qs),
(764,574,o),
(721,660,q),
(735,662,o),
(740,662,qs),
(754,662,o),
(883,627,o),
(911,627,qs),
(927,627,o),
(944,643,o),
(944,659,qs),
(944,706,o),
(932,726,q),
(917,735,o),
(894,735,qs),
(882,735,o),
(751,718,o),
(734,718,qs),
(714,718,o),
(698,723,qs),
(691,726,o),
(651,751,qs),
(588,791,o),
(556,801,qs),
(500,820,o),
(433,820,qs),
(285,820,o),
(96,635,o),
(96,501,qs),
(96,338,o),
(245,246,qs),
(273,229,o),
(286,220,q),
(244,200,o),
(114,158,o),
(92,135,qs),
(77,119,o),
(77,93,qs),
(77,64,o),
(117,16,o),
(193,-33,q),
(258,-60,o),
(270,-66,q),
(256,-74,o)
);
},
{
closed = 1;
nodes = (
(328,784,o),
(423,784,qs),
(508,784,o),
(628,641,o),
(628,504,qs),
(628,368,o),
(513,235,o),
(426,235,qs),
(378,235,o),
(284,294,o),
(230,415,o),
(230,505,qs),
(230,648,o)
);
},
{
closed = 1;
nodes = (
(129,-291,qs),
(129,-213,o),
(194,-157,qs),
(278,-85,o),
(385,-85,qs),
(423,-85,o),
(591,-98,qs),
(650,-102,o),
(682,-111,qs),
(727,-123,o),
(782,-164,o),
(814,-227,o),
(814,-259,qs),
(814,-311,o),
(723,-428,o),
(526,-491,o),
(427,-491,qs),
(288,-491,o),
(197,-421,q),
(129,-363,o)
);
}
);
};
layerId = m01;
shapes = (
{
closed = 1;
nodes = (
(617,-495,o),
(743,-372,o),
(819,-223,o),
(819,-146,qs),
(819,-54,o),
(643,45,o),
(463,55,qs),
(380,61,o),
(267,85,o),
(208,126,o),
(208,154,qs),
(208,176,o),
(267,230,o),
(310,246,q),
(243,279,l),
(233,261,o),
(212,238,o),
(169,204,o),
(123,168,qs),
(100,148,o),
(78,115,o),
(78,95,qs),
(78,19,o),
(221,-52,o),
(406,-66,qs),
(510,-72,o),
(639,-108,o),
(700,-165,o),
(700,-209,qs),
(700,-277,o),
(645,-398,o),
(596,-435,qs),
(525,-489,o),
(410,-489,qs),
(308,-489,o),
(169,-380,o),
(169,-300,qs),
(169,-221,o),
(243,-110,o),
(337,-48,q),
(255,-44,l),
(206,-84,o),
(114,-157,o),
(86,-181,qs),
(53,-207,o),
(22,-279,o),
(22,-330,qs),
(22,-439,o),
(216,-568,o),
(382,-568,qs),
(463,-568,o)
);
},
{
closed = 1;
nodes = (
(268,357,o),
(218,474,o),
(218,543,qs),
(218,605,o),
(267,708,o),
(347,774,o),
(392,774,qs),
(441,774,o),
(525,712,o),
(578,611,o),
(578,553,qs),
(578,440,o),
(480,287,o),
(406,287,qs),
(355,287,o)
);
},
{
closed = 1;
nodes = (
(619,321,o),
(706,492,o),
(706,593,qs),
(706,611,o),
(709,647,o),
(715,676,o),
(717,684,qs),
(723,700,o),
(776,700,qs),
(829,700,ls),
(835,700,o),
(845,710,qs),
(864,730,o),
(864,748,qs),
(864,778,o),
(839,778,qs),
(825,778,o),
(755,772,o),
(731,772,qs),
(702,772,o),
(647,778,o),
(600,791,qs),
(559,803,o),
(474,833,o),
(417,833,qs),
(329,833,o),
(172,754,o),
(76,613,o),
(76,519,qs),
(76,438,o),
(169,301,o),
(314,218,o),
(394,218,qs),
(478,218,o)
);
}
);
width = 917;
},
{
layerId = "9613C2D5-9CC0-4B03-8E94-AFF45D3AC865";
shapes = (
{
closed = 1;
nodes = (
(717,-492,o),
(872,-367,o),
(964,-215,o),
(964,-138,qs),
(964,-51,o),
(770,40,o),
(551,56,qs),
(439,66,o),
(316,80,o),
(267,104,o),
(267,123,qs),
(267,138,o),
(314,182,o),
(353,193,q),
(249,226,l),
(243,213,o),
(204,180,o),
(151,143,o),
(123,125,qs),
(90,104,o),
(69,67,o),
(69,51,qs),
(69,-42,o),
(247,-158,o),
(455,-178,qs),
(555,-188,o),
(662,-212,o),
(702,-245,o),
(702,-273,qs),
(702,-310,o),
(662,-387,o),
(629,-419,qs),
(576,-468,o),
(437,-468,qs),
(333,-468,o),
(200,-370,o),
(200,-295,qs),
(200,-247,o),
(267,-175,o),
(321,-147,q),
(221,-110,l),
(202,-123,o),
(135,-171,o),
(96,-197,qs),
(43,-232,o),
(16,-300,o),
(16,-358,qs),
(16,-455,o),
(235,-566,o),
(431,-566,qs),
(529,-566,o)
);
},
{
closed = 1;
nodes = (
(359,291,o),
(323,402,o),
(323,472,qs),
(323,537,o),
(357,637,o),
(415,694,o),
(453,694,qs),
(494,694,o),
(553,637,o),
(586,533,o),
(586,463,qs),
(586,354,o),
(517,226,o),
(459,226,qs),
(421,226,o)
);
},
{
closed = 1;
nodes = (
(723,239,o),
(833,402,o),
(833,500,qs),
(833,548,o),
(833,579,o),
(837,583,o),
(843,587,qs),
(862,601,o),
(913,601,qs),
(966,601,ls),
(980,601,o),
(992,614,qs),
(1019,649,o),
(1019,688,qs),
(1019,733,o),
(986,733,qs),
(966,733,o),
(909,727,o),
(878,727,qs),
(831,727,o),
(753,734,o),
(717,740,qs),
(647,749,o),
(533,775,o),
(472,775,qs),
(366,775,o),
(180,694,o),
(65,548,o),
(65,454,qs),
(65,363,o),
(176,221,o),
(347,141,o),
(435,141,qs),
(543,141,o)
);
}
);
width = 1109;
}
);
note = g;
unicode = 103;
}
{
color = 3;
glyphname = h;
kernLeft = h;
kernRight = h;
layers = (
{
background = {
shapes = (
{
closed = 1;
nodes = (
(30,4,qs),
(31,-3,l),
(51,-4,o),
(61,-5,q),
(190,-1,l),
(362,1,l),
(440,0,ls),
(455,0,o),
(484,1,q),
(489,12,o),
(489,17,q),
(486,28,l),
(464,37,o),
(453,40,qs),
(312,74,l),
(310,81,o),
(309,96,qs),
(307,166,l),
(308,230,ls),
(305,346,o),
(305,355,qs),
(307,428,l),
(306,498,ls),
(306,544,o),
(318,564,qs),
(336,594,o),
(428,678,o),
(461,695,qs),
(509,718,o),
(563,718,qs),
(628,718,o),
(727,655,o),
(741,602,qs),
(763,525,o),
(759,408,qs),
(757,334,ls),
(752,102,o),
(748,76,qs),
(746,65,o),
(734,55,q),
(674,41,l),
(636,35,o),
(622,17,q),
(622,8,ls),
(622,2,o),
(627,-7,q),
(649,-7,ls),
(657,-7,o),
(706,-5,qs),
(786,-1,o),
(804,-1,qs),
(1017,-7,l),
(1018,24,l),
(987,34,o),
(930,46,qs),
(873,59,l),
(871,103,o),
(871,129,qs),
(871,152,o),
(875,275,qs),
(879,374,l),
(878,431,l),
(881,533,ls),
(881,645,o),
(836,706,qs),
(758,810,o),
(635,810,qs),
(570,810,o),
(452,761,o),
(400,719,qs),
(371,695,o),
(308,622,q),
(306,644,o),
(306,662,qs),
(310,864,l),
(309,1028,l),
(310,1155,ls),
(310,1304,o),
(308,1332,q),
(259,1332,l),
(205,1300,o),
(86,1266,q),
(74,1265,o),
(48,1259,o),
(34,1257,q),
(32,1244,o),
(32,1237,qs),
(32,1232,l),
(140,1207,o),
(164,1184,qs),
(177,1173,o),
(186,1084,o),
(186,856,qs),
(183,759,l),
(183,680,l),
(182,569,l),
(184,271,l),
(183,154,l),
(184,88,ls),
(184,63,o),
(173,56,qs),
(155,45,o),
(38,24,q),
(30,12,o)
);
}
);
};
layerId = m01;
shapes = (
{
closed = 1;
nodes = (
(161,0,o),
(202,4,o),
(235,4,qs),
(270,4,o),
(306,0,o),
(345,-6,o),
(384,-6,qs),
(423,-6,o),
(423,16,qs),
(423,28,o),
(402,42,o),
(380,48,qs),
(351,58,o),
(306,89,o),
(304,129,qs),
(304,532,ls),
(304,594,o),
(325,649,o),
(357,675,qs),
(384,697,o),
(482,719,o),
(519,719,qs),
(562,719,o),
(645,671,o),
(702,590,o),
(702,540,qs),
(702,135,ls),
(702,95,o),
(655,58,o),
(625,48,qs),
(604,40,o),
(580,30,o),
(580,16,qs),
(580,-6,o),
(619,-6,qs),
(658,-6,o),
(700,0,o),
(739,4,o),
(772,4,qs),
(807,4,o),
(845,0,o),
(886,-6,o),
(925,-6,qs),
(964,-6,o),
(964,16,qs),
(964,28,o),
(941,42,o),
(919,48,qs),
(890,58,o),
(839,95,o),
(839,135,qs),
(839,552,ls),
(839,669,o),
(711,822,o),
(615,822,qs),
(555,822,o),
(441,778,o),
(349,721,o),
(317,697,q),
(310,711,o),
(304,739,o),
(304,770,qs),
(304,1116,ls),
(304,1223,o),
(312,1330,o),
(321,1374,o),
(321,1386,qs),
(321,1392,o),
(314,1400,o),
(308,1400,qs),
(304,1400,o),
(296,1396,qs),
(265,1382,o),
(182,1352,o),
(106,1328,o),
(78,1318,qs),
(63,1312,o),
(63,1294,qs),
(63,1271,o),
(80,1267,qs),
(131,1259,o),
(167,1177,o),
(167,1124,qs),
(167,129,ls),
(165,89,o),
(112,58,o),
(82,48,qs),
(37,34,o),
(37,16,qs),
(37,-6,o),
(76,-6,qs),
(116,-6,o)
);
}
);
width = 1045;
},
{
layerId = "9613C2D5-9CC0-4B03-8E94-AFF45D3AC865";
shapes = (
{
closed = 1;
nodes = (
(182,0,o),
(251,3,o),
(284,3,qs),
(319,3,o),
(388,0,o),
(463,-6,o),
(502,-6,qs),
(535,-6,o),
(535,24,qs),
(535,38,o),
(512,57,o),
(496,62,qs),
(470,72,o),
(433,98,o),
(433,135,qs),
(433,547,ls),
(433,569,o),
(441,591,o),
(453,598,qs),
(486,621,o),
(551,639,o),
(578,639,qs),
(610,639,o),
(660,602,o),
(692,539,o),
(692,500,qs),
(692,138,ls),
(692,98,o),
(651,68,o),
(625,61,qs),
(611,57,o),
(586,38,o),
(586,24,qs),
(586,-6,o),
(635,-6,qs),
(684,-6,o),
(737,0,o),
(786,3,o),
(831,3,qs),
(874,3,o),
(931,0,o),
(994,-6,o),
(1043,-6,qs),
(1086,-6,o),
(1086,22,qs),
(1086,37,o),
(1064,53,o),
(1045,61,qs),
(1017,70,o),
(976,96,o),
(976,135,qs),
(976,541,ls),
(976,667,o),
(831,805,o),
(725,805,qs),
(658,805,o),
(551,761,o),
(470,702,o),
(441,678,q),
(435,681,o),
(431,711,o),
(431,728,qs),
(431,1179,l),
(433,1197,o),
(437,1236,o),
(441,1269,o),
(441,1278,qs),
(441,1288,o),
(433,1302,o),
(419,1302,qs),
(410,1302,o),
(392,1297,qs),
(363,1288,o),
(247,1247,o),
(122,1208,o),
(73,1199,qs),
(53,1195,o),
(53,1171,qs),
(53,1145,o),
(74,1142,qs),
(123,1132,o),
(149,1058,o),
(149,1009,qs),
(149,131,ls),
(149,90,o),
(106,70,o),
(76,61,qs),
(31,46,o),
(31,22,qs),
(31,-6,o),
(71,-6,qs),
(110,-6,o)
);
}
);
width = 1131;
}
);
note = h;
unicode = 104;
}
{
glyphname = i;
kernLeft = i;
kernRight = i;
layers = (
{
background = {
shapes = (
{
closed = 1;
nodes = (
(192,1139,o),
(229,1139,qs),
(266,1139,o),
(322,1194,o),
(322,1225,qs),
(322,1256,o),
(266,1310,o),
(229,1310,qs),
(193,1310,o),
(142,1262,o),
(142,1229,qs),
(142,1189,o)
);
},
{
closed = 1;
nodes = (
(171,664,o),
(176,652,qs),
(182,635,o),
(182,566,qs),
(182,221,o),
(180,144,qs),
(180,98,o),
(163,77,qs),
(153,63,o),
(121,57,qs),
(23,36,o),
(19,34,qs),
(0,26,o),
(0,12,qs),
(0,7,o),
(5,0,q),
(16,-3,o),
(21,-3,q),
(49,1,o),
(79,2,qs),
(226,7,o),
(239,7,qs),
(266,7,o),
(349,0,qs),
(410,-4,o),
(449,-5,q),
(454,4,o),
(454,10,qs),
(454,15,o),
(451,22,q),
(431,30,o),
(391,41,qs),
(327,59,o),
(301,88,o),
(302,125,qs),
(305,430,l),
(304,718,l),
(304,771,ls),
(306,811,o),
(306,816,qs),
(306,838,o),
(302,886,q),
(290,887,ls),
(283,887,o),
(271,885,q),
(244,844,o),
(165,778,o),
(129,762,q),
(124,759,o),
(59,740,q),
(58,711,l),
(128,695,o)
);
}
);
};
layerId = m01;
shapes = (
{
alignment = -1;
ref = idotless;
},
{
alignment = -1;
pos = (47,0);
ref = dotaccent;
}
);
width = 469;
},
{
layerId = "9613C2D5-9CC0-4B03-8E94-AFF45D3AC865";
shapes = (
{
ref = idotless;
},
{
pos = (576,0);
ref = dotaccent;
}
);
width = 1259;
}
);
note = i;
unicode = 105;
}
